<svg width="85" height="68" viewBox="0 0 85 68" fill="none" xmlns="http://www.w3.org/2000/svg">
<path fill-rule="evenodd" clip-rule="evenodd" d="M65.9748 1.67362C65.8704 2.5966 65.4853 3.87644 65.1164 4.52772C64.6829 5.29284 64.5441 5.80586 64.7225 5.985C65.0898 6.3538 64.4689 7.3344 63.6232 7.72108C63.265 7.88518 62.9715 8.18158 62.9709 8.38031C62.9707 8.57876 62.5892 8.99667 62.1236 9.30896C61.1529 9.95996 61.0068 10.4395 61.8459 10.2192C62.4162 10.0693 63.2545 10.6538 63.2545 11.2012C63.2545 11.3607 63.006 11.5566 62.7021 11.6364C62.2618 11.752 62.1827 11.9479 62.3127 12.6003C62.4991 13.536 61.7981 14.8451 61.1108 14.8451C60.8719 14.8451 60.7438 14.9544 60.8261 15.0881C60.9728 15.3263 59.4412 15.2701 55.4792 14.892C53.5736 14.7103 53.4989 14.6748 53.4718 13.9366C53.4562 13.5147 53.6151 13.1036 53.8252 13.0227C54.0587 12.9327 54.2069 12.4291 54.2069 11.7241C54.2069 10.7336 54.098 10.5283 53.4294 10.2564C53.0019 10.0826 51.7827 9.92617 50.7207 9.90857C48.4786 9.87166 47.9866 10.2589 47.9866 12.0603C47.9866 12.9628 48.0831 13.1417 48.5688 13.1417C48.8889 13.1417 49.0721 13.2697 48.9757 13.4264C48.8586 13.6167 48.6248 13.6167 48.2708 13.4264C47.9796 13.2697 47.1919 13.1397 46.5209 13.1374C44.8381 13.1315 44.3331 12.7842 44.8318 11.9765C45.1494 11.4627 45.1494 11.3227 44.8318 11.1206C44.6232 10.9877 44.2935 10.8773 44.099 10.8747C43.5858 10.8685 43.6661 10.2839 44.2403 9.84611C44.6998 9.49606 44.6908 9.46823 44.1157 9.46C43.2428 9.44722 43.0981 9.0455 43.7523 8.45129C44.4702 7.79859 44.4615 7.46358 43.7266 7.46358C43.2624 7.46358 43.1806 7.3415 43.3294 6.8705C43.462 6.45146 43.3477 6.15847 42.9403 5.87201C42.5518 5.59889 42.3319 5.0748 42.2657 4.26482L42.1679 3.06305L41.9352 4.52005C41.7901 5.42827 41.4426 6.2584 41.0129 6.72372C40.6337 7.13453 40.3928 7.5831 40.4779 7.72108C40.5628 7.85906 40.4239 8.05212 40.1692 8.15035C39.9147 8.24829 39.7869 8.40984 39.8856 8.50892C40.2054 8.82973 39.4544 9.45092 38.7465 9.45092C38.3591 9.45092 38.134 9.57527 38.2322 9.73482C38.3283 9.89097 38.725 10.0187 39.1137 10.0187C40.068 10.0187 39.6803 10.5817 38.7103 10.6044C37.9732 10.622 37.9692 10.6305 38.5856 10.8792C39.481 11.2407 39.3761 11.6429 38.326 11.8746C37.5855 12.0379 37.512 12.1179 37.9019 12.3371C38.6404 12.7522 38.4685 12.9915 37.1719 13.3515C36.3997 13.5661 35.5662 13.5999 34.8393 13.4463C34.2173 13.3146 33.8734 13.1922 34.0753 13.1743C34.2772 13.1564 34.7678 12.7902 35.1656 12.3609L35.8891 11.5802L34.7986 11.4383C34.105 11.348 33.837 11.2128 34.0618 11.0666C34.7253 10.6354 34.4533 10.0187 33.5995 10.0187C33.0586 10.0187 32.6393 9.797 32.3546 9.3612C31.9672 8.76756 31.9709 8.67245 32.3927 8.384C32.8047 8.10265 32.7849 8.0629 32.224 8.04814C31.4029 8.02656 31.4029 7.56124 32.224 7.29721C32.7937 7.11409 32.745 7.06015 31.7577 6.78022C30.8702 6.52868 30.7325 6.40461 31.0509 6.14456C31.2683 5.96683 31.7009 5.76469 32.0119 5.6957C32.4527 5.59804 32.36 5.50946 31.5929 5.29369C30.7155 5.04698 30.5855 4.88288 30.3992 3.78786C30.2844 3.11188 30.1385 2.50688 30.0751 2.44329C29.8843 2.25137 28.1799 4.08767 28.2223 4.43942C28.3284 5.31612 28.1398 5.74028 27.5588 5.93305L26.9226 6.14427L27.6294 6.34982L28.3363 6.55537L27.6294 6.60164C26.9232 6.64792 26.9232 6.6482 27.5588 6.90457C28.4364 7.25888 28.3569 7.74323 27.4174 7.76736C26.9899 7.77843 26.3854 7.8971 26.0744 8.03139C25.6503 8.21451 25.8488 8.28038 26.8686 8.29542C27.6987 8.30763 28.1601 8.42574 28.0536 8.5992C27.9574 8.75535 27.5525 8.88311 27.1542 8.88311C26.5417 8.88311 26.4838 8.94926 26.7812 9.30896C27.079 9.66896 27.0187 9.73482 26.3916 9.73482C25.5414 9.73482 25.4198 10.1417 26.1451 10.5596C26.5658 10.8023 26.4948 10.875 25.6698 11.0453C24.7735 11.2307 24.7481 11.2636 25.3347 11.4817C26.1841 11.7971 25.8293 12.29 24.7523 12.29C24.0251 12.29 23.9114 12.1991 24.0367 11.7185C24.1339 11.3457 24.005 11.0499 23.666 10.8679C23.1712 10.6019 22.897 9.70813 22.2727 6.32796L22.0366 5.05039L22.0058 6.65019C21.9885 7.5303 21.8141 8.61624 21.6179 9.06339C20.9831 10.511 19.7159 12.29 19.3198 12.29C19.1074 12.29 18.7828 12.4728 18.5982 12.696C18.3302 13.0202 18.3765 13.1633 18.8278 13.4057C19.1385 13.5729 19.6633 13.7095 19.9935 13.7095C20.324 13.7095 20.5157 13.8372 20.4196 13.9934C20.3235 14.1495 19.8072 14.2773 19.272 14.2773C18.3138 14.2773 17.962 14.6569 18.6525 14.9456C18.9016 15.0498 18.8394 15.2278 18.4418 15.5483C17.9951 15.9086 17.9567 16.052 18.2567 16.2382C18.5332 16.41 18.4376 16.5233 17.9018 16.6584C17.0499 16.873 16.9606 17.3213 17.6629 17.8568C18.1212 18.206 18.1108 18.2347 17.5215 18.2429C16.7333 18.2542 16.6852 18.7011 17.4509 18.9021C18.4006 19.1514 18.0831 19.6105 16.8147 19.8214C14.4928 20.2078 14.0054 20.8926 15.9846 20.9885C17.5925 21.0663 17.653 21.1092 16.744 21.5271L15.8958 21.9172L16.9394 21.93C18.6542 21.951 18.426 22.4401 16.6021 22.6525C14.7719 22.8657 14.4473 23.172 15.6837 23.519C16.2648 23.6819 16.3363 23.7668 15.9665 23.8543C15.4256 23.9826 15.28 24.4979 15.7847 24.4979C15.9569 24.4979 16.0275 24.6813 15.9419 24.9053C15.8562 25.1296 15.9289 25.3607 16.103 25.4189C16.748 25.6349 15.9716 26.2013 15.0309 26.2013C14.4957 26.2013 14.058 26.3291 14.058 26.4852C14.058 26.6414 14.3761 26.7691 14.7648 26.7691C15.6798 26.7691 15.6798 27.2736 14.7648 27.5042C14.0673 27.6802 13.7696 28.1887 14.3642 28.1887C15.1454 28.1887 14.3071 28.9342 13.1888 29.2337C12.1379 29.5153 12.0361 29.5994 12.5541 29.7584C12.8931 29.8628 13.2392 30.1272 13.3226 30.346C13.4063 30.5647 13.6653 30.7438 13.8977 30.7438C14.1304 30.7438 14.4569 30.9993 14.6235 31.3116C14.9054 31.8405 14.8383 31.8794 13.6438 31.8794C12.1433 31.8794 11.9753 32.2405 13.2805 32.661C14.1906 32.9543 14.192 32.9574 13.4218 32.9861C12.4122 33.0236 12.2762 34.1481 13.2805 34.1549C13.6302 34.1575 14.1038 34.2784 14.3328 34.4238C14.7821 34.7088 14.7453 34.7344 13.3511 35.1003C11.3793 35.6184 10.5235 36.1105 10.5175 36.7299C10.5141 37.0834 10.3233 37.4241 10.0934 37.4874C8.84824 37.8303 8.80979 37.8695 9.3928 38.2051C9.70381 38.384 10.5308 38.5989 11.2306 38.6826C12.7102 38.8598 12.9641 39.5221 11.6841 39.8659C10.7658 40.1124 9.25143 41.4439 9.25143 42.0046C9.25143 42.2059 8.91921 42.5892 8.51348 42.8563C7.77581 43.3418 7.77553 43.3421 8.39586 43.5723C9.3829 43.9389 8.92458 44.4496 6.91855 45.2181C5.89305 45.6113 4.9603 46.0275 4.84579 46.1437C4.6408 46.3509 16.9623 46.1655 18.8315 45.933C19.3576 45.8677 20.7255 45.5347 21.8709 45.1934L23.9538 44.5725V43.2955V42.0185L25.987 42.2082C28.3855 42.4322 28.3615 42.2621 25.8971 41.5665C24.1922 41.0856 24.0904 41.0084 24.0045 40.1311C23.914 39.2073 23.9174 39.2047 24.994 39.3626C26.6353 39.6033 29.2213 39.8356 28.9018 39.7135C28.7463 39.6539 27.5692 39.3186 26.2864 38.968C24.0231 38.3493 23.9538 38.305 23.9538 37.4772V36.624L26.2864 36.7901L28.619 36.9559L26.3571 36.3339L24.0952 35.7121L24.0143 33.1294L23.9338 30.5468L26.4332 26.4577C27.8079 24.2086 29.5617 21.2543 30.3307 19.8924C31.0998 18.5305 31.8222 17.4125 31.9358 17.4082C32.0492 17.4039 32.5146 18.1989 32.9695 19.1747C33.4245 20.1507 34.703 22.8016 35.8105 25.0657L37.8244 29.1823L37.7981 38.5512L37.7721 47.9201L41.3242 47.8312L44.8765 47.7423V48.8958C44.8765 49.7319 44.9933 50.0493 45.3006 50.0493C45.5933 50.0493 45.7247 49.7541 45.7247 49.096V48.1429L47.4627 47.9604C48.4184 47.8601 50.136 47.7781 51.2797 47.7781C53.3089 47.7781 53.3587 47.7951 53.3587 48.4879C53.3587 48.9262 53.5193 49.1976 53.7783 49.1976C54.1371 49.1976 54.2086 48.0776 54.273 41.4612L54.3483 33.7248L57.2463 33.6439L60.1444 33.563V39.1091V44.6551H57.8825H55.6206V45.7661V46.877L58.5042 46.8307L61.3882 46.7844L61.4023 47.6112C61.4198 48.6097 62.0422 48.9302 62.1725 48.0075C62.2559 47.4164 62.4586 47.3338 64.2441 47.162C65.3327 47.0575 67.3938 46.9298 68.8242 46.8781C71.1104 46.7958 71.441 46.8446 71.5546 47.2813C71.6256 47.5544 71.8229 47.7781 71.9929 47.7781C72.1925 47.7781 72.3022 46.9221 72.3022 45.3649C72.3022 43.1607 72.2544 42.9517 71.7503 42.9517C71.2722 42.9517 71.1848 43.1899 71.0977 44.7261L70.9973 46.5005L70.943 44.4621C70.8916 42.5449 70.9264 42.418 71.5246 42.3328C72.1498 42.2437 72.1622 42.1644 72.2386 37.7704C72.3124 33.5337 72.3457 33.2989 72.8747 33.2989C73.4145 33.2989 73.4331 33.5161 73.4331 39.8376C73.4331 44.8209 73.5171 46.4026 73.7865 46.486C73.9811 46.5462 75.1833 46.6726 76.4587 46.7665L78.7772 46.9375L78.3689 46.151C77.6779 44.8209 77.9725 43.1558 79.1162 41.9297C79.6231 41.3863 79.6319 41.3 79.218 40.955C78.1888 40.0973 77.5611 38.3133 77.4899 36.0423C77.4511 34.8184 77.2716 33.6379 77.0903 33.4187C76.9091 33.1996 76.8158 32.6457 76.8828 32.1877C76.9792 31.5274 76.869 31.2929 76.3499 31.0555C75.6306 30.7265 75.5096 30.1919 76.0343 29.665C76.2981 29.4001 76.2981 29.2485 76.0343 28.9836C75.8477 28.7962 75.695 28.7357 75.695 28.849C75.695 28.9623 75.3196 28.8601 74.861 28.6219C74.4021 28.3837 73.3378 28.1887 72.4958 28.1887C71.3751 28.1887 70.7652 28.0311 70.2198 27.6001C68.7923 26.4727 69.4389 25.9285 72.2148 25.9214C73.6966 25.9174 74.399 25.4947 73.6814 25.0384C73.4193 24.8715 73.6621 24.7818 74.4227 24.7639C75.5525 24.7375 75.5514 24.7364 73.1504 23.553C71.0748 22.5301 70.8554 22.3561 71.5413 22.2772C71.9782 22.2269 72.4141 21.9714 72.5103 21.7094C72.7967 20.9289 73.1119 20.8696 74.9379 21.252C76.468 21.5728 77.1752 21.5827 76.8025 21.2787C76.442 20.9846 72.7269 18.2747 71.7517 17.5947C71.0813 17.1271 70.6057 16.5676 70.6057 16.2462C70.6057 15.7846 70.8085 15.6968 71.8738 15.6968H73.1422L72.6115 14.8207C72.3194 14.3386 71.4308 13.5048 70.6363 12.9676C69.7157 12.345 69.192 11.788 69.192 11.4306C69.192 11.1225 69.3037 10.8704 69.4406 10.8704C69.8754 10.8704 70.3626 9.28256 70.1672 8.50097C69.9996 7.82982 70.0595 7.74749 70.7166 7.74749C71.5526 7.74749 71.7059 7.30488 70.9592 7.04709C70.6872 6.9534 69.7148 6.19907 68.799 5.37148C67.2838 4.00249 67.0896 3.6919 66.6488 1.93311L66.1642 0L65.9748 1.67362ZM53.1466 10.7725C53.4746 10.8628 53.6414 11.1896 53.6414 11.7412C53.6414 12.4876 53.5461 12.5759 52.7225 12.5918C51.8884 12.6082 51.8624 12.6335 52.4398 12.8666C53.0457 13.111 53.0759 13.2728 53.0759 16.2556V19.3876H51.6622H50.2485L50.2511 16.3356C50.2522 14.6572 50.3339 12.6105 50.4323 11.7877L50.6113 10.2918L51.6317 10.4642C52.1927 10.5587 52.8743 10.6975 53.1466 10.7725ZM43.1801 15.2304L48.6935 15.5549L48.836 17.1587C49.0362 19.4151 49.5909 19.9554 51.7061 19.9554H53.3587V17.9984C53.3587 16.6922 53.4763 15.9978 53.7121 15.91C53.9066 15.8379 55.4015 15.8808 57.0343 16.0057C58.6671 16.1306 60.1348 16.2399 60.2962 16.2487C60.4574 16.2575 61.0475 16.8716 61.6076 17.6132C64.4434 21.3678 68.6133 26.8208 69.6161 28.085C70.4474 29.1332 71.3652 29.8373 73.0797 30.7429C74.3628 31.4203 75.4123 32.081 75.4123 32.211C75.4123 32.341 74.7442 32.4495 73.9279 32.4523C73.1117 32.4552 66.2337 32.4529 58.6439 32.4472L44.8443 32.437L42.3864 31.179L39.9286 29.9208L48.9762 29.8702C53.9524 29.8427 59.4234 29.73 61.134 29.6204C63.1431 29.4915 59.869 29.4038 51.8842 29.3725C40.0315 29.3263 39.5124 29.3021 39.235 28.7817C38.9642 28.2733 39.0928 28.2284 41.275 28.0697C45.5039 27.7622 45.6164 27.7123 42.1905 27.662C40.3244 27.6345 38.6577 27.5183 38.4866 27.4037C38.1323 27.166 37.5253 26.0858 37.5253 25.6928C37.5253 25.5489 39.2749 25.3064 41.413 25.154L45.3006 24.8769L41.0231 24.8295L36.7458 24.7818L36.3907 23.921C36.1953 23.4474 36.0845 23.0128 36.1441 22.9549C36.2041 22.8969 37.3981 22.7272 38.7976 22.5776L41.3423 22.3053L38.8683 22.2303C37.5078 22.1892 36.2671 22.1239 36.1116 22.0847C35.9561 22.0455 35.722 21.9978 35.5917 21.9782C35.286 21.9325 34.6298 20.4971 34.8249 20.3012C34.9063 20.2194 36.5968 20.0778 38.5816 19.9866L42.1905 19.8205L38.3031 19.661C36.165 19.5733 34.3026 19.3802 34.1644 19.2317C34.0264 19.0832 33.8268 18.6741 33.7211 18.3229C33.5316 17.6938 33.5681 17.6839 36.1634 17.6558C39.2613 17.6226 38.5672 17.1893 35.344 17.1447C33.1669 17.1144 33.1233 17.0865 32.4383 15.2772L32.1575 14.5354L34.9122 14.7205C36.4271 14.8224 40.1477 15.0518 43.1801 15.2304ZM31.0223 15.8626C31.0223 16.249 22.8817 30.1206 22.2144 30.8716C22.0759 31.0274 21.9747 30.8301 21.9747 30.4037C21.9747 29.8185 26.6758 21.6046 30.1888 16.0517C30.6604 15.3059 31.0223 15.2238 31.0223 15.8626ZM62.6891 16.8324C62.6891 16.9886 62.5618 17.1164 62.4063 17.1164C62.2508 17.1164 62.1236 16.9886 62.1236 16.8324C62.1236 16.6763 62.2508 16.5485 62.4063 16.5485C62.5618 16.5485 62.6891 16.6763 62.6891 16.8324ZM28.1949 31.6057V35.4958L29.2552 35.6718C31.4473 36.0358 31.305 36.299 31.305 31.8794V27.9047L30.3861 27.8812C29.8809 27.8681 29.1811 27.8255 28.8311 27.7866C28.1989 27.7162 28.1949 27.7398 28.1949 31.6057ZM32.1533 31.9881C32.1533 35.983 32.1671 36.0755 32.7894 36.243C33.1395 36.337 33.7756 36.4159 34.2031 36.4179L34.9807 36.4219V32.1633V27.9047H33.567H32.1533V31.9881ZM43.1883 32.7351C44.5695 33.4352 44.8765 33.7194 44.8765 34.2966C44.8765 34.993 44.8446 35.0024 42.4732 35.0024H40.07V33.4409C40.07 31.9598 40.1067 31.8794 40.785 31.8794C41.178 31.8794 42.2595 32.2644 43.1883 32.7351ZM39.4499 33.8179C39.526 34.8525 39.4635 35.0024 38.9551 35.0024C38.4694 35.0024 38.3735 34.8232 38.3735 33.9142C38.3735 31.9955 39.3102 31.9121 39.4499 33.8179ZM53.3587 37.6995C53.3587 41.4288 53.312 41.8167 52.8639 41.8209C51.9458 41.83 47.1025 42.3822 46.4107 42.5565L45.7247 42.7294V38.3454C45.7247 35.9341 45.8095 33.8761 45.9133 33.7722C46.0168 33.668 47.7344 33.5828 49.7303 33.5828H53.3587V37.6995ZM61.2966 33.9448C61.285 34.0581 61.2754 36.7773 61.2754 39.9875C61.2754 43.8063 61.1775 45.7635 60.9926 45.6488C60.5877 45.3976 60.609 33.5016 61.0138 33.6374C61.1809 33.6933 61.3082 33.8315 61.2966 33.9448ZM68.6729 36.7058C68.6167 38.4708 68.7074 40.0241 68.8954 40.5138C69.0702 40.9686 69.1115 41.4428 68.9876 41.5671C68.8635 41.6917 67.3002 41.8306 65.5136 41.8757L62.2649 41.958L62.1866 37.7614L62.1083 33.5647L65.4381 33.6447L68.7679 33.7248L68.6729 36.7058ZM46.5729 35.2928C46.5729 35.5585 51.0377 35.3834 51.356 35.1054C51.4208 35.0486 50.371 35.0024 49.0234 35.0024C47.5408 35.0024 46.5729 35.1171 46.5729 35.2928ZM44.8765 37.1092V38.6483L42.7268 38.7417C41.5444 38.7931 40.4782 38.7712 40.3578 38.6931C40.014 38.4703 39.8802 36.1618 40.2045 36.048C40.3637 35.9923 41.2575 35.9151 42.1905 35.8765C43.1235 35.8379 43.9401 35.7533 44.0048 35.6883C44.0696 35.6233 44.2921 35.5702 44.4996 35.5702C44.7674 35.5702 44.8765 36.0159 44.8765 37.1092ZM39.4493 37.4865C39.3871 38.4575 39.2444 38.8351 38.939 38.8351C38.6645 38.8351 38.4829 38.4998 38.4244 37.8854C38.3096 36.6837 38.5166 36.138 39.0869 36.138C39.4457 36.138 39.5183 36.4083 39.4493 37.4865ZM48.4107 38.3354C47.6332 38.3948 46.876 38.5634 46.7285 38.7102C46.381 39.0554 46.8871 39.0358 50.3899 38.5682C52.8056 38.246 52.9702 38.1935 51.5209 38.2094C50.5878 38.2193 49.1883 38.2761 48.4107 38.3354ZM44.8765 40.8224V42.3839L43.9576 42.3865C43.4524 42.3876 42.3706 42.4694 41.5543 42.5679L40.07 42.747V41.3053V39.8637L41.413 39.6862C42.1518 39.5886 42.9468 39.4679 43.1801 39.4177C44.7583 39.0792 44.8765 39.1772 44.8765 40.8224ZM39.4493 41.3414C39.5257 42.5185 39.47 42.6678 38.9545 42.6678C38.4578 42.6678 38.3735 42.4895 38.3735 41.4376C38.3735 40.7608 38.4609 40.1195 38.568 40.0122C39.0142 39.5639 39.3685 40.0982 39.4493 41.3414ZM64.951 43.9454C64.951 45.144 64.8526 45.5069 64.5269 45.5069C63.9354 45.5069 63.9942 46.2884 64.5975 46.4469C64.919 46.5312 64.8339 46.5883 64.3547 46.6095C63.6232 46.6422 63.6181 46.628 63.7349 44.8681C63.8802 42.6766 63.9724 42.3839 64.5181 42.3839C64.8543 42.3839 64.951 42.7325 64.951 43.9454ZM66.743 43.5238C66.7178 44.068 66.6858 44.7443 66.6723 45.0268C66.6587 45.3093 66.5202 45.4614 66.3647 45.3649C66.2092 45.2684 66.0819 45.4418 66.0819 45.7505C66.0819 46.0588 66.2411 46.3756 66.4353 46.4545C66.6299 46.5332 66.5026 46.6078 66.1526 46.6201C65.5526 46.6411 65.5164 46.5318 65.5164 44.7026C65.5164 42.6536 65.6431 42.3118 66.3508 42.4492C66.6576 42.5088 66.7749 42.8308 66.743 43.5238ZM68.6266 43.6703C68.6266 44.5521 68.4931 45.0083 68.2025 45.1202C67.9692 45.2102 67.7783 45.5256 67.7783 45.8211C67.7783 46.1167 67.6511 46.3586 67.4956 46.3586C67.1837 46.3586 67.0969 42.8788 67.4015 42.5733C67.5049 42.4691 67.823 42.3839 68.1083 42.3839C68.5347 42.3839 68.6266 42.6122 68.6266 43.6703ZM70.323 42.6678C70.323 42.824 70.1321 42.9517 69.8989 42.9517C69.5689 42.9517 69.4748 43.3302 69.4748 44.6551C69.4748 45.7201 69.3563 46.3586 69.159 46.3586C68.9695 46.3586 68.9116 46.1031 69.0139 45.7198C69.1075 45.3683 69.1861 44.4743 69.1881 43.7325C69.1915 42.5744 69.2721 42.3839 69.7575 42.3839C70.0685 42.3839 70.323 42.5117 70.323 42.6678ZM63.2545 44.6551C63.2545 46.4531 63.2008 46.6425 62.6891 46.6425C62.1773 46.6425 62.1236 46.4531 62.1236 44.6551C62.1236 42.8572 62.1773 42.6678 62.6891 42.6678C63.2008 42.6678 63.2545 42.8572 63.2545 44.6551ZM50.2485 44.8138C50.2485 45.9977 50.1496 46.3586 49.8244 46.3586C49.5912 46.3586 49.4003 46.5502 49.4003 46.7844C49.4003 47.0187 49.2731 47.2103 49.1176 47.2103C48.9584 47.2103 48.8349 46.4105 48.8349 45.3791C48.8349 43.9389 48.9392 43.4891 49.3237 43.2731C50.0755 42.8506 50.2485 43.1385 50.2485 44.8138ZM51.945 44.5132C51.945 45.7118 51.8466 46.0747 51.5209 46.0747C51.2876 46.0747 51.0968 46.2663 51.0968 46.5005C51.0968 46.7347 50.9537 46.9264 50.7787 46.9264C50.5731 46.9264 50.5231 46.6124 50.6373 46.0392C50.7346 45.5511 50.814 44.6568 50.814 44.0518C50.814 43.1411 50.9113 42.9517 51.3795 42.9517C51.8766 42.9517 51.945 43.1411 51.945 44.5132ZM53.3587 44.5132C53.3587 45.372 53.2314 46.0747 53.0759 46.0747C52.9204 46.0747 52.7932 46.2663 52.7932 46.5005C52.7932 46.7347 52.6668 46.9264 52.5122 46.9264C52.3578 46.9264 52.2846 46.6391 52.3499 46.2876C52.4152 45.9361 52.4779 45.0421 52.4895 44.3003C52.5051 43.3001 52.6202 42.9517 52.9346 42.9517C53.2603 42.9517 53.3587 43.3145 53.3587 44.5132ZM44.8765 44.939V46.6425H42.4732H40.07V45.2403V43.8383L41.2716 43.6799C41.9326 43.5928 42.9185 43.4778 43.4628 43.4241C44.0071 43.3705 44.548 43.306 44.6645 43.281C44.7809 43.2561 44.8765 44.0022 44.8765 44.939ZM46.809 44.2344C46.9699 45.6159 46.5794 47.4942 46.1316 47.4942C45.8172 47.4942 45.7247 47.0527 45.7247 45.5543C45.7247 44.4871 45.8121 43.5263 45.9193 43.419C46.2939 43.0428 46.7152 43.429 46.809 44.2344ZM48.5521 44.7971C48.5521 45.9957 48.4537 46.3586 48.128 46.3586C47.8947 46.3586 47.7039 46.5425 47.7039 46.7677C47.7039 46.9928 47.5767 47.2557 47.4212 47.3522C47.2422 47.4632 47.1384 46.7401 47.1384 45.3817C47.1384 43.2819 47.1537 43.2356 47.8453 43.2356C48.5137 43.2356 48.5521 43.3208 48.5521 44.7971ZM39.3631 44.9626C39.3631 45.6358 39.2333 45.9327 38.939 45.9327C38.4863 45.9327 38.2214 44.895 38.4926 44.185C38.7795 43.4346 39.3631 43.9562 39.3631 44.9626Z" fill="#29BB7F"/>
<path d="M6.78088 63.2108C5.63997 63.2108 4.60669 62.9632 3.68105 62.4681C2.76617 61.9622 2.04503 61.268 1.51763 60.3854C1.00099 59.5028 0.742668 58.5072 0.742668 57.3986C0.742668 56.29 1.00637 55.2944 1.53377 54.4118C2.06117 53.5292 2.78231 52.8403 3.69719 52.3452C4.62284 51.8393 5.65611 51.5864 6.79702 51.5864C7.72267 51.5864 8.56759 51.7479 9.33178 52.0708C10.096 52.3937 10.7418 52.8619 11.2692 53.4754L9.913 54.7508C9.09499 53.8682 8.08862 53.4269 6.89389 53.4269C6.11894 53.4269 5.4247 53.5991 4.81119 53.9436C4.19769 54.2772 3.71872 54.7454 3.37429 55.3482C3.02987 55.9509 2.85766 56.6344 2.85766 57.3986C2.85766 58.1628 3.02987 58.8462 3.37429 59.449C3.71872 60.0517 4.19769 60.5253 4.81119 60.8697C5.4247 61.2034 6.11894 61.3702 6.89389 61.3702C8.08862 61.3702 9.09499 60.9236 9.913 60.0302L11.2692 61.3218C10.7418 61.9353 10.0906 62.4035 9.31563 62.7264C8.55144 63.0493 7.70652 63.2108 6.78088 63.2108ZM19.24 58.561C20.3056 58.8839 20.8383 59.5728 20.8383 60.6276C20.8383 61.4025 20.5477 61.9999 19.9665 62.4197C19.3853 62.8394 18.5242 63.0493 17.3833 63.0493H12.9919V54.4279H17.2057C18.2605 54.4279 19.0839 54.6217 19.6759 55.0091C20.2679 55.3966 20.5639 55.9455 20.5639 56.6559C20.5639 57.0972 20.4455 57.4793 20.2087 57.8022C19.9827 58.1251 19.6598 58.378 19.24 58.561ZM14.9131 58.0282H17.0281C18.0722 58.0282 18.5942 57.6677 18.5942 56.9465C18.5942 56.2469 18.0722 55.8971 17.0281 55.8971H14.9131V58.0282ZM17.2219 61.5801C18.3305 61.5801 18.8848 61.2196 18.8848 60.4984C18.8848 60.1217 18.7556 59.8419 18.4973 59.6589C18.239 59.4651 17.8354 59.3683 17.2864 59.3683H14.9131V61.5801H17.2219ZM26.8304 63.1623C25.9586 63.1623 25.1728 62.974 24.4732 62.5973C23.7736 62.2205 23.2247 61.6985 22.8264 61.0312C22.439 60.3531 22.2452 59.5889 22.2452 58.7386C22.2452 57.8883 22.439 57.1295 22.8264 56.4622C23.2247 55.7949 23.7736 55.2728 24.4732 54.8961C25.1728 54.5194 25.9586 54.331 26.8304 54.331C27.713 54.331 28.5041 54.5194 29.2037 54.8961C29.9033 55.2728 30.4468 55.7949 30.8343 56.4622C31.2326 57.1295 31.4317 57.8883 31.4317 58.7386C31.4317 59.5889 31.2326 60.3531 30.8343 61.0312C30.4468 61.6985 29.9033 62.2205 29.2037 62.5973C28.5041 62.974 27.713 63.1623 26.8304 63.1623ZM26.8304 61.4348C27.573 61.4348 28.1866 61.1873 28.6709 60.6922C29.1553 60.197 29.3974 59.5459 29.3974 58.7386C29.3974 57.9314 29.1553 57.2802 28.6709 56.7851C28.1866 56.29 27.573 56.0424 26.8304 56.0424C26.0877 56.0424 25.4742 56.29 24.9899 56.7851C24.5163 57.2802 24.2795 57.9314 24.2795 58.7386C24.2795 59.5459 24.5163 60.197 24.9899 60.6922C25.4742 61.1873 26.0877 61.4348 26.8304 61.4348ZM41.5947 54.4279V63.0493H39.6734V61.9515C39.3505 62.3389 38.9469 62.6403 38.4626 62.8556C37.989 63.0601 37.4723 63.1623 36.9126 63.1623C35.761 63.1623 34.8515 62.8448 34.1841 62.2098C33.5168 61.564 33.1832 60.6114 33.1832 59.3521V54.4279H35.2013V59.0777C35.2013 59.8526 35.3735 60.4338 35.7179 60.8213C36.0731 61.198 36.579 61.3864 37.2355 61.3864C37.9459 61.3864 38.511 61.1657 38.9308 60.7244C39.3613 60.2724 39.5766 59.6266 39.5766 58.7871V54.4279H41.5947ZM37.3647 53.4108C36.4929 53.4108 35.8256 53.2117 35.3627 52.8134C34.9107 52.4044 34.6793 51.8124 34.6685 51.0375H36.0085C36.0193 51.425 36.1377 51.7317 36.3637 51.9577C36.6005 52.1838 36.9288 52.2968 37.3486 52.2968C37.7576 52.2968 38.0805 52.1838 38.3173 51.9577C38.5648 51.7317 38.694 51.425 38.7047 51.0375H40.0771C40.0663 51.8124 39.8295 52.4044 39.3667 52.8134C38.9039 53.2117 38.2365 53.4108 37.3647 53.4108ZM60.6485 61.2734V65.4549H58.7111V63.0493H49.7991L49.7829 65.4549H47.8455L47.8617 61.2734H49.234V56.6398C49.234 55.5634 49.4385 54.6486 49.8475 53.8951C50.2673 53.1417 50.8539 52.5712 51.6073 52.1838C52.3608 51.7855 53.238 51.5864 54.2389 51.5864C55.2507 51.5864 56.1333 51.7801 56.8867 52.1676C57.6402 52.5551 58.2214 53.1309 58.6304 53.8951C59.0501 54.6486 59.26 55.5634 59.26 56.6398V61.2734H60.6485ZM57.1612 61.2734V56.446C57.1612 55.4558 56.9029 54.7078 56.3862 54.2019C55.8696 53.6852 55.1538 53.4269 54.2389 53.4269C53.3241 53.4269 52.6083 53.6852 52.0917 54.2019C51.5858 54.7078 51.3329 55.4558 51.3329 56.446V61.2734H57.1612ZM66.1837 63.1623C65.3119 63.1623 64.5261 62.974 63.8265 62.5973C63.1269 62.2205 62.578 61.6985 62.1797 61.0312C61.7923 60.3531 61.5985 59.5889 61.5985 58.7386C61.5985 57.8883 61.7923 57.1295 62.1797 56.4622C62.578 55.7949 63.1269 55.2728 63.8265 54.8961C64.5261 54.5194 65.3119 54.331 66.1837 54.331C67.0663 54.331 67.8574 54.5194 68.557 54.8961C69.2566 55.2728 69.8002 55.7949 70.1876 56.4622C70.5859 57.1295 70.785 57.8883 70.785 58.7386C70.785 59.5889 70.5859 60.3531 70.1876 61.0312C69.8002 61.6985 69.2566 62.2205 68.557 62.5973C67.8574 62.974 67.0663 63.1623 66.1837 63.1623ZM66.1837 61.4348C66.9264 61.4348 67.5399 61.1873 68.0242 60.6922C68.5086 60.197 68.7507 59.5459 68.7507 58.7386C68.7507 57.9314 68.5086 57.2802 68.0242 56.7851C67.5399 56.29 66.9264 56.0424 66.1837 56.0424C65.441 56.0424 64.8275 56.29 64.3432 56.7851C63.8696 57.2802 63.6328 57.9314 63.6328 58.7386C63.6328 59.5459 63.8696 60.197 64.3432 60.6922C64.8275 61.1873 65.441 61.4348 66.1837 61.4348ZM81.2547 63.0493V57.334L78.3487 62.1452H77.4768L74.6192 57.3179V63.0493H72.7786V54.4279H74.8936L77.9612 59.8203L81.174 54.4279H83.063L83.0791 63.0493H81.2547Z" fill="#003153"/>
</svg>
