<svg width="54" height="54" viewBox="0 0 54 54" fill="none" xmlns="http://www.w3.org/2000/svg">
<path fill-rule="evenodd" clip-rule="evenodd" d="M29.7204 0.11888C18.8793 1.48975 10.7506 10.6946 10.7506 21.6002C10.7506 26.569 12.5312 31.5551 15.6542 35.3317L16.3232 36.1408L14.8583 37.6036L13.3933 39.0665L12.4541 38.147C11.5631 37.2746 11.4912 37.2274 11.0532 37.2274H10.5915L5.67233 42.1637C0.311729 47.543 0.307085 47.5487 0.0600159 48.9915C-0.429268 51.8493 2.14971 54.4295 5.00616 53.94C6.45121 53.6923 6.4529 53.6909 11.8307 48.3249L16.7647 43.4017V42.9407C16.7647 42.5036 16.7169 42.4309 15.8456 41.54L14.9265 40.6004L16.3872 39.1362L17.8479 37.672L18.7252 38.3895C25.2243 43.7044 34.3369 44.7391 41.936 41.0247C46.1829 38.949 49.8252 35.2847 51.8505 31.0504C55.1377 24.1777 54.6263 16.0675 50.5104 9.8004C49.6181 8.44178 48.9423 7.6073 47.7639 6.40907C44.4989 3.08933 40.4639 1.00784 35.7605 0.21729C34.3206 -0.0247219 31.2513 -0.0747714 29.7204 0.11888ZM35.5509 2.3256C39.4066 2.96336 42.9707 4.73949 45.8057 7.43572C53.6659 14.9113 53.9653 27.2764 46.4757 35.1019C38.7568 43.1671 26.0011 43.1431 18.2418 35.0488C12.0097 28.5476 11.0856 18.4739 16.0297 10.9356C19.2518 6.02303 24.3272 2.90159 30.2739 2.17545C31.3713 2.04146 34.3444 2.12603 35.5509 2.3256ZM30.2981 4.70929C27.3196 5.08519 24.0986 6.42998 21.8834 8.22236C18.6474 10.8406 16.5725 14.2291 15.6959 18.3269C15.4938 19.2717 15.4586 19.7555 15.4586 21.6002C15.4586 23.4433 15.4939 23.9294 15.6955 24.8734C16.1928 27.2016 17.0496 29.2424 18.357 31.2132C19.2158 32.508 21.4183 34.7225 22.7277 35.6081C24.6707 36.9222 27.1062 37.9265 29.3768 38.3504C30.8536 38.626 33.9157 38.626 35.3926 38.3504C41.025 37.2991 45.7374 33.5397 47.9977 28.2942C48.7392 26.5734 48.7809 26.1684 48.269 25.6563C48.0827 25.4699 47.8981 25.4014 47.5824 25.4014C47.0331 25.4014 46.7204 25.6984 46.4576 26.4695C46.0778 27.584 45.0263 29.5411 44.2621 30.556C42.126 33.393 39.1584 35.3162 35.6401 36.1433C34.5609 36.397 34.2394 36.4251 32.3847 36.4271C30.5187 36.4292 30.216 36.4032 29.1419 36.1485C26.1585 35.441 23.5526 33.9432 21.5139 31.7641C19.0446 29.125 17.6966 25.8929 17.5335 22.2202C17.0897 12.2319 26.4591 4.68162 36.1715 7.20078C40.8407 8.41189 44.6707 11.9183 46.3638 16.5318C46.7176 17.4962 47.0122 17.7989 47.5965 17.7989C47.9248 17.7989 48.0906 17.729 48.3293 17.4903C48.7337 17.0858 48.7252 16.7791 48.278 15.6064C46.1807 10.1081 41.5045 6.132 35.7092 4.91952C34.4925 4.66494 31.5538 4.5508 30.2981 4.70929ZM36.7876 15.2678C36.0229 15.4606 35.6951 15.7254 33.4176 17.9888L31.126 20.2661L30.117 19.2895C28.8426 18.0561 28.2571 17.7601 27.0921 17.7601C26.3945 17.7601 26.1886 17.8067 25.5929 18.1002C24.2543 18.7595 23.5669 19.9277 23.6491 21.4037C23.7249 22.7622 23.8742 22.971 26.9708 26.0463C30.0165 29.0712 30.165 29.1745 31.3128 29.0704C31.6514 29.0397 32.0903 28.933 32.2884 28.8335C32.4865 28.7338 34.4129 26.8875 36.5694 24.7303C41.1131 20.1853 41.0892 20.2172 41.0908 18.6964C41.0916 17.8706 41.0534 17.6681 40.7994 17.1504C40.4589 16.4569 39.7442 15.7562 39.0753 15.4601C38.5315 15.2195 37.3672 15.1216 36.7876 15.2678ZM38.2432 17.423C38.775 17.6453 39.0561 18.1511 39.0012 18.7871L38.957 19.3001L35.1173 23.1427C32.6904 25.5713 31.2018 26.9852 31.0715 26.9852C30.8551 26.9852 26.5987 22.8404 26.0403 22.0859C25.4543 21.2937 25.7219 20.3059 26.6151 19.9646C27.3804 19.6722 27.6776 19.8321 29.2712 21.3927C30.0258 22.1316 30.7438 22.7669 30.8668 22.8044C30.9897 22.8419 31.2272 22.8216 31.3945 22.7593C31.5618 22.697 32.8622 21.4861 34.2844 20.0685C35.7065 18.6507 36.9888 17.4444 37.134 17.3875C37.5127 17.2394 37.8281 17.2494 38.2432 17.423ZM9.9314 47.1892C7.08023 50.0491 5.48795 51.5704 5.20806 51.7017C3.45894 52.5223 1.51731 50.6564 2.25662 48.8653C2.36734 48.5972 3.79836 47.0911 6.76762 44.1176L11.1165 39.7624L12.6746 41.3185L14.2326 42.8747L9.9314 47.1892Z" fill="white"/>
</svg>
