<svg width="61" height="60" viewBox="0 0 61 60" fill="none" xmlns="http://www.w3.org/2000/svg">
<path fill-rule="evenodd" clip-rule="evenodd" d="M28.8689 0.116417C25.9391 0.492226 23.2506 1.83378 21.1647 3.96086C20.6017 4.53504 19.911 5.35182 19.6299 5.77583C18.5028 7.47623 17.6976 9.56674 17.4391 11.4636C17.3051 12.4474 17.2943 12.4711 17.0014 12.4176C16.8362 12.3874 16.1933 12.2692 15.5728 12.155C13.6869 11.8077 12.588 12.1355 11.9701 13.23C11.7229 13.6678 11.6932 13.8644 11.7121 14.936C11.7239 15.6021 11.8384 17.0948 11.9665 18.2531L12.1996 20.359L10.6252 21.947C9.00078 23.5853 8.10668 24.7087 7.21544 26.2315C6.93212 26.7155 6.64224 27.1572 6.57114 27.213C6.50004 27.2689 5.66344 27.4668 4.71208 27.6528C3.76071 27.8388 2.70604 28.0939 2.36833 28.2195C1.53781 28.5285 0.741526 29.2686 0.334736 30.1095L0 30.8016V35.7671C0 41.386 0.00703824 41.4366 0.936212 42.46C1.71699 43.3199 2.18247 43.5221 4.47349 43.9969C5.62169 44.2347 6.60251 44.4968 6.65309 44.5794C6.70367 44.6619 7.05261 45.2373 7.4285 45.8581C7.80439 46.4789 8.35767 47.2947 8.65793 47.671L9.20394 48.3553L8.97215 49.0857C8.8364 49.5136 8.71531 50.3243 8.67964 51.0435C8.60222 52.6018 8.84343 53.7984 9.51863 55.2055C9.91552 56.0328 10.2124 56.4371 11.0306 57.2644C12.1968 58.4436 12.9977 58.962 14.4263 59.462C17.7196 60.6143 21.1353 59.8992 23.9183 57.4746L24.9323 56.5911L25.5884 56.6768C27.931 56.9822 30.8912 56.903 33.4343 56.4669L34.5401 56.2773L35.6334 57.3222C36.5112 58.1611 36.9634 58.4858 37.9274 58.9694C39.3599 59.6878 40.3706 59.9239 42.0273 59.9268C43.6421 59.9294 44.7001 59.6801 46.2129 58.94C47.2812 58.4172 47.596 58.1887 48.4926 57.2842C49.3359 56.4336 49.6262 56.0401 50.0261 55.2055C50.7004 53.7984 50.9194 52.8573 50.9139 51.3905C50.9088 49.9926 50.6956 49.0448 50.0783 47.6737L49.6566 46.7371L50.2862 45.7408C52.0732 42.9126 52.9853 39.8836 53.1088 36.3678C53.1997 33.7786 52.8481 31.7124 51.9577 29.6036L51.7404 29.089L53.0109 29.1422C54.5489 29.2065 55.3873 29.0219 56.8391 28.2993C59.8638 26.794 61.5465 23.2105 60.8396 19.7804C60.4849 18.0599 59.1379 15.9113 58.2213 15.6043C57.3907 15.3259 56.4842 16.1115 56.6522 16.964C56.6912 17.1618 56.9308 17.5766 57.1848 17.8859C58.2249 19.1522 58.6772 20.7315 58.4259 22.2205C57.8483 25.6434 54.3236 27.6164 51.2364 26.2449C50.317 25.8364 49.8012 25.3939 48.8906 24.2326C47.3108 22.218 45.6226 20.6347 43.5718 19.2443C43.0634 18.8995 42.6473 18.5752 42.6473 18.5238C42.6473 18.4722 42.7833 18.0254 42.9493 17.5308C44.0366 14.2942 43.7408 10.4277 42.1681 7.31407C40.1465 3.3123 36.2814 0.607524 31.8711 0.108182C30.5791 -0.0381207 30.0626 -0.0366674 28.8689 0.116417ZM33.1635 2.87267C35.1445 3.39684 37.2314 4.72398 38.5703 6.3109C40.2509 8.3027 41.0965 10.6628 41.0965 13.3615C41.0965 15.4543 40.6008 17.2574 39.5255 19.0763C39.0038 19.9586 37.7783 21.2987 36.8189 22.0361L36.0506 22.6265H30.4899H24.929L24.2879 22.1881C22.3343 20.8525 20.7594 18.518 20.0897 15.9653C19.7449 14.6512 19.7116 12.2358 20.0207 10.96C20.7652 7.88704 22.6926 5.32651 25.3615 3.86506C26.4586 3.26422 27.0348 3.04877 28.3321 2.75398C29.654 2.45362 31.7773 2.50582 33.1635 2.87267ZM29.4654 5.78855C27.7121 6.0671 26.4709 6.70403 25.2203 7.96673C24.1528 9.04475 23.5352 10.1029 23.2021 11.4251C22.2374 15.2549 24.196 19.0358 27.9177 20.5284C28.6831 20.8353 28.8834 20.8623 30.4197 20.8662C31.9312 20.8701 32.1712 20.8403 32.9459 20.5526C35.6727 19.5403 37.477 17.2469 37.9079 14.2453C38.3171 11.3953 36.6994 8.13653 34.1775 6.73031C32.7529 5.93594 30.8859 5.5628 29.4654 5.78855ZM31.6085 8.39995C34.3679 9.12965 36.0294 11.8985 35.3233 14.5908C34.6628 17.1092 32.1967 18.7948 29.7563 18.3959C28.0661 18.1195 26.6214 17.0358 25.9096 15.5102C25.5531 14.7459 25.5287 14.6085 25.5287 13.3615C25.5287 12.1582 25.5608 11.9598 25.86 11.3111C26.5408 9.83524 27.7007 8.82214 29.149 8.43846C30.1468 8.1742 30.7206 8.16511 31.6085 8.39995ZM16.4337 14.8925C17.1752 15.0946 17.3705 15.1962 17.4158 15.4037C17.4469 15.5461 17.5528 16.0298 17.6512 16.4786C18.0437 18.268 19.0003 20.2385 20.21 21.7491C20.5437 22.1657 20.8166 22.5336 20.8166 22.5666C20.8166 22.5995 20.4635 22.6265 20.0321 22.6265C19.3239 22.6265 19.2135 22.6611 18.8988 22.9805C18.4078 23.479 18.4078 24.1963 18.8988 24.6948L19.2475 25.0488H30.5075H41.7676L42.1152 24.6803C42.5913 24.1759 42.5996 23.4921 42.1353 23.0202C41.8521 22.7323 41.6872 22.6789 40.9184 22.6265L40.0289 22.566L40.6961 21.7182C41.0631 21.2519 41.3801 20.8513 41.4009 20.828C41.4814 20.7372 43.5885 22.2931 44.4431 23.0744C46.4687 24.9263 47.8322 26.726 48.9182 28.9811C50.1859 31.6138 50.6403 33.4165 50.6394 35.8107C50.6384 39.1054 49.6754 42.1996 47.7696 45.0321C47.3887 45.5983 47.0228 46.2068 46.9566 46.3843C46.8135 46.768 46.9591 47.4104 47.2854 47.8339C47.7088 48.3837 48.155 49.4285 48.3324 50.2852C48.8484 52.7767 47.6635 55.2853 45.3565 56.5853C44.2384 57.2156 43.3708 57.4339 42.0352 57.4217C39.9187 57.4022 38.7471 56.8642 36.8137 55.0244C35.9491 54.2015 35.3907 53.7623 35.1462 53.7127C34.944 53.6716 34.2812 53.7426 33.6729 53.8705C31.2203 54.3858 27.5362 54.4935 25.3498 54.1137C24.1746 53.9096 23.9636 53.9929 22.7301 55.147C20.8308 56.9239 19.1754 57.6029 17.0599 57.4725C12.6305 57.1992 9.93723 53.0916 11.5837 49.1204C11.9987 48.1194 11.9242 47.8441 10.878 46.5139C10.3996 45.9056 9.74266 44.9405 9.41795 44.3691C8.55486 42.85 8.3826 42.5954 8.05228 42.3506C7.87 42.2155 6.85005 41.9428 5.42783 41.649C3.25587 41.2003 3.07991 41.1437 2.77356 40.7972L2.44551 40.426V35.9525C2.44551 31.2617 2.46877 31.0332 2.98125 30.6923C3.12452 30.597 4.24862 30.3148 5.47937 30.0652C6.98532 29.7598 7.84006 29.5272 8.0932 29.354C8.30172 29.2114 8.66581 28.732 8.90952 28.2794C9.99115 26.2704 11.3674 24.556 13.2665 22.852C14.3135 21.9126 14.6191 21.5674 14.6753 21.2614C14.7148 21.0463 14.6097 19.5966 14.4416 18.0397C14.2737 16.4828 14.1362 15.0446 14.1362 14.8438V14.4788L14.8222 14.5594C15.1994 14.6038 15.9247 14.7537 16.4337 14.8925ZM16.099 29.6905C14.5919 30.28 13.7324 31.761 14.0161 33.2796C14.1577 34.0378 14.3797 34.4819 14.8622 34.9718C15.5223 35.6418 16.1161 35.8823 17.1186 35.8854C17.9024 35.8879 18.0941 35.8416 18.6661 35.5123C21.0551 34.1366 20.7008 30.5754 18.0849 29.6703C17.5752 29.4938 16.5757 29.5041 16.099 29.6905ZM17.6486 32.3425C17.8954 32.7002 17.8829 32.96 17.6062 33.2141C17.2812 33.5128 16.7496 33.4195 16.5329 33.0258C16.3757 32.7399 16.3787 32.6737 16.5618 32.3899C16.8258 31.9807 17.3823 31.9564 17.6486 32.3425Z" fill="white"/>
</svg>
