<svg width="61" height="45" viewBox="0 0 61 45" fill="none" xmlns="http://www.w3.org/2000/svg">
<path fill-rule="evenodd" clip-rule="evenodd" d="M28.6687 0.0728678C25.6116 0.481763 23.1067 1.67167 21.1433 3.64754C18.6705 6.13608 17.517 8.95893 17.1598 13.3962C17.0861 14.3127 17.0021 15.1743 16.9732 15.3109L16.9208 15.5593L12.2435 15.6077C8.29114 15.6485 7.47159 15.6857 6.95517 15.848C5.62982 16.2646 4.58376 17.022 3.82951 18.1115C3.19191 19.0324 2.94217 19.879 2.93216 21.1535C2.92477 22.0968 2.9623 22.2738 3.3579 23.1647C3.74932 24.0462 3.7977 24.2704 3.85429 25.4631C3.88873 26.19 3.99859 27.0316 4.09844 27.3334C4.51 28.5775 5.38126 29.8973 6.20784 30.5287L6.68291 30.8916L6.64799 31.6538L6.61308 32.4159L5.95773 32.6101C5.59729 32.7169 4.60997 32.9979 3.76374 33.2347C2.05899 33.7115 1.36051 34.0891 0.751747 34.8631C0.0458746 35.7605 0 36.1024 0 40.4687C0 44.1384 0.0147752 44.4176 0.222938 44.6655C0.53274 45.0345 1.25458 45.0345 1.56438 44.6655C1.77231 44.4178 1.78732 44.1399 1.78732 40.5296C1.78732 35.2922 1.60859 35.5959 5.28105 34.5929L7.28535 34.0457L8.40886 35.1248L9.53237 36.2038V40.1943C9.53237 44.4144 9.55918 44.6403 10.0873 44.8724C10.5172 45.0613 10.7028 45.0308 11.0272 44.7179L11.3197 44.4358V40.3241V36.2125L12.4674 35.1013L13.6151 33.9903L14.2845 34.2099C14.6527 34.3307 15.0304 34.4567 15.1239 34.49C15.2462 34.5334 15.1397 34.7023 14.7443 35.092C14.0981 35.7291 13.628 36.584 13.4633 37.421C13.2972 38.2659 13.309 44.108 13.4776 44.4648C13.6072 44.739 14.0328 45 14.3505 45C14.4384 45 14.6371 44.9013 14.7917 44.7805L15.0731 44.5611L15.1326 41.0168C15.214 36.1763 15.044 36.4405 19.2195 34.6637C20.7136 34.028 21.9542 33.5077 21.9765 33.5077C21.9988 33.5077 22.2279 33.831 22.4859 34.226C24.2245 36.8893 27.126 38.4516 30.3844 38.4787C32.138 38.4934 33.4009 38.2105 34.9446 37.4573C36.2838 36.8038 37.7284 35.4962 38.5468 34.1968C38.7855 33.8178 39.0011 33.5077 39.026 33.5077C39.0508 33.5077 40.2936 34.028 41.7876 34.6637C44.6332 35.8747 45.0729 36.1486 45.5573 37.0129C45.8013 37.4481 45.8182 37.661 45.8745 41.0168L45.9341 44.5611L46.2154 44.7805C46.5393 45.0332 46.7027 45.0501 47.1069 44.8724C47.6198 44.6471 47.6619 44.3657 47.6619 41.1603C47.6619 37.5228 47.5203 36.6229 46.8033 35.7045C46.6857 35.5537 46.5895 35.3851 46.5895 35.3297C46.5895 35.2743 46.8806 35.0914 47.2363 34.9231L47.8832 34.6171L48.6159 35.2713C49.8286 36.3541 50.8708 36.7053 52.1859 36.4743C53.0559 36.3215 53.5358 36.068 54.4173 35.2958L55.1555 34.6491L56.8004 35.4454C58.4845 36.2608 58.8704 36.5404 59.0927 37.1065C59.1727 37.3098 59.2199 38.7254 59.2199 40.915C59.2199 44.1487 59.2359 44.4191 59.4428 44.6655C59.7564 45.039 60.4744 45.0344 60.7914 44.657C61.0101 44.3963 61.0197 44.1957 60.9845 40.5829L60.9476 36.783L60.6318 36.2084C60.0944 35.2308 59.5599 34.8322 57.345 33.758L55.2886 32.7607L55.2943 31.8413L55.3 30.922L55.782 30.5496C56.7566 29.7965 57.4866 28.7099 57.8503 27.4708C57.9611 27.0934 58.2308 26.3451 58.4496 25.8079C58.6685 25.2706 58.9116 24.4733 58.9899 24.0361C59.3773 21.8707 58.5366 19.4077 56.8573 17.788L56.1814 17.1362L56.1781 16.1569C56.1753 15.3509 56.1204 15.0647 55.8682 14.5402C54.9825 12.6992 53.0106 11.7311 50.7636 12.0343C49.226 12.2417 47.8549 13.1625 47.2165 14.4162C46.9363 14.9665 46.8853 15.2164 46.8735 16.0969L46.8597 17.1312L46.0869 17.905C45.6618 18.3305 45.1359 19.0013 44.918 19.3956C44.7 19.79 44.5063 20.0623 44.4875 20.0009C44.4685 19.9396 44.2893 18.0793 44.0894 15.8671C43.6913 11.4638 43.5101 10.2789 43.007 8.78298C42.2668 6.58302 41.3254 5.08661 39.6864 3.50435C37.9279 1.80705 35.994 0.789297 33.5846 0.293175C32.2796 0.0243703 29.8461 -0.0846915 28.6687 0.0728678ZM33.0654 1.94726C37.6698 2.91353 40.7479 6.09793 41.7486 10.93C41.8527 11.4331 42.1017 13.6807 42.302 15.9245C42.7211 20.6199 43.1268 24.2254 43.5498 27.0146C43.8302 28.8632 43.835 28.9764 43.639 29.1208C42.8835 29.677 38.9588 31.2093 38.2897 31.2093C37.9341 31.2093 36.3864 30.4519 36.3003 30.2357C36.2578 30.1288 36.223 29.3 36.223 28.394V26.7468L36.7905 26.345C38.0828 25.4301 39.4057 23.807 40.0507 22.345C40.7125 20.8449 40.8848 19.959 40.9083 17.9357C40.9335 15.7612 40.7921 15.215 39.9782 14.3417C38.4197 12.67 34.6304 10.7882 31.0994 9.93233C29.5167 9.54883 26.7594 9.12856 26.4707 9.22682C26.0728 9.36231 25.8566 9.64295 25.8566 10.0238C25.8566 10.5422 26.1901 10.8342 26.8906 10.9292C31.8191 11.5972 35.3041 12.8517 38.0365 14.9415C39.0801 15.7396 39.1444 15.9121 39.1306 17.8782C39.1169 19.8517 38.879 20.8614 38.0923 22.2858C36.5962 24.9949 33.7434 26.6267 30.5036 26.6267C25.8079 26.6267 22.2345 23.3311 21.858 18.6532C21.7548 17.3708 21.8662 17.1047 22.739 16.5473C24.1939 15.6185 25.6182 13.7616 25.6182 12.7939C25.6182 12.3111 25.2802 11.9789 24.7889 11.9789C24.3316 11.9789 24.0872 12.1873 23.8078 12.8161C23.442 13.6393 22.7762 14.3848 21.7779 15.089C21.2668 15.4495 20.7155 15.9298 20.5529 16.1562C19.7424 17.2842 19.9625 20.1916 21.0354 22.5318C21.6452 23.8613 22.9964 25.481 24.2166 26.345L24.7842 26.7468V28.394C24.7842 29.3 24.7494 30.1288 24.7068 30.2357C24.6208 30.4519 23.0731 31.2093 22.7174 31.2093C22.0484 31.2093 18.1237 29.677 17.3682 29.1208C17.1722 28.9764 17.177 28.8632 17.4573 27.0146C17.8803 24.2254 18.2861 20.6199 18.7051 15.9245C19.086 11.658 19.2513 10.5834 19.7482 9.14867C21.1041 5.23394 24.1994 2.57715 28.1801 1.91129C28.5733 1.84555 29.029 1.76878 29.1929 1.74074C29.7683 1.64225 32.2401 1.77407 33.0654 1.94726ZM53.0027 14.0506C53.7203 14.3788 54.2633 15.0048 54.3884 15.6484C54.4327 15.8764 54.4514 16.0799 54.4298 16.1007C54.4083 16.1215 54.0161 16.0361 53.5583 15.9108C52.1773 15.5331 50.1149 15.6185 48.8053 16.1078C48.599 16.1848 48.5843 16.1494 48.6443 15.7192C48.7665 14.84 49.5468 14.0956 50.6474 13.8081C51.4538 13.5973 52.1739 13.6715 53.0027 14.0506ZM16.1812 19.6308L16.1397 21.958L15.6958 22.896C15.2661 23.8036 15.2518 23.8763 15.2518 25.1434C15.2518 26.6874 15.0036 27.5617 14.3158 28.4405C13.745 29.1698 13.2741 29.5393 12.4537 29.9016C10.0898 30.9454 7.34815 29.9888 6.19687 27.7185C5.75481 26.8468 5.60027 26.0765 5.60027 24.7436C5.60027 23.7942 5.56428 23.6353 5.15534 22.7769C4.7725 21.9733 4.7109 21.7293 4.71328 21.027C4.71793 19.6288 5.53795 18.3749 6.87558 17.72C7.53868 17.3953 8.41851 17.3308 12.3711 17.317L16.2225 17.3036L16.1812 19.6308ZM53.2025 17.6155C56.0335 18.455 57.8235 21.4044 57.153 24.1248L57.0155 24.6827L56.4793 24.2318C55.237 23.1872 53.3181 22.2183 51.2053 21.5686C49.3676 21.0035 48.9415 21.1018 48.6486 22.1577C48.5727 22.4316 48.3464 22.8548 48.1457 23.0984C47.5184 23.8597 47.7822 24.6587 48.6608 24.6587C48.979 24.6587 49.1534 24.5632 49.4881 24.2059C49.7214 23.9568 49.9967 23.5955 50.0999 23.4031L50.2875 23.0533L51.0301 23.3234C53.3772 24.1771 54.6867 24.8945 55.6831 25.8726C56.2093 26.3892 56.2506 26.4697 56.1794 26.8402C56.0536 27.495 55.4187 28.5239 54.7916 29.0897C52.4507 31.2016 48.5555 30.4911 47.1945 27.7041C47.0094 27.3249 46.8231 26.8336 46.7806 26.6123C46.7382 26.3911 46.5106 25.7765 46.2748 25.2465C45.1728 22.7693 45.8761 20.1012 48.0499 18.5109C49.5365 17.4233 51.4394 17.0927 53.2025 17.6155ZM7.41976 20.2706C7.11127 20.3128 6.67266 20.8028 6.67266 21.1051C6.67266 21.2195 6.79336 21.4483 6.94076 21.6135C7.19265 21.8959 7.30239 21.9206 8.75787 22.023C10.2082 22.125 11.6635 22.3728 12.8363 22.7178C13.736 22.9825 14.3382 22.5264 14.1325 21.7359C14.0244 21.3205 13.112 20.9193 11.596 20.6206C10.5003 20.4047 7.98133 20.1936 7.41976 20.2706ZM27.6128 27.9894C28.6626 28.3068 30.2947 28.442 31.5773 28.318C32.1677 28.2609 32.9855 28.113 33.3944 27.9894C33.8032 27.8657 34.2049 27.7639 34.2867 27.7631C34.3974 27.7619 34.4359 28.1081 34.4368 29.1119C34.4378 30.4053 34.4532 30.488 34.8004 31.0719C35.1851 31.7189 35.7888 32.1674 36.7537 32.5227C37.0516 32.6325 37.2954 32.7596 37.2954 32.8052C37.2954 32.8508 37.1337 33.1341 36.936 33.4346C35.4019 35.7678 32.4074 37.1028 29.5539 36.726C27.7486 36.4877 26.2986 35.7978 25.0632 34.5897C24.3997 33.9407 23.6157 32.8709 23.7271 32.7661C23.7515 32.7432 24.0822 32.5921 24.4622 32.4304C25.4588 32.0062 25.819 31.724 26.2166 31.0553C26.5522 30.4909 26.5693 30.397 26.5704 29.1119C26.5712 28.1081 26.6097 27.7619 26.7204 27.7631C26.8024 27.7639 27.204 27.8657 27.6128 27.9894ZM47.1955 30.528L47.7905 31.0085L47.756 31.8845L47.7214 32.7607L46.3347 33.4444L44.9481 34.1282L42.9631 33.2812C41.8714 32.8154 40.9575 32.402 40.9322 32.3625C40.9069 32.3231 41.3786 32.0919 41.9803 31.8487C43.1793 31.3643 44.5823 30.6258 45.026 30.2455C45.3632 29.9565 45.6362 29.381 45.6362 28.9588C45.6362 28.6946 45.6995 28.7461 46.1184 29.3512C46.3836 29.7342 46.8683 30.2638 47.1955 30.528ZM17.0987 30.9482C17.5574 31.2003 18.4251 31.6056 19.0269 31.8487C19.6286 32.0919 20.1 32.3236 20.0742 32.3637C20.0486 32.4038 19.5168 32.6534 18.8926 32.9185L17.7575 33.4005L16.4748 33.0481C15.7694 32.8543 14.9644 32.6156 14.6858 32.5175L14.1794 32.3395L14.1777 31.6881C14.1762 31.0399 14.1793 31.0342 14.8629 30.4426L15.5497 29.8482L15.9071 30.1689C16.1037 30.3453 16.6399 30.6959 17.0987 30.9482ZM9.63711 32.0116C10.3311 32.1065 12.0197 31.9922 12.2879 31.8324C12.331 31.8067 12.3927 31.9792 12.4248 32.2158C12.481 32.6268 12.4395 32.6888 11.4854 33.6209L10.4874 34.5961L9.47363 33.6234C8.54899 32.7364 8.45998 32.6117 8.45998 32.2051C8.45998 31.8385 8.49477 31.7721 8.65611 31.8319C8.76406 31.8718 9.20553 31.9527 9.63711 32.0116ZM50.6624 32.0027C51.412 32.1029 52.8123 32.0139 53.2945 31.8355C53.4743 31.7689 53.5004 31.84 53.5004 32.3962C53.5004 32.7465 53.5492 33.1567 53.6087 33.308C53.7042 33.55 53.6456 33.6423 53.1179 34.0806C52.0375 34.9783 51.1391 35.0574 50.1985 34.338C49.4149 33.7386 49.3074 33.5802 49.4458 33.229C49.5132 33.058 49.5683 32.6645 49.5683 32.3546C49.5683 31.9523 49.611 31.8062 49.7173 31.8436C49.7992 31.8725 50.2245 31.9441 50.6624 32.0027ZM4.10547 38.042L3.81295 38.324V41.362C3.81295 44.159 3.83058 44.421 4.03589 44.6655C4.19722 44.8577 4.38251 44.931 4.70661 44.931C5.03071 44.931 5.21599 44.8577 5.37733 44.6655C5.58251 44.4211 5.60027 44.1595 5.60027 41.3827C5.60027 38.5042 5.58895 38.3516 5.35326 38.0627C5.03047 37.6668 4.50345 37.658 4.10547 38.042ZM55.6539 39.2119C55.4216 39.4967 55.4069 39.6602 55.4069 41.9573C55.4069 44.1727 55.4276 44.4246 55.6298 44.6655C55.9396 45.0345 56.6615 45.0345 56.9713 44.6655C57.1735 44.4246 57.1942 44.1727 57.1942 41.9573C57.1942 39.6602 57.1796 39.4967 56.9472 39.2119C56.7681 38.9923 56.5905 38.9091 56.3006 38.9091C56.0107 38.9091 55.833 38.9923 55.6539 39.2119ZM20.4631 39.7423C20.1071 40.003 20.018 40.5131 20.018 42.2897C20.018 44.2109 20.1158 44.6715 20.5657 44.8692C20.9816 45.0519 21.1318 45.0346 21.4913 44.7618L21.8053 44.5236V42.311C21.8053 40.1468 21.7992 40.0929 21.5296 39.8485C21.2222 39.57 20.761 39.524 20.4631 39.7423ZM39.4609 39.8646C39.2136 40.1185 39.2019 40.23 39.2019 42.3271V44.5236L39.5158 44.7618C39.6885 44.8928 39.9005 45 39.9869 45C40.3392 45 40.7465 44.718 40.8641 44.3924C41.0305 43.9318 41.0254 40.6526 40.8575 40.1879C40.6305 39.5601 39.9182 39.3952 39.4609 39.8646Z" fill="white"/>
</svg>
