<svg width="1920" height="662" viewBox="0 0 1920 662" fill="none" xmlns="http://www.w3.org/2000/svg">
<g clip-path="url(#clip0_59_479)">
<rect width="1920" height="662" fill="#F1F3FF"/>
<path fill-rule="evenodd" clip-rule="evenodd" d="M-46.2123 72.6852C-3.94385 68.9404 47.0459 47.3015 77.4512 84.3119C108.363 121.939 77.391 190.634 92.3184 241.309C108.364 295.78 170.264 326.332 165.767 384.125C161.365 440.7 107.242 466.044 72.0439 501.863C34.438 540.131 2.12383 603.621 -46.2123 599.838C-94.6503 596.047 -116.5 522.467 -154.209 484.156C-189.043 448.766 -240.931 435.98 -258.437 384.225C-276.333 331.314 -263.482 269.29 -244.598 216.922C-227.082 168.349 -194.576 131.892 -157.8 105.154C-123.938 80.5348 -85.2571 76.1445 -46.2123 72.6852Z" fill="#E2E6FF" fill-opacity="0.6"/>
</g>
<defs>
<clipPath id="clip0_59_479">
<rect width="1920" height="662" fill="white"/>
</clipPath>
</defs>
</svg>
