<svg width="25" height="19" viewBox="0 0 25 19" fill="none" xmlns="http://www.w3.org/2000/svg">
<path d="M15.875 9.5L10.8125 6.125V12.875L15.875 9.5Z" stroke="#FF1B1B" stroke-width="2" stroke-linecap="round" stroke-linejoin="round"/>
<path d="M1.53125 9.50009C1.53125 12.6384 1.85548 14.4797 2.10195 15.426C2.16783 15.6845 2.29436 15.9235 2.47104 16.1233C2.64771 16.3232 2.86946 16.478 3.11791 16.575C6.64868 17.9319 12.5 17.8946 12.5 17.8946C12.5 17.8946 18.3513 17.9319 21.8821 16.5751C22.1305 16.478 22.3523 16.3232 22.5289 16.1234C22.7056 15.9235 22.8321 15.6845 22.898 15.426C23.1445 14.4797 23.4688 12.6384 23.4688 9.50009C23.4688 6.36181 23.1445 4.52051 22.898 3.57416C22.8322 3.3157 22.7056 3.07666 22.529 2.87684C22.3523 2.67702 22.1305 2.52218 21.8821 2.42514C18.3513 1.06831 12.5 1.10557 12.5 1.10557C12.5 1.10557 6.64874 1.06831 3.11794 2.42513C2.8695 2.52216 2.64775 2.67701 2.47107 2.87682C2.29438 3.07664 2.16786 3.31568 2.10197 3.57414C1.85549 4.52049 1.53125 6.36181 1.53125 9.50009Z" stroke="#FF1B1B" stroke-width="2" stroke-linecap="round" stroke-linejoin="round"/>
</svg>
