<svg width="22" height="22" viewBox="0 0 22 22" fill="none" xmlns="http://www.w3.org/2000/svg">
<path fill-rule="evenodd" clip-rule="evenodd" d="M18.4409 3.56592C16.4653 1.59033 13.8403 0.5 11.0444 0.5C5.28174 0.5 0.588868 5.18945 0.588868 10.9521C0.585449 12.7944 1.06738 14.5923 1.9834 16.1782L0.5 21.5957L6.04395 20.1396C7.56836 20.9736 9.29102 21.4111 11.041 21.4146H11.0444C16.8071 21.4146 21.4966 16.7251 21.5 10.959C21.5 8.1665 20.4131 5.5415 18.4409 3.56592ZM11.0444 19.6475H11.041C9.48242 19.6475 7.95117 19.2271 6.61817 18.4375L6.30029 18.2495L3.00879 19.1108L3.88721 15.9048L3.68213 15.5767C2.81055 14.1924 2.35254 12.5928 2.35254 10.9521C2.35254 6.16357 6.25244 2.26709 11.0479 2.26709C13.3687 2.26709 15.5493 3.17285 17.1899 4.81348C18.8306 6.45752 19.7329 8.63818 19.7329 10.959C19.7329 15.751 15.833 19.6475 11.0444 19.6475ZM15.8091 13.1396C15.5493 13.0098 14.2642 12.3774 14.0249 12.292C13.7856 12.2031 13.6113 12.1621 13.437 12.4219C13.2627 12.6851 12.7637 13.2729 12.6099 13.4473C12.4595 13.6182 12.3057 13.6421 12.0459 13.5122C11.7827 13.3823 10.9419 13.1055 9.94385 12.2134C9.16797 11.5229 8.6416 10.665 8.49121 10.4053C8.3374 10.1421 8.47412 10.002 8.604 9.87207C8.72363 9.75586 8.86719 9.56787 8.99707 9.41406C9.12695 9.26367 9.17139 9.1543 9.26025 8.97998C9.3457 8.80567 9.30127 8.65186 9.23633 8.52197C9.17139 8.39209 8.64844 7.10352 8.42969 6.58057C8.21777 6.07129 8.00244 6.14307 7.8418 6.13281C7.69141 6.12598 7.51709 6.12598 7.34277 6.12598C7.16846 6.12598 6.88477 6.19092 6.64551 6.4541C6.40625 6.71387 5.73291 7.34619 5.73291 8.63135C5.73291 9.9165 6.66943 11.1606 6.79932 11.335C6.9292 11.5059 8.6416 14.1445 11.2632 15.2759C11.8853 15.5459 12.3706 15.7065 12.75 15.8262C13.3755 16.0244 13.9463 15.9971 14.3975 15.9321C14.8999 15.8569 15.9424 15.2998 16.1611 14.688C16.3765 14.0796 16.3765 13.5566 16.3115 13.4473C16.2466 13.3379 16.0723 13.2729 15.8091 13.1396Z" fill="#27BA3E"/>
</svg>
