<svg width="1200" height="574" viewBox="0 0 1200 574" fill="none" xmlns="http://www.w3.org/2000/svg">
<g clip-path="url(#clip0_59_1105)">
<rect width="1200" height="574" rx="20" fill="white"/>
<path fill-rule="evenodd" clip-rule="evenodd" d="M256.818 213.794C295.68 211.295 337.759 214.334 370.967 228.076C404.166 241.816 414.005 271.196 441.049 290.036C466.354 307.663 503.491 316.255 525.533 335.747C548.751 356.281 565.534 380.375 571.917 405.77C578.422 431.646 616.885 446 641.385 482.5C664.885 518.5 665.836 587.973 641.385 608C617.525 627.543 453.731 590.682 419.321 601C384.683 611.387 344.237 605.669 306.473 603.128C273.752 600.925 244.291 589.763 211.661 587.024C177.007 584.114 145.373 644.141 111.885 637.5C76.5022 630.483 20.4638 607.263 0.599411 586.445C-19.5004 565.379 -117.67 540.498 -128.115 516.5C-138.629 492.34 -52.1156 431.406 -47.2214 406.456C-42.2601 381.164 -26.3958 340.882 -5.61462 319.5C12.8816 300.469 47.6183 304.967 68.701 287.182C90.8756 268.475 120.041 254.257 150.863 242.233C184.021 229.297 218.616 216.251 256.818 213.794Z" fill="#FE8DA1"/>
</g>
<defs>
<clipPath id="clip0_59_1105">
<rect width="1200" height="574" rx="20" fill="white"/>
</clipPath>
</defs>
</svg>
