<svg width="75" height="43" viewBox="0 0 75 43" fill="none" xmlns="http://www.w3.org/2000/svg">
<path fill-rule="evenodd" clip-rule="evenodd" d="M11.1631 0.534056C8.4117 0.909014 6.0721 2.58893 4.97642 4.97651C4.32868 6.38815 4.2524 6.78793 3.52205 12.6101C2.92449 17.3728 2.90225 17.7137 2.90225 22.0943C2.90225 26.1148 2.87446 26.6384 2.6606 26.6384C2.24 26.6384 0.823609 28.2022 0.619482 28.8918C0.378142 29.7077 0.378142 31.5862 0.619482 32.4021C0.870086 33.249 2.1492 34.5262 2.99737 34.7764C3.3627 34.8842 4.54531 34.9639 5.77873 34.9639H7.92469L8.11338 35.7733C8.42266 37.0993 9.33614 38.7209 10.3483 39.7409C13.1928 42.6077 17.4904 43.1421 21.0326 41.0695C22.6841 40.1031 24.2804 37.9509 24.7788 36.0188L25.051 34.9639H36.2521H47.4532L47.6419 35.7733C47.9512 37.0993 48.8647 38.7209 49.8768 39.7409C52.7213 42.6077 57.019 43.1421 60.5611 41.0695C62.2126 40.1031 63.8089 37.9509 64.3073 36.0188L64.5796 34.9639H69.1846H73.7897L74.1754 34.5788L74.5611 34.1936L74.5157 26.4459C74.4717 18.9081 74.4614 18.6762 74.1362 17.8842C73.9523 17.4365 73.5354 16.7202 73.2097 16.2923C72.1851 14.9462 71.2772 14.4757 66.8778 13.01L62.9047 11.6866L58.3422 7.15379C53.4231 2.26654 52.6285 1.63164 50.5492 0.92767L49.3019 0.50538L30.4641 0.488112C20.1033 0.478707 11.4179 0.499366 11.1631 0.534056ZM48.947 3.06549C49.3969 3.15923 50.2168 3.44615 50.7688 3.70316C51.6571 4.11666 52.3401 4.73137 56.7135 9.05295L61.6546 13.9357L63.0789 14.379C64.3439 14.7726 64.4946 14.8579 64.4279 15.1414C64.1782 16.2014 63.4303 20.105 63.4303 20.3481C63.4303 20.5084 63.6009 20.8097 63.8094 21.0178L64.1883 21.3963H68.1328H72.0772V24.4799V27.5634H68.989H65.9008V28.7968V30.0303H68.989H72.0772V31.2637V32.4971H68.33H64.583L64.3117 31.4646C63.5736 28.6544 61.4455 26.4615 58.4892 25.4646C57.8753 25.2576 57.1908 25.1782 56.0187 25.1782C54.8466 25.1782 54.1621 25.2576 53.5482 25.4646C50.5506 26.4754 48.312 28.8346 47.643 31.6877L47.4532 32.4971H36.2538H25.0544L24.7831 31.4646C24.0451 28.6544 21.917 26.4615 18.9607 25.4646C17.7824 25.0673 15.1979 25.0673 14.0196 25.4646C11.0221 26.4754 8.78351 28.8346 8.11446 31.6877L7.92469 32.4971H5.79247C3.73451 32.4971 3.64712 32.484 3.28133 32.1186C2.95012 31.788 2.90225 31.6021 2.90225 30.647C2.90225 29.6918 2.95012 29.5059 3.28133 29.1753C3.64635 28.8107 3.73698 28.7968 5.75186 28.7968H7.84332V27.5634V26.33H6.60805H5.37279V25.0966V23.8632H6.27175C7.61279 23.8632 8.49585 23.5015 9.27916 22.6316C10.6637 21.094 10.6637 19.2319 9.27916 17.6943C8.50666 16.8363 7.61371 16.4627 6.33537 16.4627H5.50002L5.5905 15.8845C5.64038 15.5666 5.89237 13.6066 6.15054 11.529C6.40887 9.45149 6.6939 7.47541 6.78408 7.13761C7.18863 5.62328 8.21683 4.26483 9.42616 3.64704C10.889 2.8999 10.4414 2.91609 29.8775 2.9053C42.6425 2.8982 48.3746 2.94631 48.947 3.06549ZM10.7261 5.70715C10.4244 6.00841 10.2847 6.60523 9.72401 9.98803C9.36578 12.1499 9.07395 14.0433 9.0755 14.1955C9.0772 14.3478 9.24921 14.6426 9.45766 14.8508L9.83657 15.2293H15.9738H22.111L23.9852 17.0794L25.8594 18.9295H41.7954H57.7312L58.1102 18.551C58.4678 18.1941 58.4892 18.0741 58.4892 16.4376V14.7026L54.2816 10.4886C50.9751 7.17738 49.8921 6.18541 49.2247 5.85701L48.3755 5.43904L29.7261 5.39803L11.0768 5.35717L10.7261 5.70715ZM21.4312 10.2956V12.7624H16.6446C12.3124 12.7624 11.8579 12.7384 11.8579 12.5097C11.8579 12.254 12.413 8.81459 12.5574 8.17568L12.6358 7.82878H17.0335H21.4312V10.2956ZM36.2544 12.1457V16.4627H31.5864H26.9183L25.41 14.9624L23.9018 13.4621V10.6454V7.82878H30.0781H36.2544V12.1457ZM48.0383 7.9993C48.2237 8.09304 50.0951 9.87903 52.1971 11.9681C54.9377 14.6921 56.0187 15.8651 56.0187 16.1146V16.4627H47.3718H38.725V12.1457V7.82878H43.213C46.1846 7.82878 47.8148 7.88644 48.0383 7.9993ZM68.495 16.1698C70.1225 16.7112 71.0145 17.3215 71.5713 18.2743L71.9541 18.9295H69.0819C67.404 18.9295 66.2096 18.8695 66.2096 18.7854C66.2096 18.6505 66.5741 16.8071 66.7525 16.0387C66.7969 15.8478 66.8838 15.6918 66.9457 15.6918C67.0075 15.6918 67.7048 15.9069 68.495 16.1698ZM12.7844 18.9295V20.1629H14.0196H15.2549V18.9295V17.6961H14.0196H12.7844V18.9295ZM17.7254 18.9295V20.1629H18.9607H20.196V18.9295V17.6961H18.9607H17.7254V18.9295ZM7.46425 19.308C7.96576 19.8086 7.96576 20.5172 7.46425 21.0178C7.15311 21.3287 6.93231 21.3963 6.22898 21.3963H5.37279V20.1629V18.9295H6.22898C6.93231 18.9295 7.15311 18.9972 7.46425 19.308ZM31.3134 22.6298V23.8632H33.7839H36.2544V22.6298V21.3963H33.7839H31.3134V22.6298ZM38.725 22.6298V23.8632H41.1955H43.666V22.6298V21.3963H41.1955H38.725V22.6298ZM19.027 28.1524C20.4202 28.8035 21.3216 29.6887 22.0126 31.0848C22.5575 32.1856 22.5893 32.3313 22.5893 33.7305C22.5893 35.1297 22.5575 35.2753 22.0126 36.3762C21.3181 37.7795 20.424 38.6535 18.9885 39.3325C18.0557 39.7738 17.8167 39.8205 16.4902 39.8205C15.1637 39.8205 14.9246 39.7738 13.9919 39.3325C12.5563 38.6535 11.6623 37.7795 10.9678 36.3762C10.4235 35.2766 10.3911 35.1284 10.3911 33.7385C10.3911 32.4049 10.4372 32.1685 10.8798 31.2359C11.5002 29.9282 12.3835 28.9709 13.5357 28.3577C14.752 27.7105 15.4175 27.564 16.8374 27.6316C17.7642 27.6757 18.2578 27.793 19.027 28.1524ZM26.3723 28.7968V30.0303H36.2544H46.1366V28.7968V27.5634H36.2544H26.3723V28.7968ZM58.5555 28.1524C59.9487 28.8035 60.8501 29.6887 61.5411 31.0848C62.086 32.1856 62.1178 32.3313 62.1178 33.7305C62.1178 35.1297 62.086 35.2753 61.5411 36.3762C60.8466 37.7795 59.9526 38.6535 58.517 39.3325C57.5842 39.7738 57.3452 39.8205 56.0187 39.8205C54.6922 39.8205 54.4532 39.7738 53.5204 39.3325C52.0848 38.6535 51.1908 37.7795 50.4963 36.3762C49.952 35.2766 49.9196 35.1284 49.9196 33.7385C49.9196 32.4049 49.9657 32.1685 50.4083 31.2359C51.0287 29.9282 51.9121 28.9709 53.0643 28.3577C54.2805 27.7105 54.946 27.564 56.366 27.6316C57.2927 27.6757 57.7864 27.793 58.5555 28.1524ZM15.2549 30.2318C14.9577 30.3253 14.3648 30.752 13.9372 31.1796C12.846 32.2717 12.5446 33.4238 12.9721 34.8689C13.2227 35.7158 14.5019 36.993 15.35 37.2433C16.7978 37.6703 17.952 37.3692 19.0432 36.2797C20.552 34.773 20.5971 32.8565 19.1613 31.2618C18.162 30.1521 16.7182 29.7712 15.2549 30.2318ZM54.7834 30.2318C54.0256 30.4703 52.733 31.8067 52.5007 32.5921C52.0729 34.0376 52.3745 35.1901 53.4657 36.2797C54.2654 37.0781 55.0475 37.4307 56.0187 37.4307C56.9899 37.4307 57.772 37.0781 58.5717 36.2797C60.0806 34.773 60.1257 32.8565 58.6898 31.2618C57.6905 30.1521 56.2468 29.7712 54.7834 30.2318ZM17.3464 32.8756C18.1124 33.6403 17.5697 34.9639 16.4902 34.9639C15.8554 34.9639 15.2549 34.3643 15.2549 33.7305C15.2549 33.0967 15.8554 32.4971 16.4902 32.4971C16.791 32.4971 17.1075 32.6369 17.3464 32.8756ZM56.8749 32.8756C57.1139 33.1141 57.254 33.4302 57.254 33.7305C57.254 34.0308 57.1139 34.3469 56.8749 34.5854C56.636 34.8241 56.3195 34.9639 56.0187 34.9639C55.7179 34.9639 55.4014 34.8241 55.1625 34.5854C54.9235 34.3469 54.7834 34.0308 54.7834 33.7305C54.7834 33.4302 54.9235 33.1141 55.1625 32.8756C55.4014 32.6369 55.7179 32.4971 56.0187 32.4971C56.3195 32.4971 56.636 32.6369 56.8749 32.8756Z" fill="#29BB7F"/>
</svg>
