<svg width="320" height="2104" viewBox="0 0 320 2104" fill="none" xmlns="http://www.w3.org/2000/svg">
<path fill-rule="evenodd" clip-rule="evenodd" d="M-171.246 118.459C-249.68 81.8309 -330.925 -51.4322 -404.534 21.4449C-477.3 93.4871 -496.576 313.816 -533.222 476.836C-564.966 618.048 -580.477 769.622 -605.972 917.529C-635.8 1090.58 -716.218 1246.49 -697.094 1427.55C-677.867 1609.59 -575.403 1662.5 -514.361 1784.87C-463.736 1886.36 -430.346 2046.08 -366.322 2090.67C-302.557 2135.07 -237.807 2024.22 -171.246 2023.82C-104.892 2023.43 -38.1 2146.59 23.3533 2088.37C84.2079 2030.71 94.4811 1835.49 141.141 1727.87C194.871 1603.94 302.222 1580.26 318.23 1408.24C334.313 1235.4 236.092 1113.02 214.107 943.743C194.024 789.111 232.63 604.294 195.994 467.071C159.528 330.487 84.9049 280.873 20.9114 220.126C-40.6801 161.659 -106.025 148.917 -171.246 118.459Z" fill="#F1FFFA"/>
</svg>
