<svg width="203" height="62" viewBox="0 0 203 62" fill="none" xmlns="http://www.w3.org/2000/svg">
<path d="M67.668 26.4418H72.36C76.1011 26.4418 77.9717 27.8807 77.9717 30.7585C77.9717 33.6362 76.1011 35.0751 72.36 35.0751H69.8075V39.5795H67.668V26.4418ZM74.8937 32.6165C75.4943 32.2662 75.7946 31.6468 75.7946 30.7585C75.7946 29.8701 75.4943 29.257 74.8937 28.9192C74.3056 28.5689 73.4986 28.3937 72.4726 28.3937H69.8075V33.1232H72.4726C73.4986 33.1232 74.3056 32.9543 74.8937 32.6165Z" fill="#003153"/>
<path d="M79.7183 35.5443C79.4305 34.7436 79.2866 33.899 79.2866 33.0106C79.2866 32.1223 79.4305 31.2777 79.7183 30.4769C80.0186 29.6762 80.444 28.9567 80.9945 28.3186C81.545 27.668 82.2707 27.155 83.1716 26.7796C84.0725 26.3917 85.0797 26.1978 86.1933 26.1978C87.3068 26.1978 88.3078 26.3917 89.1962 26.7796C90.097 27.155 90.8227 27.668 91.3733 28.3186C91.9363 28.9567 92.3617 29.6762 92.6495 30.4769C92.9498 31.2777 93.0999 32.1223 93.0999 33.0106C93.0999 33.899 92.9498 34.7436 92.6495 35.5443C92.3617 36.3451 91.9363 37.0708 91.3733 37.7214C90.8227 38.3596 90.097 38.8725 89.1962 39.2604C88.3078 39.6358 87.3068 39.8235 86.1933 39.8235C85.0797 39.8235 84.0725 39.6358 83.1716 39.2604C82.2707 38.8725 81.545 38.3596 80.9945 37.7214C80.444 37.0708 80.0186 36.3451 79.7183 35.5443ZM89.6841 36.4264C90.5099 35.5005 90.9228 34.3619 90.9228 33.0106C90.9228 31.6593 90.5099 30.5207 89.6841 29.5948C88.8709 28.6689 87.7072 28.206 86.1933 28.206C84.6918 28.206 83.5282 28.6689 82.7024 29.5948C81.8766 30.5207 81.4637 31.6593 81.4637 33.0106C81.4637 34.3619 81.8766 35.5005 82.7024 36.4264C83.5282 37.3523 84.6918 37.8153 86.1933 37.8153C87.7072 37.8153 88.8709 37.3523 89.6841 36.4264Z" fill="#003153"/>
<path d="M95.7649 42.5636H93.813V37.6276H95.3895C96.7909 35.0751 97.4915 31.3465 97.4915 26.4418H105.956V37.6276H107.626V42.5636H105.674V39.5795H95.7649V42.5636ZM99.5936 28.4124C99.3308 32.6666 98.7052 35.7383 97.7167 37.6276H103.816V28.4124H99.5936Z" fill="#003153"/>
<path d="M118.87 26.4418H121.009V39.5795H118.87V33.9866H111.944V39.5795H109.805V26.4418H111.944V32.0159H118.87V26.4418Z" fill="#003153"/>
<path d="M123.779 35.5443C123.492 34.7436 123.348 33.899 123.348 33.0106C123.348 32.1223 123.492 31.2777 123.779 30.4769C124.08 29.6762 124.505 28.9567 125.056 28.3186C125.606 27.668 126.332 27.155 127.233 26.7796C128.134 26.3917 129.141 26.1978 130.254 26.1978C131.368 26.1978 132.369 26.3917 133.257 26.7796C134.158 27.155 134.884 27.668 135.434 28.3186C135.997 28.9567 136.423 29.6762 136.711 30.4769C137.011 31.2777 137.161 32.1223 137.161 33.0106C137.161 33.899 137.011 34.7436 136.711 35.5443C136.423 36.3451 135.997 37.0708 135.434 37.7214C134.884 38.3596 134.158 38.8725 133.257 39.2604C132.369 39.6358 131.368 39.8235 130.254 39.8235C129.141 39.8235 128.134 39.6358 127.233 39.2604C126.332 38.8725 125.606 38.3596 125.056 37.7214C124.505 37.0708 124.08 36.3451 123.779 35.5443ZM133.745 36.4264C134.571 35.5005 134.984 34.3619 134.984 33.0106C134.984 31.6593 134.571 30.5207 133.745 29.5948C132.932 28.6689 131.768 28.206 130.254 28.206C128.753 28.206 127.589 28.6689 126.763 29.5948C125.938 30.5207 125.525 31.6593 125.525 33.0106C125.525 34.3619 125.938 35.5005 126.763 36.4264C127.589 37.3523 128.753 37.8153 130.254 37.8153C131.768 37.8153 132.932 37.3523 133.745 36.4264Z" fill="#003153"/>
<path d="M148.58 39.5795H150.719V26.4418H148.711L141.635 36.0511C141.648 35.7508 141.654 35.2691 141.654 34.6059V26.4418H139.515V39.5795H141.523L148.598 29.9702C148.586 30.2705 148.58 30.746 148.58 31.3966V39.5795ZM147.866 24.5274C147.103 25.0655 146.184 25.3345 145.108 25.3345C144.019 25.3345 143.093 25.0655 142.33 24.5274V22.8008C143.156 23.3388 144.082 23.6078 145.108 23.6078C146.121 23.6078 147.041 23.3388 147.866 22.8008V24.5274Z" fill="#003153"/>
<path d="M159.107 42.5636H157.155V37.6276H158.732C160.133 35.0751 160.834 31.3465 160.834 26.4418H169.298V37.6276H170.969V42.5636H169.017V39.5795H159.107V42.5636ZM162.936 28.4124C162.673 32.6666 162.048 35.7383 161.059 37.6276H167.159V28.4124H162.936Z" fill="#003153"/>
<path d="M172.477 35.5443C172.19 34.7436 172.046 33.899 172.046 33.0106C172.046 32.1223 172.19 31.2777 172.477 30.4769C172.778 29.6762 173.203 28.9567 173.754 28.3186C174.304 27.668 175.03 27.155 175.931 26.7796C176.832 26.3917 177.839 26.1978 178.952 26.1978C180.066 26.1978 181.067 26.3917 181.955 26.7796C182.856 27.155 183.582 27.668 184.132 28.3186C184.696 28.9567 185.121 29.6762 185.409 30.4769C185.709 31.2777 185.859 32.1223 185.859 33.0106C185.859 33.899 185.709 34.7436 185.409 35.5443C185.121 36.3451 184.696 37.0708 184.132 37.7214C183.582 38.3596 182.856 38.8725 181.955 39.2604C181.067 39.6358 180.066 39.8235 178.952 39.8235C177.839 39.8235 176.832 39.6358 175.931 39.2604C175.03 38.8725 174.304 38.3596 173.754 37.7214C173.203 37.0708 172.778 36.3451 172.477 35.5443ZM182.443 36.4264C183.269 35.5005 183.682 34.3619 183.682 33.0106C183.682 31.6593 183.269 30.5207 182.443 29.5948C181.63 28.6689 180.466 28.206 178.952 28.206C177.451 28.206 176.287 28.6689 175.462 29.5948C174.636 30.5207 174.223 31.6593 174.223 33.0106C174.223 34.3619 174.636 35.5005 175.462 36.4264C176.287 37.3523 177.451 37.8153 178.952 37.8153C180.466 37.8153 181.63 37.3523 182.443 36.4264Z" fill="#003153"/>
<path d="M200.131 26.4418H202.064V39.5795H199.924V30.3831L195.776 36.6141H194.5L190.352 30.3643V39.5795H188.213V26.4418H190.146L195.138 33.9678L200.131 26.4418Z" fill="#003153"/>
<path d="M51.4662 49.2316L52.2566 48.0422C52.9689 46.9216 53.6088 45.7569 54.1723 44.5552C55.0323 42.7134 55.6942 40.786 56.1469 38.8052C56.425 37.6047 56.6144 36.3854 56.7135 35.1573C56.751 34.8361 56.7595 34.5079 56.78 34.1775C56.8006 33.8472 56.8225 33.5133 56.8197 33.1738C56.8169 32.8343 56.8381 32.494 56.8197 32.1482C56.8074 31.8272 56.7956 31.5023 56.7843 31.1734C56.7097 30.435 56.6339 29.6821 56.557 28.9146C56.5364 28.7247 56.523 28.5264 56.496 28.34L56.3834 27.8127L56.1603 26.749C56.0761 26.3911 56.0371 26.0368 55.9181 25.6704C55.7991 25.3041 55.6943 24.9384 55.5817 24.5679L55.2439 23.4519C55.0938 23.0905 54.9422 22.7265 54.7892 22.3599C53.5374 19.2964 51.7222 16.4931 49.4371 14.0942L48.5462 13.1667C48.2275 12.878 47.8903 12.6055 47.5674 12.3196C47.2444 12.0338 46.9186 11.7429 46.5808 11.4726L45.5185 10.7074C45.1552 10.4625 44.8209 10.1731 44.4342 9.96134L43.2875 9.29994C42.5446 8.81783 41.7132 8.49243 40.9121 8.10491C37.6109 6.65403 34.0425 5.90471 30.4346 5.90472L29.0748 5.97177C28.5882 6.00001 28.0677 6.00636 27.6087 6.05295C26.7589 6.20471 25.9224 6.28518 25.0591 6.46588L23.7531 6.79693C23.319 6.90987 22.8749 6.98893 22.4599 7.15904L21.195 7.60586L20.5626 7.82609L19.957 8.10844C19.1574 8.49596 18.3238 8.81854 17.583 9.30841L16.4371 9.9691C16.0497 10.1809 15.7161 10.4696 15.3528 10.7145L14.2848 11.4747C13.9463 11.7479 13.6276 12.0436 13.2982 12.3218L12.3202 13.1688L11.4292 14.0998C9.14483 16.4963 7.3301 19.2973 6.07854 22.3585C4.87455 25.2914 4.27326 28.2878 4.08416 31.0992C4.0133 32.4507 4.03697 33.8055 4.15499 35.1537C4.25453 36.3816 4.44389 37.6006 4.72157 38.801C5.17373 40.7809 5.83489 42.7076 6.69399 44.5488C7.42843 46.0855 8.1055 47.2629 8.61117 48.0379L9.39943 49.2252L9.13739 48.9697C8.96954 48.7982 8.6997 48.5582 8.38525 48.2123C7.45075 47.2238 6.59809 46.1615 5.83562 45.0359C4.62426 43.2675 3.63949 41.355 2.90425 39.3431C2.43857 38.0951 2.06459 36.8151 1.78525 35.513C1.48104 34.0578 1.28902 32.5815 1.21088 31.0971C1.07793 27.7102 1.53758 24.3261 2.56926 21.0964C3.75027 17.4478 5.65271 14.0721 8.16428 11.1684C10.8696 8.03111 14.2122 5.5018 17.9711 3.74759L18.6858 3.39889L19.4315 3.11654L20.9287 2.55185C21.4245 2.34503 21.9464 2.22574 22.4642 2.08668L24.0223 1.68292C25.0846 1.44928 26.2234 1.31728 27.3255 1.14505C27.8503 1.09141 28.3226 1.08435 28.8241 1.05188L30.4346 0.970703C34.747 0.984115 39.0644 1.94268 42.8994 3.75323C46.6554 5.5092 49.995 8.03916 52.6978 11.1761C55.2076 14.0797 57.1081 17.455 58.2872 21.1027C58.4255 21.5343 58.5629 21.9623 58.6993 22.3867C58.7938 22.8229 58.8882 23.2556 58.9826 23.6848C59.0771 24.114 59.1694 24.5391 59.2596 24.9603C59.3587 25.3768 59.3729 25.8328 59.431 26.2598C59.4782 26.6918 59.5235 27.12 59.5669 27.5445C59.5886 27.7563 59.6101 27.9666 59.6314 28.1755C59.6406 28.3767 59.6314 28.5659 59.6378 28.76C59.6378 29.5317 59.6378 30.2887 59.6378 31.0308V31.1374V31.1741L59.6328 31.2447L59.6222 31.3901L59.6002 31.6788C59.5861 31.8708 59.5719 32.0616 59.5577 32.2512C59.5322 32.631 59.4727 33.0044 59.4324 33.3728C59.392 33.7413 59.3311 34.1041 59.2695 34.4613C59.2079 34.8185 59.1491 35.1707 59.0662 35.5144C58.7876 36.8158 58.4148 38.0954 57.9508 39.3431C57.2154 41.3544 56.2314 43.2665 55.0215 45.0352C54.2588 46.1624 53.4061 47.2265 52.4719 48.2172C52.1574 48.5631 51.8904 48.801 51.7219 48.9732L51.4662 49.2316Z" fill="#003153"/>
<path d="M10.8195 31.7626L13.9314 31.7514L13.9314 35.6354C13.9314 38.1153 14.5637 40.4235 15.7934 42.4447H15.794L15.8129 42.4755L15.8292 42.502C17.1766 41.8006 18.2059 40.6445 18.9617 39.4633C17.4688 39.2988 16.6934 38.6984 16.6934 38.6984C19.6798 37.2623 20.74 32.995 20.74 32.995C20.74 32.995 21.7948 37.2647 24.7829 38.6984C24.7829 38.6984 24.0117 39.297 22.5129 39.4633C23.3003 40.6892 24.3762 41.8881 25.8051 42.5797C25.8051 42.5797 24.801 43.3536 22.8707 43.5464C23.1995 44.0382 23.565 44.5048 23.9641 44.9422C25.5324 44.0147 26.767 42.6482 27.7138 41.2265C25.2753 40.9888 24.0123 40.0042 24.0123 40.0042C25.813 39.1391 27.1707 37.6178 28.1663 36.07C26.2758 35.8557 25.3025 35.1022 25.3025 35.1022C29.0727 33.2885 30.4117 27.8978 30.4117 27.8978C30.4117 27.8978 31.7458 33.2891 35.5197 35.1022C35.5197 35.1022 34.5445 35.8557 32.6546 36.07C33.646 37.6178 35.0116 39.1391 36.8122 40.0042C36.8122 40.0042 35.5474 40.9864 33.1042 41.2265C34.0551 42.6482 35.2903 44.0147 36.8593 44.9422C37.2576 44.5043 37.6228 44.0378 37.952 43.5464C36.0187 43.3536 35.017 42.5774 35.017 42.5774C36.4459 41.8858 37.5248 40.6868 38.3039 39.4609C36.8122 39.2964 36.0362 38.696 36.0362 38.696C39.0225 37.2599 40.0791 32.9926 40.0791 32.9926C40.0791 32.9926 41.1406 37.2623 44.1221 38.696C44.1221 38.696 43.3545 39.2945 41.8556 39.4609C42.5434 40.5308 43.4482 41.5803 44.6173 42.2898C45.805 40.2967 46.4147 38.0378 46.4147 35.6354L46.4147 31.7492L50.008 31.7626C51.6583 31.7626 52.1476 30.2119 50.8689 29.2374C48.6261 27.5224 46.3888 25.8073 44.1517 24.0924L44.1505 24.0915C40.3146 21.151 36.4794 18.2111 32.6186 15.2725C31.1519 14.157 29.8327 14.0373 28.3361 15.1757L9.95688 29.2374C8.67822 30.2119 9.16863 31.7626 10.8195 31.7626Z" fill="#29BB7F"/>
<path d="M44.0743 43.1242C43.6048 43.3002 42.9833 43.4696 42.2141 43.5464C42.4349 43.8768 42.6757 44.2038 42.9372 44.5195C43.3473 44.0797 43.7275 43.6143 44.0743 43.1242Z" fill="#29BB7F"/>
<path d="M18.6057 43.5488C18.3165 43.9802 17.9938 44.4054 17.6357 44.8073C17.0313 44.1883 16.4871 43.5159 16.014 42.7929C16.4559 43.0374 17.3263 43.4211 18.6057 43.5488Z" fill="#29BB7F"/>
<path d="M39.0073 50.3675C37.1449 53.3029 34.0533 55.5314 34.0533 55.5314C42.4682 58.0033 50.7096 49.8473 51.0473 49.5131C51.0544 49.5061 51.058 49.5026 51.058 49.5026C42.6472 62.6285 30.5235 61.5435 30.5235 61.5435C17.1959 61.1097 9.76817 49.5026 9.76817 49.5026C11.7378 51.2645 14.3259 52.6295 16.5859 53.5996C19.7511 54.9518 23.2974 55.1416 26.5905 54.1351C30.5491 52.9264 34.3718 51.3162 37.9983 49.3299C38.6714 48.958 39.4182 49.7206 39.0073 50.3675Z" fill="#29BB7F"/>
</svg>
