<svg width="53" height="53" viewBox="0 0 53 53" fill="none" xmlns="http://www.w3.org/2000/svg">
<path d="M52.351 49.2359L39.6094 36.4943C42.7678 32.6437 44.6714 27.7114 44.6714 22.3357C44.6714 10.0051 34.6663 0 22.3357 0C9.99429 0 0 10.0051 0 22.3357C0 34.6663 9.99429 44.6714 22.3357 44.6714C27.7114 44.6714 32.6329 42.7786 36.4835 39.6202L49.2251 52.351C50.0904 53.2163 51.4857 53.2163 52.351 52.351C53.2163 51.4965 53.2163 50.0904 52.351 49.2359ZM22.3357 40.2259C12.4604 40.2259 4.43469 32.2002 4.43469 22.3357C4.43469 12.4712 12.4604 4.43469 22.3357 4.43469C32.2002 4.43469 40.2367 12.4712 40.2367 22.3357C40.2367 32.2002 32.2002 40.2259 22.3357 40.2259Z" fill="white"/>
</svg>
