<svg width="384" height="287" viewBox="0 0 384 287" fill="none" xmlns="http://www.w3.org/2000/svg">
<g clip-path="url(#clip0_0_33)">
<path d="M187.002 -2C185.055 -1.99998 183.096 -1.9666 181.124 -1.89936C173.752 -1.64798 166.194 -1.54481 158.559 -1.44058C110.623 -0.786198 59.6355 -0.090165 32.3435 37.5855C-3.16232 86.6001 -5.7627 158.992 27.3171 209.699C49.5405 243.764 90.9021 247.994 132.682 252.268C147.726 253.806 162.825 255.351 177.103 258.295C190.282 261.013 203.576 265.123 216.797 269.21C254.135 280.753 290.895 292.117 322.868 271.457C362.412 245.905 383.979 197.201 384 149.464V289H-2V-2H187.002Z" fill="white"/>
<path d="M187.006 -2C222.623 -1.99958 254.074 9.17078 284.668 28.4736C289.796 31.709 295.064 34.916 300.37 38.1462C337.109 60.5123 375.67 83.9873 382.18 125.667C383.395 133.452 383.997 141.375 384 149.326V-2H187.006Z" fill="white"/>
<path d="M38.8856 33.1992C35.0048 36.6649 31.4162 40.5909 28.1656 45.0397C-7.1563 93.3806 -9.74321 164.778 23.1652 214.787C45.2735 248.384 86.4208 252.556 127.984 256.771C142.95 258.289 157.971 259.812 172.175 262.716C185.286 265.396 198.511 269.45 211.664 273.481C248.807 284.865 285.378 296.073 317.185 275.697C325.544 270.342 333.095 263.956 339.805 256.768C334.683 261.546 329.139 265.883 323.185 269.697C291.378 290.073 254.807 278.865 217.664 267.481C204.511 263.45 191.286 259.396 178.175 256.716C163.971 253.812 148.95 252.289 133.984 250.771C92.4208 246.556 51.2735 242.384 29.1652 208.787C-3.74321 158.778 -1.1563 87.3806 34.1656 39.0397C35.6682 36.9832 37.2431 35.0385 38.8856 33.1992Z" fill="#51B98E"/>
</g>
<defs>
<clipPath id="clip0_0_33">
<rect width="384" height="287" fill="white"/>
</clipPath>
</defs>
</svg>
