<svg width="1920" height="620" viewBox="0 0 1920 620" fill="none" xmlns="http://www.w3.org/2000/svg">
<g clip-path="url(#clip0_59_635)">
<rect width="1920" height="620" fill="#F1F3FF"/>
<path fill-rule="evenodd" clip-rule="evenodd" d="M1996.21 66.597C1953.94 62.113 1902.95 36.2028 1872.55 80.5187C1841.64 125.573 1872.61 207.828 1857.68 268.506C1841.64 333.729 1779.74 370.312 1784.23 439.513C1788.64 507.256 1842.76 537.602 1877.96 580.491C1915.56 626.313 1947.88 702.336 1996.21 697.806C2044.65 693.267 2066.5 605.163 2104.21 559.289C2139.04 516.914 2190.93 501.604 2208.44 439.632C2226.33 376.277 2213.48 302.01 2194.6 239.305C2177.08 181.145 2144.58 137.491 2107.8 105.475C2073.94 75.996 2035.26 70.7391 1996.21 66.597Z" fill="#E2E6FF" fill-opacity="0.6"/>
</g>
<defs>
<clipPath id="clip0_59_635">
<rect width="1920" height="620" fill="white"/>
</clipPath>
</defs>
</svg>
