<svg width="37" height="34" viewBox="0 0 37 34" fill="none" xmlns="http://www.w3.org/2000/svg">
<path fill-rule="evenodd" clip-rule="evenodd" d="M25.2656 5.04849C21.273 8.90105 20.6694 9.52785 20.3352 10.1689C19.9132 10.9781 19.7708 12.2847 20.0088 13.1624C20.1187 13.5674 20.1183 13.5942 20.0027 13.7035C19.9357 13.7668 19.3766 14.2501 18.7603 14.7774L17.6397 15.7363L16.4509 14.7099C15.797 14.1454 15.2621 13.6698 15.2621 13.653C15.2621 13.6362 15.3078 13.5371 15.3636 13.4328C15.5731 13.0413 15.8046 12.2242 15.8871 11.5857C16.1278 9.72234 15.3751 7.76981 13.8807 6.38025C11.2286 3.91421 8.02654 2.47432 5.48405 2.60441C4.59661 2.64984 4.11132 2.76861 3.35964 3.12426C2.56185 3.50181 1.90966 4.13204 1.51833 4.90353C1.086 5.75577 0.997455 6.16182 1.00005 7.28044C1.00197 8.09359 1.03009 8.34707 1.18495 8.94807C1.63192 10.6828 2.49424 12.2842 3.88277 13.9584C5.27856 15.6412 6.45387 16.4583 8.08601 16.8803C9.23662 17.1778 10.9046 17.0479 12.012 16.5746C12.3858 16.4149 12.417 16.4114 12.5364 16.5158C12.6062 16.5768 13.1622 17.1715 13.7721 17.8371C14.3818 18.5028 14.966 19.0816 15.0701 19.1233C15.1742 19.165 15.3376 19.1801 15.4331 19.1569C15.5822 19.1208 20.9026 14.6343 21.335 14.1802C21.5293 13.9761 21.532 13.7047 21.3446 13.2323C21.1647 12.7789 21.1024 11.9382 21.2112 11.4322C21.4097 10.5089 21.3454 10.5809 26.0494 6.02122C30.6519 1.56006 30.5229 1.70303 30.305 1.3077C30.1813 1.08325 30.0316 1.0023 29.7358 1.00005C29.4661 0.997937 29.4218 1.03808 25.2656 5.04849ZM31.4452 2.78065C31.3699 2.81245 29.7765 4.32217 27.9041 6.13563C24.7861 9.15546 24.4998 9.4512 24.4998 9.65125C24.4998 9.80454 24.5595 9.92742 24.6998 10.0631C24.959 10.3135 25.2199 10.314 25.5673 10.065C26.0329 9.73094 32.1532 3.75066 32.2286 3.55597C32.2683 3.4534 32.2827 3.29998 32.2607 3.215C32.1769 2.89247 31.7363 2.65777 31.4452 2.78065ZM7.10783 3.94906C8.73162 4.26801 10.5922 5.23228 12.2855 6.63254C13.1682 7.36244 13.5182 7.73258 13.9271 8.3687C14.4044 9.11109 14.5944 9.74126 14.6316 10.7062C14.6698 11.6955 14.5651 12.1898 14.1267 13.0923C13.8265 13.7101 13.7875 13.8542 13.8667 14.0536C13.8896 14.1112 14.535 14.695 15.3009 15.3509L16.6937 16.5434L16.0522 17.1032C15.6995 17.4111 15.3827 17.6631 15.3484 17.6631C15.3141 17.6631 14.7822 17.1104 14.1666 16.4348C13.5508 15.7593 12.9844 15.1641 12.9077 15.1122C12.6952 14.9684 12.4963 14.9968 11.9901 15.2432C11.1713 15.6416 10.7223 15.7552 9.82208 15.7912C8.78233 15.8328 8.19289 15.7205 7.35869 15.3215C6.63117 14.9737 5.97536 14.454 5.27842 13.6732C3.29334 11.4493 2.25933 9.27166 2.24284 7.28044C2.23353 6.14846 2.52045 5.36758 3.18016 4.73007C4.06308 3.87678 5.39331 3.61225 7.10783 3.94906ZM29.7182 7.76062C26.5658 10.8072 26.2789 11.1027 26.2789 11.303C26.2789 11.6074 26.3879 11.7729 26.6607 11.8831C26.8627 11.9646 26.9252 11.9647 27.1172 11.8841C27.4026 11.764 33.9118 5.4599 34.0076 5.21065C34.0608 5.0723 34.0545 4.9694 33.9824 4.80268C33.8697 4.54193 33.6976 4.43678 33.3836 4.43678C33.1763 4.43678 32.8706 4.714 29.7182 7.76062ZM30.7969 10.5466C28.4438 12.8158 26.3952 14.7456 26.2447 14.8348C25.6768 15.1716 25.1936 15.3031 24.4998 15.3093C23.942 15.3144 23.7702 15.2874 23.2895 15.1195C22.7706 14.9383 22.7143 14.9309 22.5278 15.0204C22.4158 15.0741 19.0541 18.6852 14.9578 23.152C10.9051 27.5712 7.46386 31.2838 7.31052 31.4021C6.7852 31.8074 6.03817 31.9174 5.394 31.6843C4.88661 31.5007 4.56281 31.2181 4.31852 30.7456C4.04173 30.2104 4.02421 29.5753 4.27233 29.0708C4.47974 28.649 4.50745 28.6237 8.65881 25.0758C10.5782 23.4354 12.2179 21.9997 12.3026 21.8855C12.5033 21.6144 12.4971 21.4231 12.2794 21.1732C12.0409 20.8992 11.676 20.8908 11.3503 21.1515C10.7909 21.5994 3.8021 27.6152 3.62323 27.8028C3.33494 28.1051 2.9564 28.8743 2.86909 29.3353C2.59914 30.7604 3.49137 32.2817 4.90734 32.8107C5.50061 33.0323 6.41891 33.0633 7.03434 32.8827C7.94813 32.6144 7.92897 32.633 12.9451 27.1714C15.5116 24.3768 17.6343 22.0985 17.6622 22.1087C17.69 22.1187 19.8207 24.4184 22.397 27.2191C24.9734 30.0198 27.1856 32.3766 27.3131 32.4566C27.9066 32.8289 28.3435 32.9661 29.0238 32.9936C30.0385 33.0347 30.7182 32.7988 31.4243 32.1606C32.5693 31.1255 32.7819 29.4364 31.9294 28.1483C31.6639 27.7472 31.7264 27.8024 25.6443 22.5921C22.8426 20.1921 20.9518 18.5264 20.9717 18.476C20.9902 18.4295 21.4389 17.9207 21.9688 17.3453L22.9323 16.2993L23.4252 16.4237C24.5409 16.7052 25.9982 16.4513 26.9958 15.8016C27.3315 15.5831 28.7611 14.2455 31.736 11.3668C36.2626 6.98648 36.1351 7.128 35.9161 6.73048C35.7923 6.5061 35.6427 6.42509 35.3474 6.42284C35.0783 6.42072 35.0309 6.46371 30.7969 10.5466ZM25.4236 24.0304C31.2696 29.0466 31.1118 28.8915 31.1868 29.6919C31.2451 30.3131 31.0703 30.7663 30.5953 31.2253C30.1204 31.6844 29.6514 31.8533 29.0087 31.797C28.1926 31.7254 28.3255 31.8516 23.3484 26.4255C20.8463 23.6976 18.7288 21.3913 18.643 21.3003L18.4871 21.135L19.2524 20.2945C19.6734 19.8323 20.0332 19.4533 20.052 19.4523C20.0708 19.4514 22.488 21.5115 25.4236 24.0304Z" fill="#29BB7F" stroke="#29BB7F" stroke-width="0.5"/>
</svg>
