<svg width="32" height="32" viewBox="0 0 32 32" fill="none" xmlns="http://www.w3.org/2000/svg">
<path fill-rule="evenodd" clip-rule="evenodd" d="M6.89984 4.25146C6.19598 4.36974 5.50308 4.7194 5.00816 5.20605C4.66587 5.54267 4.30531 6.11923 4.1463 6.58422C4.01101 6.9798 4.00751 7.06638 3.98754 10.5339L3.96708 14.0791L3.32893 14.1137C2.37364 14.1655 1.71196 14.4296 1.07043 15.0152C0.67332 15.3777 0.326836 15.9047 0.144676 16.4232L0 16.8349V22.0151C0 27.151 0.00112638 27.1967 0.129032 27.3652C0.360189 27.6698 0.57908 27.7889 0.907355 27.7889C1.2355 27.7889 1.45427 27.6699 1.68568 27.3654C1.79368 27.2234 1.81815 27.0859 1.83586 26.523L1.85707 25.8504H15.9882H30.1194L30.1406 26.523C30.1583 27.0859 30.1828 27.2234 30.2908 27.3654C30.5222 27.6699 30.7409 27.7889 31.0691 27.7889C31.3973 27.7889 31.6162 27.6698 31.8474 27.3652C31.9749 27.1973 31.9766 27.1357 31.994 22.1997C32.0094 17.818 31.9993 17.1496 31.9121 16.7606C31.7796 16.1696 31.52 15.6763 31.1029 15.2231C30.444 14.507 29.6924 14.1671 28.6475 14.1124L28.0094 14.0791L27.9889 10.5339C27.9689 7.06638 27.9654 6.9798 27.8301 6.58422C27.4663 5.52033 26.6187 4.70156 25.4998 4.33318C25.1724 4.22543 24.7175 4.21946 16.176 4.21078C11.2371 4.2058 7.06292 4.22407 6.89984 4.25146ZM24.9955 6.13173C25.2344 6.20151 25.4117 6.31154 25.628 6.52416C26.1319 7.01974 26.1256 6.96583 26.1256 10.7845V14.0964H24.3734C23.4098 14.0964 22.6213 14.0831 22.6213 14.067C22.6213 14.0508 22.6917 13.8313 22.7777 13.5792C22.9197 13.1632 22.9342 13.0261 22.9342 12.0944C22.9342 11.3579 22.9061 10.9612 22.8351 10.6899C22.5372 9.55386 21.5487 8.57785 20.3972 8.28289C19.8483 8.14227 12.1281 8.14227 11.5792 8.28289C10.4319 8.5768 9.43818 9.55792 9.14138 10.6899C9.0703 10.9612 9.04226 11.3579 9.04226 12.0944C9.04226 13.0261 9.05672 13.1632 9.1987 13.5792C9.28475 13.8313 9.35514 14.0508 9.35514 14.067C9.35514 14.0831 8.56668 14.0964 7.60301 14.0964H5.85088V10.7845C5.85088 7.94369 5.86496 7.4259 5.94987 7.14478C6.08522 6.69641 6.46369 6.30877 6.9158 6.1553C7.24583 6.04323 7.58931 6.03874 15.9612 6.03683C23.7031 6.03505 24.7002 6.04551 24.9955 6.13173ZM20.1509 10.15C20.4722 10.2936 20.7938 10.6098 20.9398 10.9258C21.0329 11.1274 21.0544 11.334 21.0555 12.0392C21.0568 12.8633 21.0486 12.9212 20.8848 13.2388C20.693 13.6106 20.3127 13.9315 19.9446 14.0321C19.6265 14.119 12.35 14.119 12.0318 14.0321C11.6637 13.9315 11.2834 13.6106 11.0916 13.2388C10.9279 12.9212 10.9196 12.8633 10.9209 12.0392C10.9225 11.0655 10.9857 10.8408 11.3624 10.4704C11.8212 10.0192 11.6247 10.0376 15.9882 10.0376C19.6424 10.0376 19.9158 10.0449 20.1509 10.15ZM29.0182 16.007C29.3664 16.1021 29.7593 16.4284 29.9393 16.772C30.0957 17.0705 30.0996 17.1096 30.118 18.5407L30.1368 20.0042H15.9882H1.83968L1.85845 18.5407C1.87679 17.1175 1.8816 17.069 2.03398 16.778C2.21263 16.437 2.53321 16.1568 2.88645 16.033C3.08945 15.9618 5.21147 15.9477 15.9569 15.9456C24.6092 15.9441 28.861 15.964 29.0182 16.007ZM30.1304 22.9273V24.0042H15.9882H1.846V22.9273V21.8504H15.9882H30.1304V22.9273Z" fill="#29BB7F"/>
</svg>
