<svg width="33" height="32" viewBox="0 0 33 32" fill="none" xmlns="http://www.w3.org/2000/svg">
<path fill-rule="evenodd" clip-rule="evenodd" d="M15.7588 0.0874804C15.2161 0.219173 14.8098 0.444058 14.4006 0.839387C13.7678 1.45079 13.5352 2.07406 13.5352 3.15811V3.74882H12.9525C12.0534 3.74882 11.7972 3.92414 11.537 4.71761C11.3041 5.42789 10.9111 5.9276 10.3037 6.28536C9.70812 6.63619 9.65192 6.78951 9.67854 7.99137C9.69852 8.89204 9.71334 8.99504 9.87003 9.31905C10.109 9.81314 10.4498 10.152 10.9465 10.3891L11.3733 10.5929H14.5006H17.6279L17.9902 10.4282C18.4994 10.1966 18.8491 9.86589 19.0936 9.38456C19.2995 8.97935 19.3042 8.95148 19.3254 7.993C19.3519 6.79351 19.2949 6.636 18.7091 6.28999C18.0896 5.9241 17.7708 5.53533 17.5079 4.8253C17.1543 3.8707 16.9895 3.74882 16.0514 3.74882H15.4688V3.1838C15.4688 2.49821 15.5868 2.22294 15.9704 2.01387C16.2258 1.87474 16.2468 1.87374 19.0089 1.87374C21.6693 1.87374 21.8013 1.87924 22.0446 1.99956C22.2084 2.08056 22.3453 2.21332 22.4289 2.37214C22.5565 2.6149 22.5586 2.72697 22.5586 9.43225V16.2457L17.5796 16.2631C12.0282 16.2826 12.3747 16.2558 11.6187 16.7248L11.2793 16.9353L10.9353 16.7219C10.2666 16.3071 10.0975 16.2806 8.12109 16.2806C7.14624 16.2806 6.2254 16.3042 6.07471 16.333L5.80078 16.3853V14.6897C5.80078 13.3823 5.77726 12.8836 5.69817 12.5123C5.3063 10.6725 3.8173 9.22855 1.92006 8.84853C0.920713 8.64834 0.381756 8.7684 0.129744 9.24743C0.00116016 9.49181 0 9.59319 0 20.3745C0 31.1558 0.00116016 31.2572 0.129744 31.5016C0.213275 31.6604 0.350174 31.7932 0.513949 31.8742C0.753715 31.9928 0.890742 32 2.90039 32C4.91004 32 5.04707 31.9928 5.28683 31.8742C5.45061 31.7932 5.58751 31.6604 5.67104 31.5016C5.79537 31.2652 5.80078 31.1379 5.80078 28.4399V25.6247H14.1797H22.5586V28.4399C22.5586 31.1379 22.564 31.2652 22.6883 31.5016C22.8343 31.7789 23.2056 32 23.5254 32C23.8452 32 24.2165 31.7789 24.3624 31.5016C24.4868 31.2652 24.4922 31.1379 24.4922 28.4399V25.6247H25.8457H27.1992V28.4399C27.1992 31.1379 27.2046 31.2652 27.329 31.5016C27.4125 31.6604 27.5494 31.7932 27.7132 31.8742C27.9529 31.9928 28.09 32 30.0996 32C32.1093 32 32.2463 31.9928 32.486 31.8742C32.6498 31.7932 32.7867 31.6604 32.8703 31.5016C32.9977 31.2593 33 31.1455 33 25.0365C33 20.6371 32.9786 18.7212 32.9269 18.4869C32.6899 17.4131 31.7999 16.55 30.6926 16.3202C30.4664 16.2733 29.3617 16.2493 27.4216 16.2493H24.4922V9.40837C24.4922 4.54485 24.471 2.4717 24.4191 2.23619C24.1815 1.15965 23.2888 0.293489 22.1848 0.0683546C21.6861 -0.0333997 16.1895 -0.017024 15.7588 0.0874804ZM15.917 6.02423C16.1674 6.53312 16.7203 7.21772 17.1046 7.49498L17.4023 7.70974V8.13113C17.4023 8.43095 17.3731 8.58096 17.3011 8.65084C17.2122 8.73697 16.8686 8.74903 14.502 8.74903C12.1353 8.74903 11.7917 8.73697 11.7028 8.65084C11.6308 8.58096 11.6016 8.43095 11.6016 8.13113V7.70974L11.8993 7.49498C12.2836 7.21772 12.8365 6.53312 13.0869 6.02423L13.2839 5.6239H14.502H15.72L15.917 6.02423ZM2.52991 11.0749C2.91283 11.3093 3.337 11.7627 3.53609 12.1507C3.87834 12.8175 3.86558 12.4532 3.86641 21.6089L3.86719 30.1249H2.90039H1.93359V20.4641V10.8032L2.07861 10.8454C2.15834 10.8686 2.3615 10.9719 2.52991 11.0749ZM9.79855 18.2502C10.1833 18.4406 10.3125 18.7383 10.3125 19.4345V19.9995H8.05664H5.80078L5.80349 19.4214C5.80665 18.7376 5.90868 18.4968 6.29017 18.2729C6.5358 18.1287 6.57899 18.125 8.04311 18.1247C9.42073 18.1244 9.5651 18.1348 9.79855 18.2502ZM30.5525 18.2502C30.9372 18.4406 31.0664 18.7383 31.0664 19.4345V19.9995H21.6562H12.2461L12.2488 19.4214C12.252 18.7376 12.354 18.4968 12.7355 18.2729L12.9873 18.125L21.6427 18.1247C30.1906 18.1244 30.3013 18.126 30.5525 18.2502ZM31.0664 22.8121V23.7497H18.4336H5.80078V22.8121V21.8746H18.4336H31.0664V22.8121ZM31.0664 27.8748V30.1249H30.0996H29.1328V27.8748V25.6247H30.0996H31.0664V27.8748Z" fill="#29BB7F"/>
</svg>
