<svg width="24" height="24" viewBox="0 0 24 24" fill="none" xmlns="http://www.w3.org/2000/svg">
<path fill-rule="evenodd" clip-rule="evenodd" d="M11.2968 0.0645921C9.83377 0.359059 8.67013 1.50424 8.36639 2.94857C8.21236 3.68082 8.29563 4.102 8.63548 4.3092C8.77788 4.39605 8.87372 4.40243 10.0426 4.40257L11.2968 4.40276V5.22345C11.2968 5.86167 11.2834 6.04415 11.2364 6.04415C11.0813 6.04415 10.0615 6.18644 9.72606 6.25486C6.81644 6.84858 4.22913 8.6188 2.56275 11.1559C2.17456 11.747 1.61532 12.8764 1.38796 13.5286C1.09158 14.3787 0.793787 15.7929 0.793787 16.3502C0.793787 16.533 0.788395 16.5393 0.586774 16.5901C0.0589485 16.723 -0.171134 17.2952 0.142738 17.6943C0.3121 17.9096 0.464441 17.956 1.00244 17.956H1.49712V18.8229V19.6898L1.20683 19.8364C0.657481 20.1137 0.226997 20.6555 0.0666383 21.2713C-0.23659 22.4356 0.52699 23.6751 1.70811 23.9359C1.99957 24.0003 3.17029 24.0069 12.1643 23.9953L22.2922 23.9823L22.5653 23.8721C23.8125 23.3689 24.3464 21.9554 23.7408 20.7601C23.5757 20.4342 23.1087 19.9797 22.7728 19.818L22.5032 19.6883V18.8221V17.956H22.9979C23.5359 17.956 23.6882 17.9096 23.8576 17.6943C24.1715 17.2952 23.9414 16.723 23.4136 16.5901C23.2108 16.539 23.2065 16.534 23.206 16.3442C23.2052 16.0298 23.0347 15.0195 22.8845 14.4387C21.9147 10.6908 19.0078 7.653 15.3058 6.51884C14.562 6.29097 13.8769 6.15642 12.9965 6.0653L12.7035 6.03496V5.21886V4.40276L13.9578 4.40257C15.1266 4.40243 15.2224 4.39605 15.3648 4.3092C15.6118 4.15866 15.704 3.9607 15.7038 3.58206C15.7032 2.17923 14.6949 0.762889 13.3303 0.2481C12.6778 0.00193762 11.9393 -0.064703 11.2968 0.0645921ZM12.5413 1.47319C13.1966 1.64165 13.7691 2.09369 14.0572 2.67024L14.2082 2.9724L13.1042 2.98496C12.497 2.9919 11.5033 2.9919 10.8961 2.98496L9.79213 2.9724L9.94311 2.67024C10.4104 1.73516 11.5385 1.2154 12.5413 1.47319ZM13.1736 7.50035C17.1143 7.98939 20.4192 10.821 21.4701 14.6089C21.6195 15.1475 21.7999 16.1214 21.7999 16.3896V16.5491H12.0002H2.20044V16.3896C2.20044 16.1214 2.38083 15.1475 2.53026 14.6089C3.57531 10.8421 6.86802 8.00595 10.7811 7.50218C11.2288 7.44454 12.7147 7.44342 13.1736 7.50035ZM21.086 18.7884L21.0988 19.5974H12.0013H2.90377V18.808C2.90377 18.3738 2.91789 18.0044 2.93514 17.9871C2.9524 17.9699 7.04052 17.9611 12.0198 17.9676L21.0731 17.9794L21.086 18.7884ZM22.1721 21.0966C22.4714 21.2493 22.6422 21.616 22.5768 21.965C22.5387 22.168 22.3011 22.4494 22.0952 22.5354C21.9694 22.588 20.2462 22.5988 12.0047 22.5988C5.09652 22.5988 2.02564 22.5836 1.93388 22.5489C1.63698 22.4367 1.40334 22.1012 1.40334 21.787C1.40334 21.5488 1.59141 21.2324 1.80541 21.1106L1.98945 21.0059L11.9903 21.0051C21.8468 21.0043 21.9938 21.0056 22.1721 21.0966Z" fill="#51B98E"/>
</svg>
