<svg width="24" height="24" viewBox="0 0 24 24" fill="none" xmlns="http://www.w3.org/2000/svg">
<path fill-rule="evenodd" clip-rule="evenodd" d="M5.17488 3.18884C4.64699 3.27755 4.12731 3.5398 3.75612 3.90478C3.4994 4.15725 3.22898 4.58967 3.10973 4.93841C3.00826 5.23509 3.00563 5.30003 2.99066 7.90065L2.97531 10.5596L2.4967 10.5855C1.78023 10.6244 1.28397 10.8225 0.802822 11.2617C0.50499 11.5336 0.245127 11.9288 0.108507 12.3177L0 12.6264V16.5115C0 20.3635 0.000844785 20.3977 0.0967741 20.5242C0.270142 20.7526 0.43431 20.8419 0.680516 20.8419C0.926629 20.8419 1.0907 20.7527 1.26426 20.5243C1.34526 20.4178 1.36361 20.3147 1.3769 19.8925L1.39281 19.3881H11.9912H22.5895L22.6054 19.8925C22.6187 20.3147 22.6371 20.4178 22.7181 20.5243C22.8916 20.7527 23.0557 20.8419 23.3018 20.8419C23.548 20.8419 23.7121 20.7526 23.8856 20.5242C23.9812 20.3982 23.9825 20.352 23.9955 16.65C24.0071 13.3638 23.9995 12.8625 23.9341 12.5707C23.8347 12.1274 23.64 11.7575 23.3272 11.4176C22.833 10.8805 22.2693 10.6256 21.4856 10.5846L21.007 10.5596L20.9917 7.90065C20.9767 5.30003 20.9741 5.23509 20.8726 4.93841C20.5997 4.1405 19.964 3.52641 19.1249 3.25013C18.8793 3.16931 18.5381 3.16484 12.132 3.15833C8.42784 3.15459 5.29719 3.1683 5.17488 3.18884ZM18.7466 4.59904C18.9258 4.65138 19.0588 4.7339 19.221 4.89337C19.5989 5.26505 19.5942 5.22462 19.5942 8.08863V10.5726H18.2801C17.5573 10.5726 16.966 10.5626 16.966 10.5505C16.966 10.5383 17.0188 10.3737 17.0833 10.1846C17.1898 9.87264 17.2006 9.76981 17.2006 9.07108C17.2006 8.5187 17.1796 8.22114 17.1263 8.01765C16.9029 7.16564 16.1615 6.43363 15.2979 6.21241C14.8862 6.10695 9.09611 6.10695 8.68442 6.21241C7.82392 6.43285 7.07864 7.16868 6.85604 8.01765C6.80272 8.22114 6.7817 8.5187 6.7817 9.07108C6.7817 9.76981 6.79254 9.87264 6.89903 10.1846C6.96356 10.3737 7.01636 10.5383 7.01636 10.5505C7.01636 10.5626 6.42501 10.5726 5.70226 10.5726H4.38816V8.08863C4.38816 5.95801 4.39872 5.56967 4.4624 5.35883C4.56392 5.02255 4.84776 4.73183 5.18685 4.61672C5.43437 4.53267 5.69198 4.5293 11.9709 4.52787C17.7773 4.52653 18.5252 4.53438 18.7466 4.59904ZM15.1132 7.61274C15.3542 7.72041 15.5954 7.9576 15.7049 8.1946C15.7747 8.34581 15.7908 8.50075 15.7916 9.02968C15.7926 9.64768 15.7864 9.69116 15.6636 9.92936C15.5198 10.2082 15.2346 10.4489 14.9585 10.5243C14.7199 10.5895 9.26248 10.5895 9.02388 10.5243C8.74778 10.4489 8.46257 10.2082 8.31873 9.92936C8.1959 9.69116 8.18971 9.64768 8.1907 9.02968C8.19187 8.29938 8.23927 8.13087 8.5218 7.85302C8.86591 7.51461 8.71849 7.52841 11.9912 7.52841C14.7318 7.52841 14.9368 7.53395 15.1132 7.61274ZM21.7636 12.0055C22.0248 12.0768 22.3195 12.3215 22.4545 12.5793C22.5717 12.8031 22.5747 12.8324 22.5885 13.9058L22.6026 15.0034H11.9912H1.37976L1.39384 13.9058C1.40759 12.8384 1.4112 12.802 1.52548 12.5838C1.65947 12.328 1.89991 12.1179 2.16484 12.025C2.31709 11.9716 3.9086 11.961 11.9677 11.9595C18.4569 11.9583 21.6457 11.9733 21.7636 12.0055ZM22.5978 17.1957V18.0034H11.9912H1.3845V17.1957V16.388H11.9912H22.5978V17.1957Z" fill="#51B98E"/>
</svg>
