<svg width="73" height="79" viewBox="0 0 73 79" fill="none" xmlns="http://www.w3.org/2000/svg">
<path fill-rule="evenodd" clip-rule="evenodd" d="M11.7079 -54.999C19.5304 -62.813 32.3278 -61.8712 42.7625 -65.5021C52.6692 -68.9492 61.5766 -76.1108 72.0631 -75.9999C82.5735 -75.8888 92.3892 -70.6088 101.212 -64.884C109.559 -59.4673 114.919 -50.8969 121.814 -43.7164C129.087 -36.1433 138.844 -30.6449 143.25 -21.1076C147.789 -11.28 148.276 0.0509806 147 10.8043C145.717 21.6159 142.53 32.5246 135.863 41.1226C129.358 49.5128 118.95 53.4144 109.799 58.7825C101.126 63.8698 92.6403 68.929 83.0945 72.0771C72.727 75.4962 61.7201 81.2362 51.2683 78.0852C40.7511 74.9145 18.7971 78.8114 10.1109 72.0771C1.45042 65.3628 1.99995 43.5 1.99995 35C2 26.5 1.8074 -27.8892 1.99999 -39C2.17376 -49.0246 -0.102305 -14.0265 1.18469 -23.9694C2.60243 -34.9223 3.90144 -47.201 11.7079 -54.999Z" fill="#FE8DA1"/>
</svg>
