<svg width="379" height="136" viewBox="0 0 379 136" fill="none" xmlns="http://www.w3.org/2000/svg">
<g clip-path="url(#clip0_59_1006)">
<rect width="379" height="136" rx="10" fill="#F1F3FF"/>
<path fill-rule="evenodd" clip-rule="evenodd" d="M318.097 -56.9977C325.92 -64.8118 338.717 -63.87 349.152 -67.5008C359.058 -70.9479 367.966 -78.1096 378.452 -77.9987C388.963 -77.8876 398.778 -72.6076 407.601 -66.8828C415.948 -61.4661 421.308 -52.8957 428.204 -45.7152C435.476 -38.1421 445.233 -32.6437 449.639 -23.1063C454.179 -13.2788 454.665 -1.94779 453.389 8.80552C452.106 19.6171 448.919 30.5258 442.252 39.1238C435.747 47.514 425.339 51.4156 416.188 56.7837C407.516 61.871 399.029 66.9302 389.484 70.0783C379.116 73.4974 368.109 79.2374 357.657 76.0864C347.14 72.9157 342.892 60.1477 334.206 53.4134C325.546 46.699 311.251 46.3002 306.492 36.4189C301.672 26.4107 310.053 14.7717 310.245 3.66091C310.419 -6.36372 306.287 -16.0253 307.574 -25.9682C308.992 -36.9211 310.291 -49.1998 318.097 -56.9977Z" fill="#FE8DA1"/>
</g>
<defs>
<clipPath id="clip0_59_1006">
<rect width="379" height="136" rx="10" fill="white"/>
</clipPath>
</defs>
</svg>
