<svg width="379" height="136" viewBox="0 0 379 136" fill="none" xmlns="http://www.w3.org/2000/svg">
<g clip-path="url(#clip0_59_1006)">
<rect width="379" height="136" rx="10" fill="#F1F3FF"/>
<path fill-rule="evenodd" clip-rule="evenodd" d="M-2.05032 -40.4669C24.1999 -54.4314 67.144 -52.7483 102.16 -59.237C135.404 -65.3973 165.294 -78.1959 200.484 -77.9977C235.754 -77.7991 268.692 -68.3632 298.297 -58.1324C326.309 -48.4524 344.296 -33.1362 367.435 -20.304C391.839 -6.77001 424.581 3.05613 439.365 20.1003C454.6 37.663 456.233 57.9126 451.95 77.1299C447.644 96.4512 436.95 115.946 414.579 131.312C392.748 146.306 357.823 153.278 327.115 162.871C298.012 171.963 269.535 181.004 237.502 186.63C202.712 192.74 165.776 202.998 130.703 197.367C95.4102 191.701 81.1558 168.883 52.0073 156.848C22.9454 144.849 -25.0225 144.137 -40.9919 126.478C-57.1662 108.592 -29.0443 87.792 -28.398 67.936C-27.8149 50.021 -41.6818 32.7547 -37.363 14.9859C-32.6054 -4.58808 -28.2464 -26.5313 -2.05032 -40.4669Z" fill="#FE8DA1"/>
</g>
<defs>
<clipPath id="clip0_59_1006">
<rect width="379" height="136" rx="10" fill="white"/>
</clipPath>
</defs>
</svg>
