<svg width="74" height="77" viewBox="0 0 74 77" fill="none" xmlns="http://www.w3.org/2000/svg">
<path fill-rule="evenodd" clip-rule="evenodd" d="M13.097 -56.9977C20.9196 -64.8118 33.7169 -63.87 44.1517 -67.5008C54.0584 -70.9479 62.9657 -78.1096 73.4522 -77.9987C83.9626 -77.8876 93.7783 -72.6076 102.601 -66.8828C110.948 -61.4661 116.308 -52.8957 123.204 -45.7152C130.476 -38.1421 140.233 -32.6437 144.639 -23.1063C149.179 -13.2788 149.665 -1.9478 148.389 8.80552C147.106 19.6171 143.919 30.5258 137.252 39.1238C130.747 47.514 120.339 51.4156 111.188 56.7837C102.516 61.871 94.0294 66.9302 84.4836 70.0783C74.1161 73.4974 63.1092 79.2374 52.6575 76.0864C42.1402 72.9157 37.8924 60.1477 29.2062 53.4134C20.5457 46.699 6.25131 46.3002 1.49242 36.4189C-3.32753 26.4107 5.05279 14.7717 5.24539 3.66091C5.41915 -6.36372 1.28684 -16.0253 2.57384 -25.9682C3.99158 -36.9211 5.29058 -49.1998 13.097 -56.9977Z" fill="#FE8DA1"/>
</svg>
