<svg width="153" height="27" viewBox="0 0 153 27" fill="none" xmlns="http://www.w3.org/2000/svg">
<path d="M12.6187 1.47553C12.7677 1.01349 13.4214 1.01349 13.5705 1.47553L15.9074 8.72164C15.9741 8.92857 16.1669 9.06865 16.3843 9.06817L23.9979 9.05153C24.4834 9.05047 24.6854 9.67218 24.292 9.95668L18.1227 14.4184C17.9465 14.5458 17.8729 14.7725 17.9405 14.9791L20.3091 22.2149C20.4601 22.6763 19.9313 23.0605 19.5391 22.7743L13.3894 18.2857C13.2138 18.1575 12.9754 18.1575 12.7998 18.2857L6.65006 22.7743C6.25793 23.0605 5.72907 22.6763 5.8801 22.2149L8.24866 14.9791C8.31629 14.7725 8.24265 14.5458 8.06647 14.4184L1.89715 9.95668C1.50377 9.67218 1.70578 9.05047 2.19126 9.05153L9.80486 9.06817C10.0223 9.06865 10.2151 8.92857 10.2818 8.72164L12.6187 1.47553Z" fill="#FE8DA1"/>
<path d="M44.3214 1.47553C44.4704 1.01349 45.1241 1.01349 45.2731 1.47553L47.61 8.72164C47.6767 8.92857 47.8695 9.06865 48.087 9.06817L55.7006 9.05153C56.186 9.05047 56.3881 9.67218 55.9947 9.95668L49.8253 14.4184C49.6492 14.5458 49.5755 14.7725 49.6432 14.9791L52.0117 22.2149C52.1628 22.6763 51.6339 23.0605 51.2418 22.7743L45.092 18.2857C44.9164 18.1575 44.6781 18.1575 44.5025 18.2857L38.3527 22.7743C37.9606 23.0605 37.4317 22.6763 37.5827 22.2149L39.9513 14.9791C40.0189 14.7725 39.9453 14.5458 39.7691 14.4184L33.5998 9.95668C33.2064 9.67218 33.4084 9.05047 33.8939 9.05153L41.5075 9.06817C41.7249 9.06865 41.9177 8.92857 41.9845 8.72164L44.3214 1.47553Z" fill="#FE8DA1"/>
<path d="M76.0242 1.47553C76.1733 1.01349 76.827 1.01349 76.976 1.47553L79.3129 8.72164C79.3796 8.92857 79.5724 9.06865 79.7898 9.06817L87.4035 9.05153C87.8889 9.05047 88.0909 9.67218 87.6976 9.95668L81.5282 14.4184C81.3521 14.5458 81.2784 14.7725 81.3461 14.9791L83.7146 22.2149C83.8656 22.6763 83.3368 23.0605 82.9446 22.7743L76.7949 18.2857C76.6193 18.1575 76.381 18.1575 76.2053 18.2857L70.0556 22.7743C69.6634 23.0605 69.1346 22.6763 69.2856 22.2149L71.6542 14.9791C71.7218 14.7725 71.6482 14.5458 71.472 14.4184L65.3027 9.95668C64.9093 9.67218 65.1113 9.05047 65.5968 9.05153L73.2104 9.06817C73.4278 9.06865 73.6206 8.92857 73.6873 8.72164L76.0242 1.47553Z" fill="#FE8DA1"/>
<path d="M107.727 1.47553C107.876 1.01349 108.53 1.01349 108.679 1.47553L111.016 8.72164C111.082 8.92857 111.275 9.06865 111.492 9.06817L119.106 9.05153C119.592 9.05047 119.794 9.67218 119.4 9.95668L113.231 14.4184C113.055 14.5458 112.981 14.7725 113.049 14.9791L115.417 22.2149C115.568 22.6763 115.039 23.0605 114.647 22.7743L108.498 18.2857C108.322 18.1575 108.084 18.1575 107.908 18.2857L101.758 22.7743C101.366 23.0605 100.837 22.6763 100.988 22.2149L103.357 14.9791C103.424 14.7725 103.351 14.5458 103.175 14.4184L97.0053 9.95668C96.6119 9.67218 96.8139 9.05047 97.2994 9.05153L104.913 9.06817C105.13 9.06865 105.323 8.92857 105.39 8.72164L107.727 1.47553Z" fill="#FE8DA1"/>
<path d="M139.81 1.5983C139.82 1.5677 139.834 1.5539 139.846 1.54595C139.86 1.53624 139.881 1.529 139.905 1.529C139.93 1.529 139.951 1.53624 139.965 1.54595C139.977 1.5539 139.991 1.5677 140.001 1.5983L142.337 8.84442C142.458 9.21688 142.805 9.46903 143.196 9.46817L150.81 9.45153C150.842 9.45146 150.859 9.4605 150.87 9.46913C150.884 9.47965 150.897 9.49716 150.905 9.52063C150.913 9.54409 150.912 9.56608 150.907 9.58261C150.903 9.59615 150.894 9.61372 150.868 9.63256L144.699 14.0943C144.382 14.3236 144.249 14.7316 144.371 15.1035L146.74 22.3393C146.75 22.3699 146.747 22.3893 146.742 22.4026C146.736 22.4188 146.723 22.4369 146.703 22.4514C146.684 22.4659 146.662 22.4722 146.645 22.4727C146.631 22.4731 146.612 22.4702 146.586 22.4512L140.436 17.9626C140.12 17.7319 139.691 17.7319 139.375 17.9626L133.225 22.4512C133.199 22.4702 133.18 22.4731 133.166 22.4727C133.148 22.4722 133.127 22.4659 133.107 22.4514C133.087 22.4369 133.075 22.4188 133.069 22.4026C133.064 22.3893 133.061 22.3699 133.071 22.3393L135.44 15.1035C135.561 14.7316 135.429 14.3236 135.112 14.0943L128.942 9.63256C128.916 9.61372 128.908 9.59615 128.904 9.58261C128.899 9.56608 128.898 9.54409 128.906 9.52063C128.913 9.49716 128.927 9.47965 128.94 9.46913C128.952 9.4605 128.969 9.45146 129.001 9.45153L136.615 9.46817C137.006 9.46903 137.353 9.21688 137.473 8.84442L139.81 1.5983Z" fill="url(#paint0_linear_59_442)" stroke="#FE8DA1" stroke-width="0.8"/>
<defs>
<linearGradient id="paint0_linear_59_442" x1="129.568" y1="9.64865" x2="150.243" y2="9.64865" gradientUnits="userSpaceOnUse">
<stop offset="0.404167" stop-color="#FE8DA1"/>
<stop offset="0.404267" stop-color="#FF4E36" stop-opacity="0"/>
</linearGradient>
</defs>
</svg>
