<svg width="135" height="23" viewBox="0 0 135 23" fill="none" xmlns="http://www.w3.org/2000/svg">
<path d="M11.0241 1.47553C11.1731 1.01349 11.8269 1.01349 11.9759 1.47553L13.9566 7.61727C14.0233 7.82419 14.2161 7.96427 14.4336 7.9638L20.8868 7.94969C21.3723 7.94863 21.5743 8.57034 21.1809 8.85484L15.9518 12.6365C15.7757 12.764 15.702 12.9906 15.7696 13.1972L17.7772 19.3303C17.9282 19.7916 17.3994 20.1759 17.0073 19.8897L11.7948 16.0852C11.6192 15.957 11.3808 15.957 11.2052 16.0852L5.99275 19.8897C5.60061 20.1759 5.07175 19.7916 5.22278 19.3303L7.23035 13.1972C7.29799 12.9906 7.22434 12.764 7.04817 12.6365L1.81911 8.85484C1.42573 8.57034 1.62774 7.94863 2.11321 7.94969L8.56644 7.9638C8.78385 7.96427 8.97666 7.82419 9.04339 7.61727L11.0241 1.47553Z" fill="#FE8DA1"/>
<path d="M39.0241 1.47553C39.1731 1.01349 39.8269 1.01349 39.9759 1.47553L41.9566 7.61727C42.0233 7.82419 42.2161 7.96427 42.4336 7.9638L48.8868 7.94969C49.3723 7.94863 49.5743 8.57034 49.1809 8.85484L43.9518 12.6365C43.7757 12.764 43.702 12.9906 43.7696 13.1972L45.7772 19.3303C45.9282 19.7916 45.3994 20.1759 45.0073 19.8897L39.7948 16.0852C39.6192 15.957 39.3808 15.957 39.2052 16.0852L33.9927 19.8897C33.6006 20.1759 33.0718 19.7916 33.2228 19.3303L35.2304 13.1972C35.298 12.9906 35.2243 12.764 35.0482 12.6365L29.8191 8.85484C29.4257 8.57034 29.6277 7.94863 30.1132 7.94969L36.5664 7.9638C36.7839 7.96427 36.9767 7.82419 37.0434 7.61727L39.0241 1.47553Z" fill="#FE8DA1"/>
<path d="M67.0241 1.47553C67.1731 1.01349 67.8269 1.01349 67.9759 1.47553L69.9566 7.61727C70.0233 7.82419 70.2161 7.96427 70.4336 7.9638L76.8868 7.94969C77.3723 7.94863 77.5743 8.57034 77.1809 8.85484L71.9518 12.6365C71.7757 12.764 71.702 12.9906 71.7696 13.1972L73.7772 19.3303C73.9282 19.7916 73.3994 20.1759 73.0073 19.8897L67.7948 16.0852C67.6192 15.957 67.3808 15.957 67.2052 16.0852L61.9927 19.8897C61.6006 20.1759 61.0718 19.7916 61.2228 19.3303L63.2304 13.1972C63.298 12.9906 63.2243 12.764 63.0482 12.6365L57.8191 8.85484C57.4257 8.57034 57.6277 7.94863 58.1132 7.94969L64.5664 7.9638C64.7839 7.96427 64.9767 7.82419 65.0434 7.61727L67.0241 1.47553Z" fill="#FE8DA1"/>
<path d="M95.0241 1.47553C95.1731 1.01349 95.8269 1.01349 95.9759 1.47553L97.9566 7.61727C98.0233 7.82419 98.2161 7.96427 98.4336 7.9638L104.887 7.94969C105.372 7.94863 105.574 8.57034 105.181 8.85484L99.9518 12.6365C99.7757 12.764 99.702 12.9906 99.7696 13.1972L101.777 19.3303C101.928 19.7916 101.399 20.1759 101.007 19.8897L95.7948 16.0852C95.6192 15.957 95.3808 15.957 95.2052 16.0852L89.9927 19.8897C89.6006 20.1759 89.0718 19.7916 89.2228 19.3303L91.2304 13.1972C91.298 12.9906 91.2243 12.764 91.0482 12.6365L85.8191 8.85484C85.4257 8.57034 85.6277 7.94863 86.1132 7.94969L92.5664 7.9638C92.7839 7.96427 92.9767 7.82419 93.0434 7.61727L95.0241 1.47553Z" fill="#FE8DA1"/>
<path d="M123.405 1.5983C123.415 1.5677 123.429 1.5539 123.44 1.54595C123.455 1.53624 123.475 1.529 123.5 1.529C123.525 1.529 123.545 1.53624 123.56 1.54595C123.571 1.5539 123.585 1.5677 123.595 1.5983L125.576 7.74004C125.696 8.11251 126.043 8.36465 126.434 8.3638L132.888 8.34969C132.92 8.34962 132.937 8.35867 132.948 8.36729C132.962 8.37781 132.975 8.39532 132.983 8.41879C132.991 8.44226 132.99 8.46424 132.985 8.48077C132.981 8.49431 132.973 8.51188 132.946 8.53072L127.717 12.3124C127.4 12.5418 127.268 12.9497 127.389 13.3217L129.397 19.4547C129.407 19.4853 129.404 19.5046 129.399 19.5179C129.393 19.5341 129.381 19.5522 129.361 19.5667C129.341 19.5812 129.32 19.5876 129.303 19.5881C129.288 19.5885 129.269 19.5855 129.243 19.5666L124.031 15.7621C123.714 15.5313 123.286 15.5313 122.969 15.7621L117.757 19.5666C117.731 19.5855 117.712 19.5885 117.697 19.5881C117.68 19.5876 117.659 19.5812 117.639 19.5667C117.619 19.5522 117.607 19.5341 117.601 19.5179C117.596 19.5046 117.593 19.4853 117.603 19.4547L119.611 13.3217C119.732 12.9497 119.6 12.5418 119.283 12.3124L114.054 8.53072C114.027 8.51188 114.019 8.49431 114.015 8.48077C114.01 8.46424 114.009 8.44226 114.017 8.41879C114.025 8.39532 114.038 8.37781 114.052 8.36729C114.063 8.35867 114.08 8.34962 114.112 8.34969L120.566 8.3638C120.957 8.36465 121.304 8.1125 121.424 7.74004L123.405 1.5983Z" fill="url(#paint0_linear_160_1739)" stroke="#FE8DA1" stroke-width="0.8"/>
<defs>
<linearGradient id="paint0_linear_160_1739" x1="114.421" y1="8.47368" x2="132.579" y2="8.47368" gradientUnits="userSpaceOnUse">
<stop offset="0.404167" stop-color="#FE8DA1"/>
<stop offset="0.404267" stop-color="#FF4E36" stop-opacity="0"/>
</linearGradient>
</defs>
</svg>
