<svg width="28" height="28" viewBox="0 0 28 28" fill="none" xmlns="http://www.w3.org/2000/svg">
<path fill-rule="evenodd" clip-rule="evenodd" d="M21.4409 6.56592C19.4653 4.59033 16.8403 3.5 14.0444 3.5C8.28174 3.5 3.58887 8.18945 3.58887 13.9521C3.58545 15.7944 4.06738 17.5923 4.9834 19.1782L3.5 24.5957L9.04395 23.1396C10.5684 23.9736 12.291 24.4111 14.041 24.4146H14.0444C19.8071 24.4146 24.4966 19.7251 24.5 13.959C24.5 11.1665 23.4131 8.5415 21.4409 6.56592ZM14.0444 22.6475H14.041C12.4824 22.6475 10.9512 22.2271 9.61817 21.4375L9.30029 21.2495L6.00879 22.1108L6.88721 18.9048L6.68213 18.5767C5.81055 17.1924 5.35254 15.5928 5.35254 13.9521C5.35254 9.16357 9.25244 5.26709 14.0479 5.26709C16.3687 5.26709 18.5493 6.17285 20.1899 7.81348C21.8306 9.45752 22.7329 11.6382 22.7329 13.959C22.7329 18.751 18.833 22.6475 14.0444 22.6475ZM18.8091 16.1396C18.5493 16.0098 17.2642 15.3774 17.0249 15.292C16.7856 15.2031 16.6113 15.1621 16.437 15.4219C16.2627 15.6851 15.7637 16.2729 15.6099 16.4473C15.4595 16.6182 15.3057 16.6421 15.0459 16.5122C14.7827 16.3823 13.9419 16.1055 12.9438 15.2134C12.168 14.5229 11.6416 13.665 11.4912 13.4053C11.3374 13.1421 11.4741 13.002 11.604 12.8721C11.7236 12.7559 11.8672 12.5679 11.9971 12.4141C12.127 12.2637 12.1714 12.1543 12.2603 11.98C12.3457 11.8057 12.3013 11.6519 12.2363 11.522C12.1714 11.3921 11.6484 10.1035 11.4297 9.58057C11.2178 9.07129 11.0024 9.14307 10.8418 9.13281C10.6914 9.12598 10.5171 9.12598 10.3428 9.12598C10.1685 9.12598 9.88477 9.19092 9.64551 9.4541C9.40625 9.71387 8.73291 10.3462 8.73291 11.6313C8.73291 12.9165 9.66943 14.1606 9.79932 14.335C9.9292 14.5059 11.6416 17.1445 14.2632 18.2759C14.8853 18.5459 15.3706 18.7065 15.75 18.8262C16.3755 19.0244 16.9463 18.9971 17.3975 18.9321C17.8999 18.8569 18.9424 18.2998 19.1611 17.688C19.3765 17.0796 19.3765 16.5566 19.3115 16.4473C19.2466 16.3379 19.0723 16.2729 18.8091 16.1396Z" fill="#27BA3E"/>
</svg>
