<svg width="72" height="72" viewBox="0 0 72 72" fill="none" xmlns="http://www.w3.org/2000/svg">
<rect width="72" height="72" rx="10" fill="#FE8DA1"/>
<path fill-rule="evenodd" clip-rule="evenodd" d="M34.8689 6.11642C31.9391 6.49223 29.2506 7.83378 27.1647 9.96086C26.6017 10.535 25.911 11.3518 25.6299 11.7758C24.5028 13.4762 23.6976 15.5667 23.4391 17.4636C23.3051 18.4474 23.2943 18.4711 23.0014 18.4176C22.8362 18.3874 22.1933 18.2692 21.5728 18.155C19.6869 17.8077 18.588 18.1355 17.9701 19.23C17.7229 19.6678 17.6932 19.8644 17.7121 20.936C17.7239 21.6021 17.8384 23.0948 17.9665 24.2531L18.1996 26.359L16.6252 27.947C15.0008 29.5853 14.1067 30.7087 13.2154 32.2315C12.9321 32.7155 12.6422 33.1572 12.5711 33.213C12.5 33.2689 11.6634 33.4668 10.7121 33.6528C9.76071 33.8388 8.70604 34.0939 8.36833 34.2195C7.53781 34.5285 6.74153 35.2687 6.33474 36.1095L6 36.8016V41.7671C6 47.386 6.00704 47.4366 6.93621 48.46C7.71699 49.3199 8.18247 49.5221 10.4735 49.9969C11.6217 50.2347 12.6025 50.4968 12.6531 50.5794C12.7037 50.6619 13.0526 51.2373 13.4285 51.8581C13.8044 52.4789 14.3577 53.2947 14.6579 53.671L15.2039 54.3553L14.9722 55.0857C14.8364 55.5136 14.7153 56.3243 14.6796 57.0435C14.6022 58.6018 14.8434 59.7984 15.5186 61.2055C15.9155 62.0328 16.2124 62.4371 17.0306 63.2644C18.1968 64.4436 18.9977 64.962 20.4263 65.4619C23.7196 66.6143 27.1353 65.8992 29.9183 63.4746L30.9323 62.5911L31.5884 62.6768C33.931 62.9822 36.8912 62.903 39.4343 62.4669L40.5401 62.2773L41.6334 63.3222C42.5112 64.1611 42.9634 64.4858 43.9274 64.9694C45.3599 65.6878 46.3706 65.9239 48.0273 65.9268C49.6421 65.9294 50.7001 65.6801 52.2129 64.94C53.2812 64.4172 53.596 64.1887 54.4926 63.2842C55.3359 62.4336 55.6262 62.0401 56.0261 61.2055C56.7004 59.7984 56.9194 58.8573 56.9139 57.3905C56.9088 55.9926 56.6956 55.0448 56.0783 53.6737L55.6566 52.7371L56.2862 51.7408C58.0732 48.9126 58.9853 45.8836 59.1088 42.3678C59.1997 39.7786 58.8481 37.7124 57.9577 35.6036L57.7404 35.089L59.0109 35.1422C60.5489 35.2065 61.3873 35.0219 62.8391 34.2993C65.8638 32.794 67.5465 29.2105 66.8396 25.7804C66.4849 24.0599 65.1379 21.9113 64.2213 21.6043C63.3907 21.3259 62.4842 22.1115 62.6522 22.964C62.6912 23.1618 62.9308 23.5766 63.1848 23.8859C64.2249 25.1522 64.6772 26.7315 64.4259 28.2205C63.8483 31.6434 60.3236 33.6164 57.2364 32.2449C56.317 31.8364 55.8012 31.3939 54.8906 30.2326C53.3108 28.218 51.6226 26.6347 49.5718 25.2443C49.0634 24.8995 48.6473 24.5752 48.6473 24.5238C48.6473 24.4722 48.7833 24.0254 48.9493 23.5308C50.0366 20.2942 49.7408 16.4277 48.1681 13.3141C46.1465 9.3123 42.2814 6.60752 37.8711 6.10818C36.5791 5.96188 36.0626 5.96333 34.8689 6.11642ZM39.1635 8.87267C41.1445 9.39684 43.2314 10.724 44.5703 12.3109C46.2509 14.3027 47.0965 16.6628 47.0965 19.3615C47.0965 21.4543 46.6008 23.2574 45.5255 25.0763C45.0038 25.9586 43.7783 27.2987 42.8189 28.0361L42.0506 28.6265H36.4899H30.929L30.288 28.1881C28.3343 26.8525 26.7594 24.518 26.0897 21.9653C25.7449 20.6512 25.7116 18.2358 26.0207 16.96C26.7652 13.887 28.6926 11.3265 31.3615 9.86506C32.4586 9.26422 33.0348 9.04877 34.3321 8.75398C35.654 8.45362 37.7773 8.50582 39.1635 8.87267ZM35.4654 11.7885C33.7121 12.0671 32.4709 12.704 31.2203 13.9667C30.1528 15.0447 29.5352 16.1029 29.2021 17.4251C28.2374 21.2549 30.196 25.0358 33.9177 26.5284C34.6831 26.8353 34.8834 26.8623 36.4197 26.8662C37.9312 26.8701 38.1712 26.8403 38.9459 26.5526C41.6727 25.5403 43.477 23.2469 43.9079 20.2453C44.3171 17.3953 42.6994 14.1365 40.1775 12.7303C38.7529 11.9359 36.8859 11.5628 35.4654 11.7885ZM37.6085 14.3999C40.3679 15.1296 42.0294 17.8985 41.3233 20.5908C40.6628 23.1092 38.1967 24.7948 35.7563 24.3959C34.0661 24.1195 32.6214 23.0358 31.9096 21.5102C31.5531 20.7459 31.5287 20.6085 31.5287 19.3615C31.5287 18.1582 31.5608 17.9598 31.86 17.3111C32.5408 15.8352 33.7007 14.8221 35.149 14.4385C36.1468 14.1742 36.7206 14.1651 37.6085 14.3999ZM22.4337 20.8925C23.1752 21.0946 23.3705 21.1962 23.4158 21.4037C23.4469 21.5461 23.5528 22.0298 23.6512 22.4786C24.0437 24.268 25.0003 26.2385 26.21 27.7491C26.5437 28.1657 26.8166 28.5336 26.8166 28.5666C26.8166 28.5995 26.4635 28.6265 26.0321 28.6265C25.3239 28.6265 25.2135 28.6611 24.8988 28.9805C24.4078 29.479 24.4078 30.1963 24.8988 30.6948L25.2475 31.0488H36.5075H47.7676L48.1152 30.6803C48.5913 30.1759 48.5996 29.4921 48.1353 29.0201C47.8521 28.7323 47.6872 28.6789 46.9184 28.6265L46.0289 28.566L46.6961 27.7182C47.0631 27.2519 47.3801 26.8513 47.4009 26.828C47.4814 26.7372 49.5885 28.2931 50.4431 29.0744C52.4687 30.9263 53.8322 32.726 54.9182 34.9811C56.1859 37.6138 56.6403 39.4165 56.6394 41.8107C56.6384 45.1054 55.6754 48.1996 53.7696 51.0321C53.3887 51.5983 53.0228 52.2068 52.9566 52.3843C52.8135 52.768 52.9591 53.4104 53.2854 53.8339C53.7088 54.3837 54.155 55.4285 54.3324 56.2852C54.8484 58.7767 53.6635 61.2853 51.3565 62.5853C50.2384 63.2156 49.3708 63.4339 48.0352 63.4217C45.9187 63.4022 44.7471 62.8642 42.8137 61.0244C41.9491 60.2015 41.3907 59.7623 41.1462 59.7127C40.944 59.6716 40.2812 59.7426 39.6729 59.8705C37.2203 60.3858 33.5362 60.4935 31.3498 60.1137C30.1746 59.9096 29.9636 59.9929 28.7301 61.147C26.8308 62.9239 25.1754 63.6029 23.0599 63.4725C18.6305 63.1992 15.9372 59.0916 17.5837 55.1204C17.9987 54.1194 17.9242 53.8441 16.878 52.5139C16.3996 51.9056 15.7427 50.9405 15.4179 50.3691C14.5549 48.85 14.3826 48.5954 14.0523 48.3506C13.87 48.2155 12.85 47.9428 11.4278 47.649C9.25587 47.2003 9.07991 47.1437 8.77356 46.7972L8.44551 46.426V41.9525C8.44551 37.2617 8.46877 37.0332 8.98125 36.6923C9.12452 36.597 10.2486 36.3148 11.4794 36.0652C12.9853 35.7598 13.8401 35.5272 14.0932 35.354C14.3017 35.2114 14.6658 34.732 14.9095 34.2794C15.9912 32.2704 17.3674 30.556 19.2665 28.852C20.3135 27.9126 20.6191 27.5674 20.6753 27.2614C20.7148 27.0463 20.6097 25.5966 20.4416 24.0397C20.2737 22.4828 20.1362 21.0446 20.1362 20.8438V20.4788L20.8222 20.5594C21.1994 20.6038 21.9247 20.7537 22.4337 20.8925ZM22.099 35.6905C20.5919 36.2801 19.7324 37.761 20.0161 39.2796C20.1577 40.0378 20.3797 40.4819 20.8622 40.9718C21.5223 41.6418 22.1161 41.8823 23.1186 41.8854C23.9024 41.8879 24.0941 41.8416 24.6661 41.5123C27.0551 40.1366 26.7008 36.5754 24.0849 35.6703C23.5752 35.4938 22.5757 35.5041 22.099 35.6905ZM23.6486 38.3425C23.8954 38.7002 23.8829 38.96 23.6062 39.2141C23.2812 39.5128 22.7496 39.4195 22.5329 39.0258C22.3757 38.7399 22.3787 38.6737 22.5618 38.3899C22.8258 37.9807 23.3823 37.9564 23.6486 38.3425Z" fill="white"/>
</svg>
