<svg width="57" height="32" viewBox="0 0 57 32" fill="none" xmlns="http://www.w3.org/2000/svg">
<path fill-rule="evenodd" clip-rule="evenodd" d="M2.2422 0.080158C1.61439 0.203067 0.901643 0.621089 0.577496 1.05628C-0.0212631 1.86041 -0.000447275 1.40608 0.00022061 13.7032C0.000554553 21.2185 0.0400711 25.2452 0.115987 25.5153C0.287634 26.1266 0.877933 26.8185 1.49584 27.1327C1.98963 27.384 2.20892 27.4172 3.71411 27.4689L5.38438 27.5262L5.51417 28.0214C5.98191 29.8058 7.59063 31.3747 9.46404 31.8733C10.1269 32.0497 11.5503 32.0315 12.2094 31.8379C14.1112 31.2797 15.7685 29.5931 16.086 27.8931L16.1614 27.4896L17.4196 27.4529C18.8522 27.4111 19.1456 27.2746 19.1456 26.6499C19.1456 25.9682 18.9763 25.8819 17.52 25.8207L16.2096 25.7657L16.0797 25.2608C15.7245 23.8804 14.5696 22.474 13.2596 21.8262C11.674 21.0421 10.0158 21.0253 8.43416 21.7775C6.97706 22.4703 6.01119 23.5743 5.55057 25.0733L5.32093 25.8207H4.01265C3.29301 25.8207 2.54509 25.7658 2.3504 25.6988C1.63331 25.4516 1.66927 26.0863 1.66927 13.669V2.38681L1.99408 2.02744L2.3189 1.66807H27.3647H52.4106L52.6869 1.92467C52.9231 2.14397 53.2077 2.87229 53.2077 3.2573C53.2077 3.33751 51.4539 3.37371 47.5585 3.37405C42.1555 3.37438 41.8939 3.38373 41.5536 3.58883C40.7786 4.05593 40.7998 3.91211 40.7637 8.95808C40.7284 13.8986 40.7771 14.496 41.272 15.2023C42.1335 16.4322 44.9914 17.571 48.8635 18.2277C49.9596 18.4137 51.6738 18.5979 54.627 18.8472L55.3227 18.906V21.7874C55.3227 24.3678 55.3015 24.7079 55.1193 25.0436C54.7812 25.667 54.3449 25.8207 52.9142 25.8207H51.6711L51.4414 25.0733C50.9808 23.5743 50.0149 22.4703 48.5578 21.7775C46.9762 21.0253 45.318 21.0421 43.7323 21.8262C42.4225 22.4739 41.2684 23.8794 40.912 25.2608L40.7817 25.7657L31.3033 25.8207C22.5705 25.8714 21.8101 25.8904 21.6356 26.063C21.3387 26.3565 21.3935 26.9111 21.7491 27.2135L22.0522 27.4712H31.4396H40.827L40.9042 27.8838C41.0511 28.6707 41.6434 29.7027 42.3484 30.4004C43.4365 31.4774 44.6925 32 46.1933 32C47.7722 32 48.8852 31.5351 50.0416 30.3928C50.8359 29.6083 51.2344 28.9502 51.4778 28.0214L51.6076 27.5262L53.1033 27.4629C55.2341 27.3729 56.0007 26.9969 56.6766 25.7106L56.9368 25.2155L56.9684 19.456L57 13.6965L55.82 7.7937C54.8876 3.12977 54.5799 1.78184 54.3539 1.37141C54.0715 0.858543 53.5805 0.441402 52.9295 0.161254C52.6583 0.0446168 47.9052 0.014467 27.6611 0.00137286C13.9472 -0.00753995 2.50869 0.0278916 2.2422 0.080158ZM4.36196 3.59654C3.68138 4.00663 3.67292 4.07695 3.67292 9.31548C3.67292 14.4574 3.68283 14.5493 4.28671 15.0188L4.59349 15.2573H12.0382H19.4828L19.8986 14.8807L20.3144 14.5041V9.38711C20.3144 4.36381 20.3102 4.26445 20.0811 3.95943C19.6309 3.36018 19.8627 3.37691 12.0215 3.37559C4.90339 3.37449 4.72161 3.37966 4.36196 3.59654ZM22.7434 3.55109C22.0448 3.89165 22.0398 3.93313 22.0398 9.31548C22.0398 14.6462 22.0446 14.6876 22.6987 15.0696C22.9932 15.2415 23.6392 15.2572 30.3498 15.2557C38.2323 15.2539 37.9978 15.2709 38.4479 14.6715C38.6768 14.3667 38.6812 14.2657 38.6812 9.33484C38.6812 4.58002 38.6699 4.29229 38.47 4.00069C38.0259 3.35314 38.2886 3.37338 30.3661 3.37614C23.9934 3.37834 23.0536 3.3999 22.7434 3.55109ZM11.131 9.31548V13.6068H8.2368H5.34264V9.31548V5.02413H8.2368H11.131V9.31548ZM18.7003 9.31548V13.6068H15.8062H12.912V9.31548V5.02413H15.8062H18.7003V9.31548ZM29.5146 6.00299C29.5599 7.14559 29.7334 7.44489 30.3499 7.44489C31.0046 7.44489 31.1675 7.15979 31.1675 6.01444V5.02413H34.1174H37.0672V9.31548V13.6068H34.1174H31.1675V11.9135C31.1675 10.4318 31.1419 10.1888 30.9623 9.96952C30.6913 9.63876 30.1279 9.63425 29.7977 9.96006C29.5708 10.1841 29.5509 10.3225 29.5179 11.904L29.4821 13.6068H26.5959H23.7095V9.31548V5.02413H26.5926H29.4757L29.5146 6.00299ZM54.4452 9.42551C55.317 13.7469 55.322 13.7819 55.3224 15.508L55.3227 17.2441L54.627 17.1866C54.2444 17.155 53.3051 17.0768 52.5399 17.0128C48.6773 16.6902 45.5856 15.9796 43.6127 14.9608C42.3948 14.3321 42.4709 14.6842 42.4334 9.50705L42.4009 5.02203L47.9845 5.05064L53.5683 5.07914L54.4452 9.42551ZM41.0361 18.7596C40.7717 19.0484 40.7988 19.6871 41.0862 19.9443C41.2812 20.1188 41.4939 20.1539 42.3546 20.1539C43.5816 20.1539 43.8574 20.0025 43.8574 19.3286C43.8574 18.6706 43.6356 18.5584 42.3352 18.5584C41.3965 18.5584 41.1912 18.5902 41.0361 18.7596ZM11.7682 23.0054C12.5139 23.2016 12.9919 23.4974 13.5763 24.124C14.2966 24.8965 14.5213 25.4814 14.5239 26.5909C14.5257 27.3884 14.48 27.6235 14.2136 28.1864C13.3662 29.9768 11.3001 30.7944 9.38201 30.0984C8.50496 29.7802 7.58339 28.8596 7.23965 27.9586C6.89313 27.0501 6.95458 25.7988 7.3867 24.9642C8.2387 23.3188 9.98789 22.5369 11.7682 23.0054ZM47.8021 23.2176C48.5398 23.5514 49.2097 24.2003 49.6053 24.9642C50.0374 25.7988 50.0989 27.0501 49.7523 27.9586C49.4086 28.8596 48.487 29.7802 47.61 30.0984C45.6919 30.7944 43.6258 29.9768 42.7784 28.1864C42.3664 27.316 42.335 25.9474 42.7086 25.1411C42.9841 24.5466 43.7136 23.7257 44.2672 23.3876C45.2361 22.7956 46.7128 22.7246 47.8021 23.2176Z" fill="white"/>
</svg>
