<svg width="58" height="53" viewBox="0 0 58 53" fill="none" xmlns="http://www.w3.org/2000/svg">
<path fill-rule="evenodd" clip-rule="evenodd" d="M21.3569 0.281734C20.9912 0.432005 20.4703 0.749306 20.1994 0.986773C19.0733 1.97412 0.0901022 21.782 0.0261913 22.0365C-0.0117699 22.1879 -0.00803041 22.4519 0.0345768 22.6231C0.122511 22.976 3.80452 26.7539 4.32975 27.0301C4.78891 27.2714 5.30461 27.1418 5.76196 26.6703C5.97273 26.4529 6.18622 26.2751 6.23631 26.2751C6.28639 26.2751 6.32741 32.1393 6.32741 39.3065V52.338L6.65864 52.669L6.98987 53H32.1058C49.115 53 57.292 52.9624 57.4396 52.8834C57.9989 52.5843 58 52.57 58 45.478V38.8506L57.3301 38.0834C56.9616 37.6614 55.8525 36.4866 54.8654 35.4728C53.1256 33.6858 53.0569 33.6297 52.6174 33.6362C52.0701 33.6444 52.1136 33.611 50.6029 35.1841L49.3879 36.4494V33.2895V30.1296L49.6995 30.0641C52.5633 29.4631 54.7026 27.6223 55.6674 24.9296L56.017 23.9537L56.0503 18.0085C56.0872 11.3958 56.0677 11.1639 55.3488 9.67372C54.0699 7.02309 51.6439 5.40623 48.708 5.24781C47.283 5.17103 46.237 5.39616 44.8577 6.07673C43.3864 6.80261 42.158 8.01101 41.4756 9.40353C40.7506 10.883 40.6453 11.4185 40.5641 14.031L40.4925 16.3385L33.2118 8.87855C29.2074 4.77559 25.681 1.20759 25.3752 0.949517C24.245 -0.0044264 22.6845 -0.263749 21.3569 0.281734ZM23.6174 2.48156C23.9566 2.68833 43.057 22.1143 43.1407 22.3378C43.1964 22.4863 41.322 24.3643 41.158 24.3244C41.0877 24.3073 37.1166 20.2677 32.3332 15.3473C27.5499 10.427 23.5279 6.33934 23.3956 6.2637C22.9898 6.03178 22.4836 6.09406 22.0469 6.42959C21.824 6.60093 17.8634 10.703 13.2455 15.5455C8.62775 20.3879 4.81134 24.35 4.76454 24.35C4.71786 24.35 4.22957 23.8983 3.67965 23.3461L2.67974 22.3421L12.1247 12.564C17.3194 7.18604 21.7427 2.66931 21.9542 2.52685C22.4301 2.20638 23.1344 2.18724 23.6174 2.48156ZM49.6664 7.65045C51.5924 8.15176 53.1382 9.68731 53.653 11.6104C53.7698 12.0464 53.8049 13.4564 53.8059 17.7418C53.8072 22.9978 53.7946 23.3479 53.5796 24.0437C53.3115 24.9109 52.6137 26.0021 51.9809 26.5433C51.4493 26.9981 50.4107 27.5651 49.8128 27.7271L49.3879 27.8422V26.2215V24.6008L50.6803 23.395C51.3911 22.7318 52.0577 22.0104 52.1613 21.7921C52.4056 21.2775 52.3037 20.8161 51.8639 20.4462C51.2793 19.9547 50.8182 20.0706 49.9262 20.9333L49.3879 21.4539V18.7649C49.3879 15.3632 49.2895 15.0642 48.1701 15.0642C47.8365 15.0642 47.6572 15.1408 47.426 15.3819L47.1216 15.6994V21.7356V27.7718L46.8146 27.6948C45.8465 27.452 44.5783 26.5594 43.9293 25.6643L43.6047 25.2163L44.725 24.0754C45.3412 23.4479 45.8812 22.819 45.925 22.6779C46.085 22.163 45.7792 21.7029 44.2886 20.2167L42.8155 18.7478L42.8174 15.6886C42.8189 13.5012 42.8648 12.4159 42.9785 11.8797C43.6288 8.81388 46.6927 6.87644 49.6664 7.65045ZM30.5112 16.7062L37.1355 23.5007L37.1425 29.0933L37.1497 34.686L36.5879 34.1609C36.1033 33.7079 35.9605 33.6358 35.5479 33.6358C35.0231 33.6358 35.1816 33.4974 32.4037 36.382C31.819 36.9892 31.3028 37.486 31.2566 37.486C31.2105 37.486 30.9534 37.244 30.6854 36.9481C30.4174 36.6522 29.5973 35.786 28.8631 35.023C27.5648 33.6737 27.515 33.6357 27.0414 33.6334C26.5588 33.6311 26.538 33.6482 24.6613 35.5868L22.7682 37.5426L20.8652 35.5858C18.2912 32.9389 18.7253 32.906 15.7726 35.97C14.5353 37.2537 13.4341 38.4386 13.3255 38.6029C13.144 38.8772 13.1279 39.3822 13.1272 44.8183L13.1264 50.7352H10.8601H8.59376V37.2287V23.7222L15.6988 16.2749L22.8041 8.8277L23.3456 9.36967C23.6434 9.66784 26.8679 12.9693 30.5112 16.7062ZM12.459 22.9204C11.9066 23.231 11.8882 23.3675 11.8839 27.215C11.8796 31.1562 11.9048 31.3262 12.5316 31.5858C12.7636 31.6818 13.9717 31.7101 16.8405 31.6867L20.8271 31.6541L21.1411 31.34L21.4552 31.0261V27.2376V23.4492L21.1411 23.1353L20.8271 22.8212L16.7784 22.7947C13.5591 22.7736 12.6743 22.7994 12.459 22.9204ZM24.833 22.879C24.6965 22.9339 24.4925 23.1195 24.3797 23.2914C24.1929 23.5766 24.1749 23.9231 24.1749 27.2376C24.1749 30.5478 24.193 30.8991 24.3791 31.1829C24.4915 31.3541 24.7114 31.543 24.868 31.6025C25.0287 31.6636 26.8307 31.7107 29.0039 31.7107C33.1002 31.7107 33.3498 31.6804 33.6334 31.1507C33.792 30.8548 33.792 23.6205 33.6334 23.3246C33.3488 22.7929 33.1056 22.7642 28.9682 22.7718C26.8304 22.7757 24.9697 22.824 24.833 22.879ZM19.2456 27.2376V29.4458H16.6959H14.1463V27.2376V25.0294H16.6959H19.2456V27.2376ZM31.4838 27.2398V29.4502L28.9625 29.4197L26.4412 29.3892L26.4101 27.3547C26.393 26.2357 26.4043 25.2548 26.435 25.1748C26.478 25.0626 27.0597 25.0294 28.9873 25.0294H31.4838V27.2398ZM41.079 27.1803C41.255 27.1799 41.5331 27.1097 41.6971 27.0243C41.9826 26.8753 42.0098 26.8883 42.3509 27.3364C43.1726 28.4156 45.0063 29.5824 46.4417 29.9394L47.0649 30.0944L47.095 33.1108C47.1117 34.7698 47.0924 36.1271 47.0524 36.1271C47.0123 36.1271 46.4378 35.5656 45.7757 34.8795C44.5986 33.6596 44.5608 33.6319 44.0715 33.6338C43.5772 33.6358 43.5528 33.6548 42.0782 35.1928C41.2569 36.0493 40.4173 36.9428 40.2121 37.1784C39.8576 37.5856 39.8285 37.5974 39.6274 37.4156C39.4264 37.2338 39.416 36.9456 39.416 31.5627V25.9009L40.0875 26.541C40.58 27.0105 40.8442 27.1808 41.079 27.1803ZM20.2515 38.2058L21.6252 39.6618V45.1985V50.7352H18.509H15.3928V45.198V39.661L16.95 38.0095C18.4109 36.4601 18.5186 36.3701 18.6925 36.554C18.7943 36.6617 19.4959 37.4051 20.2515 38.2058ZM30.1183 45.1581L30.124 50.7352H27.0078H23.8916V45.2135V39.692L25.4497 38.0302L27.0078 36.3683L28.5602 37.9746L30.1127 39.5809L30.1183 45.1581ZM55.3757 39.3128L55.7337 39.7241V45.2296V50.7352H52.6174H49.5012V45.1852V39.6353L51.0474 38.0047L52.5936 36.3742L53.8057 37.6378C54.4722 38.3329 55.1787 39.0865 55.3757 39.3128ZM37.4343 38.3456C38.4212 39.3789 39.351 40.2708 39.5002 40.3274C40.0794 40.5476 40.0957 40.5342 43.3087 37.2029L44.0732 36.4102L45.6535 38.0522L47.2339 39.6942L47.2344 45.2147L47.2349 50.7352H44.1187H41.0024L40.9961 50.0274C40.987 49.0328 40.8048 48.5732 40.3157 48.3113C39.835 48.0539 39.4129 48.1234 39.0096 48.5264C38.7632 48.7727 38.7361 48.8955 38.7361 49.7675V50.7352H35.5632H32.3903L32.3935 45.2147L32.3968 39.6942L33.9345 38.0805C34.7802 37.193 35.51 36.4668 35.556 36.4668C35.6021 36.4668 36.4473 37.3123 37.4343 38.3456ZM39.0673 43.3658C38.2126 44.22 39.1105 45.6411 40.2159 45.1835C40.6838 44.9899 40.8891 44.658 40.8891 44.0954C40.8891 43.1339 39.7543 42.6793 39.0673 43.3658Z" fill="white"/>
</svg>
