<svg width="59" height="59" viewBox="0 0 59 59" fill="none" xmlns="http://www.w3.org/2000/svg">
<path fill-rule="evenodd" clip-rule="evenodd" d="M15.4884 0.0351681C11.6142 0.58826 8.48387 3.7314 7.94455 7.60985C7.86648 8.17067 7.82001 11.1404 7.81989 15.5601V22.6154L6.75323 22.6333C2.41085 22.7062 -0.741382 26.6627 0.152072 30.9187C0.510354 32.625 1.6635 34.2907 3.15393 35.2546L3.89333 35.7329L3.92515 43.8203L3.95698 51.9076L4.29266 52.5135C4.78424 53.4009 5.72947 54.0411 6.54786 54.0411H6.89749L6.89934 55.7998C6.90107 57.4058 6.92367 57.5978 7.15879 58.0111C7.31943 58.2933 7.60783 58.5648 7.9246 58.7319C8.37386 58.9689 8.59169 59 9.80214 59C11.3117 59 11.7188 58.8909 12.2234 58.3511C12.7062 57.8347 12.7785 57.4902 12.7785 55.7058V54.0411H29.4991H46.2196V55.7058C46.2196 57.4902 46.2919 57.8347 46.7748 58.3511C47.2794 58.8909 47.6864 59 49.196 59C50.4065 59 50.6243 58.9689 51.0736 58.7319C51.3903 58.5648 51.6787 58.2933 51.8394 58.0111C52.0745 57.5978 52.0971 57.4058 52.0988 55.7998L52.1007 54.0411H52.4503C53.2687 54.0411 54.2139 53.4009 54.7055 52.5135L55.0412 51.9076L55.073 43.8203L55.1048 35.7329L55.8442 35.2546C58.3183 33.6545 59.5134 30.6382 58.7918 27.816C58.4568 26.5065 57.9482 25.6275 56.9488 24.6315C56.3192 24.0039 55.8402 23.6476 55.2141 23.3411C54.1581 22.8241 52.6611 22.5008 51.7954 22.6025L51.1781 22.675L51.1758 15.5529C51.1746 11.469 51.1249 8.09329 51.0593 7.63995C50.5458 4.08775 48.0968 1.302 44.5434 0.227759C43.8985 0.0328616 42.9846 0.0189075 29.845 0.00287752C22.1391 -0.00657902 15.6787 0.00806708 15.4884 0.0351681ZM43.7255 2.08666C46.1432 2.59893 48.1048 4.44203 48.9431 6.98906C49.1345 7.57076 49.1551 8.26916 49.1907 15.4165L49.2296 23.2097L48.5409 23.6348C47.2199 24.4502 46.1681 25.7385 45.6281 27.2026C45.372 27.8972 45.3622 28.0641 45.324 32.399C45.2874 36.5561 45.2705 36.8719 45.0891 36.7963C44.3239 36.4775 43.7533 36.3966 42.2715 36.3966H40.6662L40.7328 36.0794C40.7693 35.9051 41.2941 32.9859 41.8988 29.5925C43.0626 23.0625 43.0732 22.9522 42.618 22.0388C42.0752 20.9493 41.4524 20.617 39.1855 20.2077C29.2205 18.4085 27.0387 18.0358 26.4432 18.0305C26.0627 18.027 25.5659 18.1037 25.3393 18.2007C24.7683 18.4454 24.1085 19.0502 23.8414 19.5736C23.5151 20.2133 21.0412 34.0732 21.1231 34.803C21.1564 35.0999 21.2903 35.5519 21.4207 35.8075C21.551 36.0629 21.6577 36.3 21.6577 36.3343C21.6577 36.3686 20.1871 36.3966 18.3896 36.3966C15.2006 36.3966 14.7781 36.4343 13.9091 36.7963C13.7277 36.8719 13.7107 36.5561 13.6742 32.399C13.636 28.0641 13.6262 27.8972 13.3701 27.2026C12.831 25.741 11.7783 24.4502 10.4631 23.6384L9.78035 23.2169L9.78265 15.9391C9.78392 11.7519 9.83351 8.32543 9.89924 7.87048C10.3062 5.05543 12.4891 2.68438 15.2195 2.09162C16.3371 1.84909 42.5823 1.84448 43.7255 2.08666ZM20.0273 9.05439C19.7736 9.25955 19.7511 9.37407 19.6974 10.7366C19.6411 12.1643 19.6321 12.2054 19.3161 12.477C19.0148 12.7362 18.9018 12.7552 17.6677 12.7552C16.4147 12.7552 16.3274 12.7706 16.0598 13.0384C15.8643 13.2337 15.7767 13.4496 15.7767 13.7355C15.7767 14.0214 15.8643 14.2373 16.0598 14.4326C16.3274 14.7004 16.4147 14.7157 17.6677 14.7157C18.9018 14.7157 19.0148 14.7348 19.3161 14.994C19.6321 15.2656 19.6411 15.3067 19.6974 16.7344C19.7511 18.0969 19.7736 18.2114 20.0273 18.4166C20.3976 18.716 20.8873 18.6933 21.2765 18.3585C21.5921 18.0872 21.6014 18.0444 21.6577 16.6323C21.7332 14.7362 21.678 14.7913 23.5747 14.7157C24.9867 14.6595 25.0294 14.6501 25.3005 14.3345C25.6724 13.9016 25.6535 13.5045 25.2413 13.0923C24.9111 12.762 24.8795 12.7552 23.6788 12.7552C22.4073 12.7552 21.8757 12.6124 21.7293 12.2311C21.69 12.1285 21.6577 11.4739 21.6577 10.7764C21.6577 9.52872 21.6523 9.503 21.3206 9.17133C20.9222 8.773 20.4303 8.72849 20.0273 9.05439ZM37.639 9.18909C37.358 9.52307 37.3404 9.61729 37.3404 10.7942C37.3404 11.4818 37.3082 12.1285 37.2688 12.2311C37.1225 12.6124 36.5909 12.7552 35.3193 12.7552C34.1187 12.7552 34.0871 12.762 33.7568 13.0923C33.3447 13.5045 33.3258 13.9016 33.6977 14.3345C33.9688 14.6501 34.0114 14.6595 35.4235 14.7157C37.3201 14.7913 37.2649 14.7362 37.3404 16.6323C37.3967 18.0444 37.4061 18.0872 37.7217 18.3585C38.1109 18.6933 38.6006 18.716 38.9709 18.4166C39.2246 18.2114 39.247 18.0969 39.3008 16.7344C39.3571 15.3067 39.366 15.2656 39.682 14.994C39.9833 14.7348 40.0963 14.7157 41.3304 14.7157C42.5834 14.7157 42.6707 14.7004 42.9384 14.4326C43.1338 14.2373 43.2215 14.0214 43.2215 13.7355C43.2215 13.4496 43.1338 13.2337 42.9384 13.0384C42.6707 12.7706 42.5834 12.7552 41.3304 12.7552C40.0963 12.7552 39.9833 12.7362 39.682 12.477C39.366 12.2054 39.3571 12.1643 39.3008 10.7366C39.247 9.37407 39.2246 9.25955 38.9709 9.05439C38.5463 8.71108 37.9942 8.76689 37.639 9.18909ZM33.3621 21.1714C36.9772 21.8114 40.1045 22.3895 40.3117 22.456C40.5356 22.5279 40.758 22.7112 40.8596 22.9078C41.0188 23.2158 40.9514 23.6827 39.8775 29.7017C39.2431 33.2565 38.7242 36.2171 38.7242 36.2808C38.7242 36.3564 37.0456 36.3966 33.8795 36.3966H29.0348L26.4706 35.9347C25.0603 35.6806 23.7681 35.4167 23.5991 35.3482C22.9141 35.0702 22.9054 35.173 24.2495 27.6051C25.1115 22.7516 25.5448 20.5688 25.6857 20.3694C25.8915 20.0781 26.3054 19.9001 26.6162 19.9693C26.7114 19.9904 29.747 20.5314 33.3621 21.1714ZM8.59676 24.8843C9.77124 25.3238 10.8013 26.2976 11.3813 27.5167L11.683 28.1509L11.7139 40.1158L11.7448 52.0806L9.11937 52.0769C6.3682 52.0731 6.26834 52.0559 5.99377 51.5404C5.89541 51.3557 5.85966 49.0869 5.85966 43.0277C5.85966 37.5282 5.81953 34.692 5.73974 34.5427C5.67378 34.4195 5.27156 34.151 4.84605 33.9462C1.69993 32.432 0.989369 28.4487 3.43069 26.0111C4.80465 24.6392 6.78656 24.207 8.59676 24.8843ZM52.9731 24.6443C53.9783 24.8295 54.8427 25.2845 55.5675 26.0097C58.0083 28.4521 57.2986 32.4319 54.1521 33.9462C53.7266 34.151 53.3244 34.4195 53.2584 34.5427C53.1786 34.692 53.1385 37.5409 53.1385 43.069V51.371L52.8399 51.7257L52.5414 52.0806H49.8973H47.2533L47.2842 40.1132L47.3151 28.146L47.6988 27.3666C48.1787 26.3919 48.9959 25.5645 49.9351 25.1025C51.0474 24.5553 51.8407 24.4357 52.9731 24.6443ZM5.68669 28.5218C4.9413 28.7022 4.67746 29.6543 5.22924 30.1727C5.48397 30.4121 5.65902 30.4531 6.6001 30.4943C7.26431 30.5234 7.8418 30.4877 8.10264 30.4016C8.99725 30.1064 9.06402 28.956 8.20746 28.5981C7.84261 28.4456 6.20618 28.3961 5.68669 28.5218ZM50.7654 28.5964C49.9355 28.973 50.0175 30.1118 50.8955 30.4016C51.1564 30.4877 51.7338 30.5234 52.3981 30.4943C53.3391 30.4531 53.5142 30.4121 53.7689 30.1727C54.172 29.794 54.1709 29.1593 53.7663 28.7792C53.5011 28.53 53.3535 28.4989 52.296 28.4688C51.4732 28.4454 51.0139 28.4837 50.7654 28.5964ZM43.9923 38.4801C44.3995 38.6343 44.8014 39.0044 45.0486 39.4527C45.2105 39.746 45.2451 40.2847 45.2765 42.9989L45.3134 46.1991H29.4991H13.6848L13.7217 42.9989C13.753 40.2847 13.7876 39.746 13.9495 39.4527C14.1878 39.0208 14.5933 38.6366 14.9696 38.4866C15.3839 38.3214 43.5568 38.3151 43.9923 38.4801ZM45.2711 50.1489L45.3027 52.0806H29.5018H13.701V50.197C13.701 49.1609 13.7359 48.2786 13.7783 48.236C13.8208 48.1935 20.9169 48.1719 29.5475 48.188L45.2395 48.2172L45.2711 50.1489ZM10.8182 55.5403V57.0395H9.838H8.85783V55.5403V54.0411H9.838H10.8182V55.5403ZM50.1403 55.5403V57.0395H49.1601H48.18V55.5403V54.0411H49.1601H50.1403V55.5403Z" fill="white"/>
</svg>
