<svg width="56" height="52" viewBox="0 0 56 52" fill="none" xmlns="http://www.w3.org/2000/svg">
<path fill-rule="evenodd" clip-rule="evenodd" d="M38.8249 6.5788C32.4367 12.8392 31.4711 13.8578 30.9364 14.8994C30.2612 16.2144 30.0332 18.3376 30.4141 19.7639C30.5899 20.422 30.5893 20.4656 30.4043 20.6432C30.2971 20.7461 29.4026 21.5314 28.4165 22.3883L26.6235 23.9465L24.7214 22.2786C23.6753 21.3613 22.8193 20.5884 22.8193 20.5611C22.8193 20.5338 22.8925 20.3729 22.9817 20.2033C23.3169 19.5671 23.6874 18.2394 23.8194 17.2017C24.2044 14.1738 23.0002 11.0009 20.6092 8.74291C16.3658 4.73559 11.2425 2.39578 7.17448 2.60716C5.75458 2.68099 4.97811 2.87399 3.77543 3.45193C2.49895 4.06544 1.45546 5.08957 0.829321 6.34324C0.1376 7.72813 -0.00407252 8.38796 8.78778e-05 10.2057C0.00315343 11.5271 0.0481514 11.939 0.295914 12.9156C1.01106 15.7345 2.39078 18.3368 4.61244 21.0574C6.84569 23.792 8.72619 25.1197 11.3376 25.8055C13.1786 26.289 15.8474 26.0779 17.6192 25.3088C18.2173 25.0491 18.2672 25.0434 18.4582 25.2131C18.5699 25.3123 19.4596 26.2786 20.4353 27.3604C21.4109 28.4421 22.3456 29.3826 22.5121 29.4503C22.6787 29.5181 22.9402 29.5427 23.093 29.505C23.3316 29.4463 31.8442 22.1558 32.536 21.4178C32.8469 21.0862 32.8513 20.6452 32.5514 19.8774C32.2635 19.1407 32.1638 17.7746 32.3379 16.9524C32.6556 15.452 32.5527 15.5689 40.0791 8.15949C47.4431 0.91009 47.2366 1.14243 46.888 0.500008C46.69 0.135276 46.4505 0.00374064 45.9773 8.68685e-05C45.5458 -0.00335197 45.4749 0.0618783 38.8249 6.5788ZM48.7123 2.89355C48.5919 2.94524 46.0423 5.39853 43.0465 8.3454C38.0578 13.2526 37.5997 13.7332 37.5997 14.0583C37.5997 14.3074 37.6952 14.5071 37.9197 14.7275C38.3343 15.1344 38.7519 15.1353 39.3076 14.7306C40.0527 14.1878 49.8451 4.46983 49.9657 4.15345C50.0292 3.98678 50.0523 3.73746 50.017 3.59937C49.883 3.07527 49.1781 2.69388 48.7123 2.89355ZM9.77253 4.79222C12.3706 5.31052 15.3475 6.87745 18.0568 9.15288C19.4691 10.339 20.0291 10.9404 20.6834 11.9741C21.447 13.1805 21.751 14.2045 21.8105 15.7725C21.8716 17.3802 21.7042 18.1834 21.0027 19.6501C20.5223 20.6539 20.46 20.888 20.5867 21.2121C20.6233 21.3057 21.6559 22.2543 22.8815 23.3202L25.1098 25.2581L24.0835 26.1677C23.5191 26.6681 23.0123 27.0775 22.9574 27.0775C22.9025 27.0775 22.0515 26.1793 21.0665 25.0816C20.0813 23.9839 19.175 23.0167 19.0523 22.9323C18.7124 22.6987 18.3941 22.7448 17.5841 23.1452C16.2741 23.7927 15.5557 23.9772 14.1153 24.0358C12.4517 24.1034 11.5086 23.9208 10.1739 23.2724C9.00987 22.7072 7.96057 21.8627 6.84548 20.594C3.66934 16.9801 2.01492 13.4414 1.98854 10.2057C1.97365 8.36625 2.43272 7.09732 3.48825 6.06137C4.90093 4.67476 7.0293 4.24491 9.77253 4.79222ZM45.9491 10.986C40.9052 15.9368 40.4463 16.4169 40.4463 16.7424C40.4463 17.237 40.6206 17.5059 41.0572 17.685C41.3804 17.8175 41.4804 17.8177 41.7875 17.6866C42.2442 17.4914 52.6589 7.24734 52.8122 6.84231C52.8974 6.61749 52.8872 6.45028 52.7718 6.17936C52.5915 5.75563 52.3161 5.58476 51.8137 5.58476C51.4821 5.58476 50.9929 6.03525 45.9491 10.986ZM47.6751 15.5132C43.91 19.2007 40.6324 22.3365 40.3915 22.4816C39.4829 23.0289 38.7097 23.2425 37.5997 23.2526C36.7072 23.2608 36.4324 23.217 35.6631 22.9441C34.833 22.6497 34.7428 22.6378 34.4445 22.7832C34.2652 22.8704 28.8866 28.7385 22.3326 35.997C15.8481 43.1783 10.3422 49.2112 10.0968 49.4034C9.25632 50.0621 8.06108 50.2408 7.03039 49.862C6.21857 49.5637 5.70049 49.1045 5.30963 48.3366C4.86677 47.4668 4.83874 46.4349 5.23573 45.615C5.56758 44.9296 5.61192 44.8886 12.2541 39.1232C15.3251 36.4576 17.9486 34.1246 18.0841 33.9389C18.4053 33.4985 18.3953 33.1876 18.047 32.7814C17.6655 32.3363 17.0816 32.3225 16.5606 32.7462C15.6655 33.4741 4.48335 43.2497 4.19716 43.5546C3.73591 44.0458 3.13024 45.2957 2.99054 46.0449C2.55862 48.3606 3.98619 50.8328 6.25174 51.6923C7.20097 52.0524 8.67025 52.1029 9.65495 51.8094C11.117 51.3735 11.0863 51.4037 19.1121 42.5284C23.2186 37.9872 26.6149 34.2851 26.6595 34.3016C26.704 34.3179 30.113 38.0549 34.2352 42.606C38.3574 47.1571 41.8969 50.987 42.1009 51.117C43.0506 51.722 43.7495 51.9449 44.838 51.9897C46.4616 52.0564 47.5492 51.6731 48.6788 50.6359C50.5108 48.9539 50.8511 46.2091 49.487 44.116C49.0622 43.4641 49.1622 43.554 39.4308 35.0872C34.9482 31.1871 31.9228 28.4804 31.9548 28.3985C31.9844 28.3229 32.7022 27.4961 33.5501 26.5612L35.0916 24.8614L35.8803 25.0635C37.6654 25.521 39.9971 25.1084 41.5932 24.0526C42.1304 23.6975 44.4177 21.524 49.1776 16.846C56.4202 9.72803 56.2162 9.958 55.8657 9.31204C55.6677 8.94741 55.4283 8.81577 54.9558 8.81212C54.5253 8.80868 54.4494 8.87853 47.6751 15.5132ZM39.0777 37.4243C48.4313 45.5757 48.1788 45.3237 48.2989 46.6243C48.3922 47.6338 48.1125 48.3703 47.3525 49.1162C46.5926 49.8621 45.8423 50.1367 44.8139 50.0451C43.5081 49.9288 43.7207 50.1339 35.7575 41.3165C31.754 36.8836 28.3661 33.1358 28.2288 32.988L27.9793 32.7194L29.2039 31.3536C29.8774 30.6025 30.4531 29.9867 30.4832 29.9851C30.5133 29.9834 34.3809 33.3312 39.0777 37.4243Z" fill="white"/>
</svg>
