<svg width="237" height="4876" viewBox="0 0 237 4876" fill="none" xmlns="http://www.w3.org/2000/svg">
<path fill-rule="evenodd" clip-rule="evenodd" d="M331.946 87.882C395.496 53.902 472.157 -142.445 517.87 193.38C564.345 534.799 517.78 1158.12 540.222 1617.94C564.346 2112.2 657.411 2389.42 650.65 2913.82C644.031 3427.18 562.66 3657.14 509.74 3982.15C453.201 4329.39 404.618 4905.49 331.946 4871.16C259.122 4836.76 142 5123.89 169.577 3821.48C117.206 3500.36 39.1933 3384.34 12.8745 2914.73C-14.032 2434.63 5.28905 1871.83 33.6813 1396.65C60.0156 955.92 108.887 625.116 164.178 382.5C215.089 159.107 273.244 119.27 331.946 87.882Z" fill="#EDFFF8"/>
</svg>
