<svg width="226" height="2028" viewBox="0 0 226 2028" fill="none" xmlns="http://www.w3.org/2000/svg">
<path fill-rule="evenodd" clip-rule="evenodd" d="M618.533 77.2428C532.66 29.3708 440.234 -33.6997 355.516 21.4564C270.366 76.8931 219.995 243.24 160.938 375.162C99.8497 511.619 14.5797 633.075 1.41333 812.444C-11.8099 992.586 71.6069 1144.3 91.427 1322.12C111.488 1502.1 58.3051 1723.69 118.748 1865.16C179.546 2007.45 294.999 1990.04 388.833 2018.19C465.474 2041.17 540.997 2016.8 618.533 2015.06C695.222 2013.34 769.83 2029.79 845.7 2007.92C940.767 1980.51 1075.81 2035.09 1121.48 1870.08C1171.54 1689.23 1026.37 1479.79 1047.61 1278.46C1068.16 1083.74 1236.88 1012.31 1232.93 813.656C1229.31 631.726 1108.9 545.618 1031.03 445.343C966.382 362.086 888.383 342.105 817.938 279.244C748.966 217.696 691.457 117.896 618.533 77.2428Z" fill="#EDFFF8"/>
</svg>
