<svg width="307" height="1816" viewBox="0 0 307 1816" fill="none" xmlns="http://www.w3.org/2000/svg">
<path fill-rule="evenodd" clip-rule="evenodd" d="M432.215 15.8629C498.474 59.5919 523.42 236.384 582.451 313.834C633.779 381.177 701.105 365.668 751.795 435.157C811.267 516.688 874.312 609.739 900.314 749.588C926.647 891.216 913.191 1053.72 894.091 1200.49C875.369 1344.36 847.117 1493.92 791.56 1585.31C737.286 1674.58 660.35 1650.87 594.643 1693.04C538.926 1728.81 490.413 1818 432.215 1815.97C374.195 1813.94 320.186 1751.52 272.343 1681.77C227.783 1616.8 206.689 1503.03 165.907 1427.69C115.234 1334.09 23.8046 1320.33 3.19513 1184.56C-16.765 1053.07 63.0084 938.484 70.8255 801.326C79.8213 643.486 20.136 476.148 51.7817 332.066C82.2118 193.519 162.093 136.347 229.115 80.6407C293.677 26.9789 366.009 -27.8317 432.215 15.8629Z" fill="#F7F8FF"/>
</svg>
