<svg width="369" height="314" viewBox="0 0 369 314" fill="none" xmlns="http://www.w3.org/2000/svg">
<path d="M214.882 8.78735C199.673 12.948 184.284 17.1577 169.015 17.8241C154.812 18.444 139.875 15.2493 125.134 12.0965C99.2012 6.54986 73.8754 1.13306 54.2202 16.8454C33.0181 33.7944 32.049 62.5932 31.0706 91.6655C30.6217 105.006 30.1708 118.404 27.7622 130.741C25.8069 140.756 22.7516 150.705 19.7126 160.6C12.6463 183.608 5.66827 206.33 12.8123 228.934C23.0416 261.3 51.1675 285.233 81.2757 300.062C101.284 309.916 123.28 308.442 145.54 306.951C153.357 306.427 161.207 305.901 169.015 305.863C175.472 305.831 181.895 305.976 188.282 306.12C211.425 306.643 234.09 307.156 256.139 299.202C259.412 298.021 262.724 296.849 266.056 295.671C300.549 283.469 337.204 270.502 355.003 238.767C363.551 223.525 367.776 206.666 369 189.242V318H0V0H262.396C246.998 0.00152148 231.041 4.36677 214.882 8.78735Z" fill="white"/>
<path d="M262.412 0C272.271 0.000974253 281.9 1.7914 291.206 6.50206C329.868 26.0731 348.177 72.1233 359.788 114.394C364.376 131.098 367.873 148.715 369 166.229V0H262.412Z" fill="white"/>
<path d="M45.0153 26.1094C44.8109 26.2648 44.6071 26.4225 44.4038 26.5824C23.2017 43.2649 22.2326 71.611 21.2542 100.226C20.8053 113.357 20.3544 126.544 17.9458 138.688C15.9904 148.545 12.9352 158.337 9.89625 168.076C2.82995 190.723 -4.14813 213.088 2.99592 235.336C13.2252 267.193 41.3511 290.751 71.4593 305.345C91.4678 315.045 113.463 313.594 135.724 312.126C143.541 311.611 151.39 311.093 159.198 311.055C165.655 311.024 172.079 311.167 178.466 311.309C201.609 311.824 224.274 312.328 246.322 304.499C249.595 303.337 252.907 302.184 256.239 301.024C286.354 290.538 318.117 279.479 337.54 256.053C318.174 272.877 291.526 282.155 266.056 291.024C262.724 292.184 259.411 293.337 256.139 294.499C234.09 302.328 211.426 301.824 188.282 301.309C181.895 301.167 175.472 301.024 169.015 301.055C161.207 301.093 153.357 301.611 145.54 302.126C123.28 303.594 101.284 305.045 81.2757 295.345C51.1675 280.751 23.0416 257.193 12.8123 225.336C5.66827 203.088 12.6463 180.723 19.7127 158.076C22.7516 148.337 25.8069 138.545 27.7622 128.688C30.1708 116.544 30.6217 103.357 31.0706 90.2261C31.8816 66.5054 32.6863 42.9696 45.0153 26.1094Z" fill="#7994FD"/>
</svg>
