<svg width="323" height="1229" viewBox="0 0 323 1229" fill="none" xmlns="http://www.w3.org/2000/svg">
<path fill-rule="evenodd" clip-rule="evenodd" d="M-163.098 76.6334C-95.6108 29.1391 -22.9747 -33.4339 43.6045 21.2872C110.522 76.2864 150.108 241.32 196.521 372.202C244.529 507.582 311.542 628.08 321.889 806.034C332.281 984.755 266.725 1135.27 251.149 1311.69C235.383 1490.25 277.179 1710.09 229.677 1850.44C181.897 1991.62 91.1641 1974.34 17.4211 2002.26C-42.8101 2025.07 -102.164 2000.89 -163.098 1999.16C-223.366 1997.45 -282 2013.78 -341.626 1992.08C-416.338 1964.89 -522.464 2019.03 -558.358 1855.33C-597.7 1675.9 -483.615 1468.11 -500.308 1268.37C-516.452 1075.19 -649.053 1004.32 -645.946 807.236C-643.101 626.742 -548.473 541.313 -487.278 441.829C-436.468 359.229 -375.169 339.406 -319.808 277.041C-265.604 215.979 -220.408 116.965 -163.098 76.6334Z" fill="#FFF7F8"/>
</svg>
