<svg width="323" height="5220" viewBox="0 0 323 5220" fill="none" xmlns="http://www.w3.org/2000/svg">
<path fill-rule="evenodd" clip-rule="evenodd" d="M-316.5 416.388C-203.385 324.341 -44.1281 -206.004 74 87.7347C200.734 402.874 231.765 596.82 291.475 1195.51C351.205 1794.4 227.676 2246.41 229.225 2843.03C230.934 3501.51 377.406 4346.83 300.882 4818.97C226.089 5280.41 -665.627 5230.02 -805.278 5204.38C-934.456 5180.66 -363.119 5053.35 -483.801 4674.88C-603.39 4299.84 -628.118 3580.91 -698.424 3004.74C-767.161 2441.44 -907.709 1891.8 -890.562 1341.43C-873.291 787.037 -704.654 809.083 -619.494 471.244C-540.74 158.816 -425.818 505.344 -316.5 416.388Z" fill="#FFF6F8"/>
</svg>
