<svg width="39" height="30" viewBox="0 0 39 30" fill="none" xmlns="http://www.w3.org/2000/svg">
<path d="M0 28.5973C0 23.267 0.815348 18.2172 2.44604 13.448C3.76098 9.52681 5.60608 5.63606 7.98134 1.77571C8.98572 0.143361 11.0563 -0.431586 12.8061 0.350291C14.9058 1.28845 15.7559 3.8052 14.7883 5.89142C13.3807 8.92635 12.3361 11.7725 11.6547 14.4299C10.7914 18.1704 10.3597 21.6772 10.3597 24.9502C10.3597 25.9789 10.3597 26.8673 10.3597 27.6154C10.3597 28.8893 9.38724 30 8.11337 30H1.40272C0.628019 30 0 29.372 0 28.5973ZM23.3094 28.5973C23.3094 23.267 24.1247 18.2172 25.7554 13.448C27.0703 9.52681 28.9154 5.63605 31.2907 1.77571C32.2951 0.14336 34.3656 -0.431586 36.1155 0.35029C38.2151 1.28845 39.0653 3.8052 38.0977 5.89142C36.69 8.92635 35.6455 11.7725 34.964 14.4299C34.1007 18.1704 33.6691 21.6772 33.6691 24.9502C33.6691 25.9789 33.6691 26.8673 33.6691 27.6154C33.6691 28.8893 32.6966 30 31.4227 30H24.7121C23.9374 30 23.3094 29.372 23.3094 28.5973Z" fill="#29BB7F"/>
</svg>
