<svg width="166" height="537" viewBox="0 0 166 537" fill="none" xmlns="http://www.w3.org/2000/svg">
<path fill-rule="evenodd" clip-rule="evenodd" d="M-46.2123 9.68525C-3.94385 5.9404 47.0459 -15.6985 77.4512 21.3119C108.363 58.9388 77.391 127.634 92.3184 178.309C108.364 232.78 170.264 263.332 165.767 321.125C161.365 377.7 107.242 403.044 72.0439 438.863C34.438 477.131 2.12383 540.621 -46.2123 536.838C-94.6503 533.047 -116.5 459.467 -154.209 421.156C-189.043 385.766 -240.931 372.98 -258.437 321.225C-276.333 268.314 -263.482 206.29 -244.598 153.922C-227.082 105.349 -194.576 68.8924 -157.8 42.1544C-123.938 17.5348 -85.2571 13.1445 -46.2123 9.68525Z" fill="#E2E6FF" fill-opacity="0.6"/>
</svg>
