<svg width="16" height="16" viewBox="0 0 16 16" fill="none" xmlns="http://www.w3.org/2000/svg">
<path d="M0.688945 15.4302C-0.0308698 14.7048 -0.0308697 13.5286 0.688945 12.8032L12.8535 0.544062C13.5733 -0.181354 14.7403 -0.181354 15.4601 0.544062C16.18 1.26948 16.18 2.44561 15.4601 3.17103L3.29563 15.4302C2.57581 16.1556 1.40876 16.1556 0.688945 15.4302Z" fill="#9D9D9D"/>
<path d="M0.539861 0.569807C1.25968 -0.155609 2.42673 -0.155609 3.14654 0.569807L15.3111 12.829C16.0309 13.5544 16.0309 14.7305 15.3111 15.4559C14.5912 16.1814 13.4242 16.1814 12.7044 15.4559L0.539862 3.19677C-0.179954 2.47136 -0.179954 1.29522 0.539861 0.569807Z" fill="#9D9D9D"/>
</svg>
