<svg width="23" height="23" viewBox="0 0 23 23" fill="none" xmlns="http://www.w3.org/2000/svg">
<path d="M1.39436 1.39397C2.16421 0.624106 3.41239 0.624105 4.18224 1.39397L21.6061 18.8182C22.3759 19.5881 22.3759 20.8362 21.6061 21.606C20.8363 22.3759 19.5881 22.3759 18.8182 21.606L1.39436 4.18179C0.624533 3.41195 0.624535 2.16381 1.39436 1.39397Z" fill="#93A8FE"/>
<path d="M21.6056 1.39397C20.8358 0.624105 19.5876 0.624106 18.8178 1.39397L1.39388 18.8182C0.624057 19.5881 0.624057 20.8362 1.39388 21.606C2.16373 22.3759 3.41191 22.3759 4.18176 21.606L21.6056 4.18179C22.3755 3.41195 22.3755 2.16381 21.6056 1.39397Z" fill="#93A8FE"/>
</svg>
