<svg width="25" height="24" viewBox="0 0 25 24" fill="none" xmlns="http://www.w3.org/2000/svg">
<path fill-rule="evenodd" clip-rule="evenodd" d="M8.41431 0.0896076C9.31104 0.405099 9.97095 1.18957 10.0591 2.04502L10.0914 2.35792L16.859 2.37287L23.6267 2.38788L23.852 2.50937C24.2863 2.74344 24.5 3.10357 24.5 3.60155C24.5 4.07481 24.204 4.51072 23.7552 4.69846C23.5698 4.77605 22.7722 4.7861 16.8107 4.7861H10.0758V4.97332C10.0758 5.2281 9.92345 5.72382 9.75842 6.00642C9.5833 6.30634 9.09242 6.77069 8.78382 6.92835C8.34439 7.15288 7.88417 7.21049 6.52603 7.21122C5.08124 7.21196 4.73929 7.17076 4.23686 6.93529C3.5015 6.59068 3.03525 5.91912 2.89152 4.9977L2.8585 4.7861L2.14269 4.78485C1.34936 4.7835 1.1077 4.71522 0.824116 4.41231C0.403559 3.96314 0.390373 3.19916 0.795662 2.76404C1.07429 2.46491 1.31623 2.39274 2.11706 2.36988C2.5277 2.3582 2.86408 2.33202 2.86458 2.31182C2.87027 2.09942 3.05999 1.44999 3.18203 1.22546C3.39935 0.825548 3.96466 0.312839 4.36707 0.150663C4.68249 0.0235299 4.75946 0.0180564 6.41334 0.00440066C7.93302 -0.00807004 8.16454 0.00174842 8.41431 0.0896076ZM5.28645 3.57288V4.7861H6.49786H7.70927V3.61052C7.70927 2.96391 7.69237 2.41796 7.67169 2.39731C7.65107 2.3766 7.10593 2.35967 6.46028 2.35967H5.28645V3.57288ZM17.9077 8.47827C18.7376 8.70951 19.4108 9.39072 19.6321 10.223C19.6746 10.3828 19.7097 10.5834 19.71 10.6688L19.7107 10.8239H21.6739C23.6203 10.8239 23.6392 10.8251 23.8854 10.9553C24.022 11.0274 24.2098 11.1947 24.3028 11.3269C24.4554 11.5439 24.4718 11.6097 24.4718 12.0045C24.4718 12.3894 24.4534 12.4683 24.3178 12.6627C24.2331 12.7842 24.0701 12.9471 23.9558 13.0247L23.7478 13.1657L21.7292 13.1819L19.7107 13.198L19.71 13.3512C19.7097 13.4354 19.6755 13.6313 19.6341 13.7864C19.4067 14.639 18.7328 15.3163 17.8879 15.5416C17.5192 15.64 14.8489 15.6517 14.403 15.5569C13.4647 15.3575 12.7099 14.562 12.5449 13.5984L12.4759 13.1955L6.86202 13.1806L1.24811 13.1657L1.02758 13.0115C0.906265 12.9266 0.743656 12.7634 0.666182 12.6488C0.546335 12.4715 0.52532 12.376 0.52532 12.0089C0.52532 11.6419 0.546335 11.5463 0.666182 11.3691C0.743656 11.2544 0.906265 11.0912 1.02758 11.0064L1.24811 10.8522L6.86202 10.8373L12.4759 10.8224L12.5438 10.4258C12.705 9.48416 13.4 8.72193 14.3213 8.47624C14.7101 8.37258 17.5341 8.37416 17.9077 8.47827ZM14.9214 12.0089V13.1939H16.1046H17.2879V12.0089V10.8239H16.1046H14.9214V12.0089ZM10.5829 16.8822C11.0546 16.9849 11.4228 17.1891 11.7821 17.5473C12.1557 17.9198 12.3679 18.3338 12.4593 18.8682L12.5215 19.2318H18.0336C22.8895 19.2318 23.5707 19.2422 23.7552 19.3194C24.204 19.5072 24.5 19.9431 24.5 20.4163C24.5 20.9143 24.2863 21.2744 23.852 21.5085L23.6267 21.63L18.0739 21.6452L12.5211 21.6604L12.4577 22.031C12.3247 22.8084 11.8366 23.4556 11.1181 23.8071L10.7237 24H8.89133H7.05894L6.66571 23.8065C5.94754 23.4532 5.46005 22.8069 5.32758 22.0326L5.26447 21.6636L3.31748 21.6468L1.37049 21.63L1.11942 21.4889C0.742022 21.2769 0.535631 20.9464 0.507853 20.5097C0.482328 20.1084 0.590002 19.8276 0.87229 19.5592C1.2063 19.2418 1.28226 19.2318 3.35749 19.2318H5.26357L5.32572 18.8682C5.41706 18.3344 5.62942 17.9199 6.00293 17.5467C6.36922 17.1806 6.78775 16.9585 7.28297 16.867C7.73322 16.784 10.183 16.7953 10.5829 16.8822ZM7.70927 20.445V21.6582H8.89251H10.0758V20.445V19.2318H8.89251H7.70927V20.445Z" fill="#7994FD"/>
</svg>
