<svg width="24" height="21" viewBox="0 0 24 21" fill="none" xmlns="http://www.w3.org/2000/svg">
<path d="M21.8113 0.49702C21.5174 0.510692 21.2405 0.596141 20.9944 0.691844H20.991C20.7415 0.790965 19.5555 1.28999 17.7542 2.04536C15.9529 2.80415 13.615 3.78852 11.2942 4.76606C6.65947 6.71772 2.10332 8.63862 2.10332 8.63862L2.158 8.61811C2.158 8.61811 1.84355 8.72065 1.51543 8.94624C1.34795 9.05561 1.16337 9.206 1.00273 9.44184C0.842086 9.67768 0.712203 10.04 0.760055 10.4125C0.838668 11.0449 1.24882 11.4243 1.54277 11.6328C1.84013 11.8447 2.12382 11.9438 2.12382 11.9438H2.13066L6.40312 13.3828C6.59453 13.998 7.70537 17.6484 7.97197 18.4892C8.12919 18.9916 8.283 19.3061 8.47441 19.5454C8.56669 19.6684 8.67607 19.7709 8.80595 19.853C8.85722 19.8837 8.91191 19.9077 8.9666 19.9282C8.98369 19.9384 9.00078 19.9418 9.02128 19.9453L8.97685 19.935C8.99052 19.9384 9.00078 19.9487 9.01103 19.9521C9.04521 19.9624 9.06914 19.9658 9.11357 19.9726C9.79033 20.1777 10.3338 19.7573 10.3338 19.7573L10.3645 19.7333L12.887 17.4365L17.115 20.6801L17.2107 20.7211C18.0926 21.1074 18.9847 20.892 19.4563 20.5126C19.9314 20.1298 20.116 19.6411 20.116 19.6411L20.1468 19.5625L23.4143 2.82466C23.5066 2.41108 23.5306 2.02485 23.428 1.64888C23.3255 1.2729 23.0623 0.920848 22.7444 0.73286C22.4231 0.541454 22.1053 0.483348 21.8113 0.49702ZM21.7225 2.29145C21.719 2.34614 21.7293 2.33931 21.7054 2.44526V2.45552L18.4685 19.019C18.4549 19.0429 18.431 19.0942 18.366 19.1455C18.2977 19.2001 18.243 19.2343 17.9593 19.1215L12.7879 15.1567L9.66386 18.0039L10.3201 13.8134C10.3201 13.8134 18.4207 6.26313 18.7693 5.93843C19.118 5.61372 19.0018 5.54536 19.0018 5.54536C19.0257 5.14888 18.4754 5.42915 18.4754 5.42915L7.82158 12.0292L7.81816 12.0122L2.71171 10.2929V10.2895C2.7083 10.2895 2.70146 10.2861 2.69804 10.2861C2.70146 10.2861 2.72539 10.2758 2.72539 10.2758L2.75273 10.2622L2.78007 10.2519C2.78007 10.2519 7.33964 8.331 11.9744 6.37934C14.2952 5.40181 16.6331 4.41743 18.431 3.65864C20.2288 2.90327 21.5584 2.34956 21.6336 2.3188C21.7054 2.29145 21.6712 2.29145 21.7225 2.29145Z" fill="#5799E9"/>
</svg>
