<svg width="56" height="51" viewBox="0 0 56 51" fill="none" xmlns="http://www.w3.org/2000/svg">
<path fill-rule="evenodd" clip-rule="evenodd" d="M11.2365 0.0557436C10.1598 0.331931 9.21395 1.08994 8.72874 2.06554C8.48806 2.54952 8.4382 2.84452 8.39861 4.02199L8.35202 5.40851L5.93416 5.44681C5.93416 5.44681 3.87958 5.50961 3.58764 5.52831C3.29569 5.547 2.63428 5.91085 2.63428 5.91085C1.57184 6.42355 0.773549 7.09071 0.259498 8.14998C0.259498 8.14998 0.0843388 8.51953 0.0259504 8.90468C-0.032438 9.28983 0.0259504 25.4955 0.0259504 25.4955V42.0864L0.462112 42.9476C0.987374 43.9851 1.66351 44.6313 2.74918 45.1333L3.52925 45.4941L16.4067 45.525L29.2841 45.556L29.5733 45.2738C29.955 44.9011 29.9561 44.3783 29.5757 44.0071L29.2892 43.7273H16.773C7.2876 43.7273 4.14058 43.6938 3.77635 43.5887C3.1349 43.4037 2.16752 42.4594 1.97799 41.8333C1.87032 41.4775 1.83599 38.3459 1.83599 28.8674V16.3707H26.1256H50.4151V21.1063V25.8419L50.7018 26.1216C51.0825 26.4934 51.6177 26.4919 52.0005 26.1182L52.2907 25.835L52.258 17.3698L52.2285 9.75106C52.2263 9.19394 52.0989 8.64445 51.8556 8.14326V8.14326C51.3415 7.08399 50.6793 6.42355 49.6168 5.91085V5.91085C49.0359 5.63039 48.4008 5.47981 47.7558 5.46959L46.3191 5.44681L43.9032 5.40851L43.8548 4.02199C43.809 2.70796 43.7858 2.59774 43.4113 1.91451C42.9833 1.13336 42.4882 0.670354 41.6605 0.276876C40.8807 -0.0938058 39.3723 -0.0816091 38.5623 0.301839C37.818 0.654282 37.1167 1.33865 36.7552 2.06554C36.514 2.55032 36.4647 2.84418 36.4248 4.03179L36.3779 5.42812H33.1343H29.8906L29.8419 4.03179C29.7957 2.70682 29.7731 2.59865 29.3981 1.91451C28.9701 1.13336 28.475 0.670354 27.6473 0.276876C26.8674 -0.0938058 25.359 -0.0816091 24.5491 0.301839C23.8047 0.654282 23.1035 1.33865 22.742 2.06554C22.5008 2.55032 22.4515 2.84418 22.4116 4.03179L22.3647 5.42812H19.1211H15.8773L15.8287 4.03179C15.7825 2.70682 15.7599 2.59865 15.3849 1.91451C14.735 0.728601 13.7184 0.0887996 12.3591 0.0103774C11.9344 -0.0141295 11.4292 0.00627378 11.2365 0.0557436ZM13.1357 2.08514C13.8164 2.58121 13.9195 2.84292 13.9619 4.18225L14.0014 5.42812H12.1226H10.2439V4.35266C10.2439 2.88715 10.5048 2.31859 11.3533 1.93514C11.8187 1.72484 12.7487 1.80314 13.1357 2.08514ZM27.1489 2.08514C27.8296 2.58121 27.9327 2.84292 27.9751 4.18225L28.0147 5.42812H26.1358H24.2571V4.35266C24.2571 2.88715 24.518 2.31859 25.3665 1.93514C25.8319 1.72484 26.7619 1.80314 27.1489 2.08514ZM41.1621 2.08514C41.8428 2.58121 41.9459 2.84292 41.9883 4.18225L42.0279 5.42812H40.1491H38.2703V4.35266C38.2703 2.88715 38.5312 2.31859 39.3797 1.93514C39.8451 1.72484 40.7751 1.80314 41.1621 2.08514ZM8.39966 8.64821C8.44205 9.77747 8.50068 10.1434 8.70655 10.561C9.10219 11.3639 9.57806 11.8505 10.3811 12.2732C11.0562 12.6285 11.2051 12.662 12.1123 12.662C13.0189 12.662 13.1688 12.6284 13.8408 12.2747C14.2455 12.0616 14.7083 11.7346 14.8691 11.5481C15.3078 11.0391 15.7003 10.2175 15.793 9.61356L15.8757 9.07566H14.9525H14.0292L13.8931 9.57264C13.5534 10.8121 11.9417 11.302 10.9321 10.4728C10.3884 10.0262 10.2439 9.57822 10.2439 8.3384V7.25189H16.3022H22.3606L22.4129 8.64821C22.4553 9.77747 22.5139 10.1434 22.7198 10.561C23.1154 11.3639 23.5913 11.8505 24.3943 12.2732C25.0713 12.6295 25.2159 12.6618 26.1256 12.6595C26.969 12.6573 27.2077 12.6115 27.7145 12.3545C28.0427 12.188 28.4674 11.9235 28.6586 11.7665C29.1189 11.3883 29.7049 10.2917 29.8069 9.61709L29.8889 9.07566H28.9657H28.0425L27.9063 9.57264C27.5666 10.8121 25.955 11.302 24.9453 10.4728C24.4016 10.0262 24.2571 9.57822 24.2571 8.3384V7.25189H30.3154H36.3738L36.4261 8.64821C36.4685 9.77747 36.5271 10.1434 36.733 10.561C37.1286 11.3639 37.6045 11.8505 38.4076 12.2732C39.0826 12.6285 39.2315 12.662 40.1388 12.662C41.0453 12.662 41.1953 12.6284 41.8672 12.2747C42.2719 12.0616 42.7347 11.7346 42.8955 11.5481C43.3343 11.0391 43.7267 10.2175 43.8195 9.61356L43.9021 9.07566H42.9789H42.0557L41.9195 9.57264C41.5798 10.8121 39.9682 11.302 38.9585 10.4728C38.4148 10.0262 38.2703 9.57822 38.2703 8.3384V7.25189H43.1322C46.6081 7.25189 48.1311 7.29144 48.4748 7.39049C49.1162 7.57549 50.0836 8.51975 50.2731 9.14587C50.3654 9.4509 50.4151 10.478 50.4151 12.081V14.547H26.1256H1.83599V12.081C1.83599 10.478 1.88574 9.4509 1.97799 9.14587C2.15374 8.56523 3.13128 7.5772 3.70442 7.40087C3.9326 7.33065 5.04817 7.27001 6.23018 7.26351L8.34735 7.25189L8.39966 8.64821ZM7.44128 22.7539V24.5777H9.3097H11.1781V22.7539V20.9302H9.3097H7.44128V22.7539ZM15.8492 22.7539V24.5777H17.7176H19.5861V22.7539V20.9302H17.7176H15.8492V22.7539ZM24.2571 22.7539V24.5777H26.1256H27.994V22.7539V20.9302H26.1256H24.2571V22.7539ZM32.6651 22.7539V24.5777H34.5335H36.4019V22.7539V20.9302H34.5335H32.6651V22.7539ZM41.073 22.7539V24.5777H42.9414H44.8098V22.7539V20.9302H42.9414H41.073V22.7539ZM40.8394 25.6649C37.6141 26.1626 34.5079 27.9847 32.5406 30.5332C26.746 38.0394 30.8633 48.748 40.3139 50.7505C42.37 51.1862 44.9207 51.0445 47.0141 50.3783C49.0421 49.7329 51.3283 48.2757 52.6668 46.7754C57.2957 41.587 57.0801 34.0498 52.1654 29.2525C49.1798 26.3382 45.0182 25.02 40.8394 25.6649ZM45.6853 27.6566C47.819 28.2154 49.2519 29.0266 50.8239 30.5649C52.4152 32.1223 53.2337 33.5092 53.8188 35.6397C54.1629 36.8922 54.1958 39.4722 53.8832 40.6899C53.3385 42.8117 52.421 44.388 50.8223 45.9485C48.7386 47.9824 46.4638 48.9906 43.5837 49.1569C38.8638 49.4292 34.4011 46.6949 32.574 42.4111C31.985 41.0302 31.7927 39.9993 31.7993 38.256C31.8059 36.436 31.9525 35.6454 32.5569 34.1681C33.5978 31.6243 35.9291 29.2847 38.4726 28.2315C40.1985 27.5169 41.3787 27.3082 43.3501 27.3688C44.2931 27.3978 45.0569 27.4919 45.6853 27.6566ZM7.44128 30.049V31.8728H9.3097H11.1781V30.049V28.2253H9.3097H7.44128V30.049ZM15.8492 30.049V31.8728H17.7176H19.5861V30.049V28.2253H17.7176H15.8492V30.049ZM24.2571 30.049V31.8728H26.1256H27.994V30.049V28.2253H26.1256H24.2571V30.049ZM41.5985 28.3045C40.9004 28.3944 39.4812 28.7888 38.8046 29.0811C33.1785 31.5109 30.9877 38.2432 34.1405 43.4134C34.8905 44.6433 36.3977 46.1145 37.6577 46.8465C41.7058 49.1986 46.8738 48.5753 50.1936 45.3348C51.5002 44.0596 52.4272 42.4532 52.9359 40.5831C53.2557 39.4069 53.2379 37.0239 52.9 35.8053C51.8243 31.9256 48.6796 29.0681 44.7495 28.3991C43.8035 28.238 42.4339 28.197 41.5985 28.3045ZM44.4784 30.21C45.6719 30.4341 46.527 30.7695 47.5199 31.4029C48.6973 32.1542 49.8121 33.3624 50.4001 34.5249C51.1173 35.9428 51.2901 36.6993 51.2785 38.37C51.2699 39.5844 51.2231 39.9295 50.9615 40.7067C50.522 42.013 49.908 42.9692 48.839 44.0126C47.77 45.056 46.7904 45.6554 45.4521 46.0844C44.6559 46.3397 44.3023 46.3855 43.0582 46.3938C41.3466 46.4052 40.5716 46.2365 39.119 45.5364C37.4271 44.721 35.7685 42.9434 35.1132 41.2432C34.2162 38.9161 34.4257 36.2431 35.6687 34.1525C36.2116 33.2396 37.7484 31.7195 38.6508 31.2029C40.4272 30.186 42.4845 29.8355 44.4784 30.21ZM42.0072 35.7211V38.6575L43.9924 40.5927L45.9776 42.528L46.6477 41.8739L47.3179 41.2199L45.5967 39.5371L43.8756 37.8543V35.3195V32.7847H42.9414H42.0072V35.7211ZM7.44128 37.3441V39.1679H9.3097H11.1781V37.3441V35.5203H9.3097H7.44128V37.3441ZM15.8492 37.3441V39.1679H17.7176H19.5861V37.3441V35.5203H17.7176H15.8492V37.3441Z" fill="white"/>
</svg>
