<svg width="76" height="75" viewBox="0 0 76 75" fill="none" xmlns="http://www.w3.org/2000/svg">
<path fill-rule="evenodd" clip-rule="evenodd" d="M2.84133 0.723887C1.99949 1.04827 1.24614 1.715 0.798508 2.53204L0.481201 3.1113V37.5047V71.8981L0.798508 72.4773C1.17261 73.1601 1.8922 73.8587 2.6093 74.2351C3.1039 74.4947 4.08341 74.5062 28.9476 74.5425C57.3533 74.5841 55.5003 74.64 56.6469 73.7074C56.9399 73.4692 57.3505 72.9355 57.5597 72.5215L57.9398 71.7688V64.8714V57.974L57.6002 57.6591C57.116 57.2104 56.3318 57.2371 55.8739 57.7179L55.5182 58.0913L55.4818 64.5603C55.4617 68.1181 55.4112 71.1746 55.3695 71.3524C55.181 72.1569 56.6123 72.1153 29.0965 72.1153H3.76082L3.33182 71.692L2.90283 71.2687V37.5239V3.77918L3.25697 3.37283L3.61126 2.96648L28.9776 2.9284C46.8697 2.9016 54.4572 2.93636 54.728 3.04656C54.9392 3.13244 55.1871 3.34517 55.2788 3.51909C55.3985 3.74616 55.4558 7.21417 55.4819 15.8072L55.5182 27.779L55.8739 28.1526C56.3466 28.6489 57.1675 28.667 57.6207 28.1911L57.9398 27.8559V15.5482V3.24061L57.5534 2.47556C57.1078 1.59321 56.1462 0.822216 55.1963 0.58559C54.7745 0.480455 46.5558 0.434404 29.0721 0.439038C4.27171 0.445554 3.54316 0.453519 2.84133 0.723887ZM12.495 7.96142C11.7726 8.24902 11.7087 8.54603 11.7087 11.6217C11.7087 14.4765 11.7108 14.4943 12.069 14.8478L12.4292 15.2033H29.2149H46.0006L46.2979 14.8775C46.7391 14.3938 46.8053 14.082 46.5799 13.5494C46.4428 13.2257 46.2219 13.0169 45.8989 12.9058C45.5538 12.7872 41.0798 12.7414 29.8124 12.7414H14.2037V11.5105V10.2796H30.1022H46.0006L46.2979 9.95377C46.7391 9.47009 46.8053 9.15831 46.5799 8.62568C46.4428 8.30202 46.2219 8.0932 45.8989 7.98212C45.3196 7.78286 12.9937 7.76273 12.495 7.96142ZM70.2001 15.6458C69.4124 16.0337 68.8512 16.5816 68.3469 17.4553C67.9518 18.1398 67.8927 18.1831 67.4254 18.1293C67.1506 18.0977 66.7947 18.141 66.6343 18.2257C66.474 18.3104 65.6775 19.5059 64.8646 20.8825C62.8428 24.3054 63.1386 24.0142 62.1621 23.5429C61.3895 23.1698 61.3229 23.1611 60.8237 23.3669C60.46 23.5168 60.2651 23.709 60.1901 23.9912C59.97 24.8194 60.1545 25.1675 61.1312 25.7675L61.7542 26.1501L56.4597 35.1943L51.1651 44.2386L49.8495 47.6985C49.1259 49.6015 48.1406 51.9001 47.6598 52.8065C46.8728 54.2901 46.7856 54.5419 46.7856 55.3294C46.7856 55.8984 46.8938 56.4526 47.095 56.9141L47.4044 57.6239L46.1168 59.1856C45.4085 60.0446 44.7832 60.8004 44.7268 60.865C44.6706 60.9297 44.4105 60.4588 44.149 59.8185C43.4103 58.0107 42.3949 57.2915 40.9564 57.5578C40.4228 57.6566 39.4424 58.4819 39.0705 59.1456C38.9495 59.3614 38.8593 58.8061 38.6751 56.7133C38.4097 53.6991 38.2744 53.3062 37.2703 52.633C36.3239 51.9984 34.9016 52.2198 34.133 53.1212C33.5828 53.7663 30.4047 63.1979 30.5478 63.7605C30.677 64.2681 31.4632 64.7653 31.9623 64.6551C32.1641 64.6105 32.4613 64.4289 32.6228 64.2512C32.7901 64.0672 33.5452 62.0149 34.3793 59.4778C35.1838 57.03 35.8821 55.0272 35.9309 55.0272C35.9796 55.0272 36.1039 56.1188 36.2071 57.4529C36.3122 58.8114 36.4881 60.1006 36.6072 60.3833C37.4075 62.2852 39.765 62.5458 40.9655 60.8653C41.211 60.5216 41.4547 60.2405 41.5072 60.2405C41.5596 60.2405 41.7852 60.7002 42.0086 61.2619C42.5158 62.5376 42.9458 63.0485 43.7747 63.361C44.5411 63.6497 45.3071 63.5598 45.9965 63.1C46.2485 62.9319 47.136 61.9396 47.9687 60.8948L49.4826 58.9951L50.3225 59.0551C50.9903 59.1027 51.3236 59.0422 51.9474 58.7605C52.9264 58.3183 53.313 57.9157 54.4591 56.1448C54.9609 55.3696 56.3688 53.5465 57.5878 52.0936L59.8044 49.4519L65.1259 40.3286C68.0525 35.3108 70.4665 31.1844 70.4901 31.1589C70.5914 31.0499 71.7363 31.7364 71.9462 32.032C72.4221 32.7026 72.2652 33.0771 69.5918 37.6495C68.1714 40.0788 66.9748 42.2752 66.9327 42.5303C66.8697 42.9123 66.9381 43.075 67.3206 43.4524C67.7088 43.8352 67.8598 43.8956 68.242 43.8202C68.4934 43.7705 68.7846 43.66 68.8889 43.5744C69.1845 43.3325 74.3773 34.3897 74.5328 33.8551C75.0183 32.1846 74.3258 30.5904 72.6577 29.5379L71.7451 28.9621L73.3548 26.2141C75.0668 23.2916 75.2496 22.7435 74.6813 22.2359C74.4029 21.9873 74.4067 21.9671 74.9064 21.0699C75.5374 19.9374 75.6702 19.009 75.3541 17.9427C74.8765 16.3324 73.497 15.3433 71.7436 15.3539C71.0891 15.3578 70.5959 15.4511 70.2001 15.6458ZM15.8656 18.1358C15.4226 18.6215 15.3584 18.9315 15.588 19.4743C15.7461 19.8475 15.929 20.0021 16.3571 20.1252C16.7563 20.2399 20.5866 20.274 29.5902 20.243L42.2614 20.1994L42.6156 19.793C43.0783 19.2621 43.076 18.6257 42.6094 18.1655L42.2493 17.8099H29.2061H16.1629L15.8656 18.1358ZM72.6126 18.096C73.0813 18.5583 73.1226 19.0319 72.7593 19.7728C72.5792 20.1397 72.3507 20.4706 72.2514 20.5083C72.1155 20.5597 70.5195 19.7675 70.1402 19.4601C70.0366 19.3763 70.8616 18.1103 71.1148 17.9648C71.5401 17.7203 72.2993 17.7868 72.6126 18.096ZM69.8835 22.1752C71.0233 22.824 71.9807 23.3752 72.011 23.4002C72.0543 23.4361 69.7818 27.4204 69.5931 27.6394C69.5564 27.6819 65.5217 25.4421 65.2976 25.2548C65.2383 25.2053 67.6655 21.0017 67.7554 20.998C67.7861 20.9969 68.7438 21.5266 69.8835 22.1752ZM21.2618 26.5107C20.7534 26.7128 20.5246 27.0742 20.5194 27.6829C20.5158 28.089 20.6065 28.2868 20.9014 28.5156C21.2865 28.8147 21.3443 28.8158 35.5111 28.8158H49.7343L50.0945 28.4603C50.5889 27.9726 50.581 27.2455 50.0761 26.7774L49.6973 26.4264L35.6564 26.3983C26.8452 26.3806 21.4837 26.4225 21.2618 26.5107ZM66.8558 28.9986C67.6024 29.4158 68.2133 29.815 68.2133 29.8857C68.2133 29.9858 58.9435 45.9149 58.3977 46.7527C58.2972 46.9069 57.8096 46.6887 56.1598 45.7513C54.9998 45.0921 54.0304 44.5382 54.0057 44.5204C53.972 44.496 60.1725 33.8328 63.6199 27.9869L63.9806 27.3751L64.7394 27.8076C65.1568 28.0456 66.109 28.5815 66.8558 28.9986ZM10.1339 33.8397C9.69116 33.9263 9.21373 34.5564 9.21373 35.0543C9.21373 35.278 9.37312 35.644 9.56788 35.8674L9.92217 36.2738H22.9118H35.9014L36.28 35.9227C36.8019 35.4389 36.8019 34.6468 36.2802 34.163L35.9015 33.8119L23.1814 33.7938C16.1852 33.784 10.3139 33.8047 10.1339 33.8397ZM40.2546 33.8394C39.2977 34.0801 38.9704 35.2654 39.6794 35.9227L40.0581 36.2738H44.9022H49.7463L50.1006 35.8674C50.5532 35.3483 50.5532 34.7376 50.1008 34.2183L49.7468 33.8119L45.1474 33.7888C42.6178 33.776 40.416 33.7987 40.2546 33.8394ZM9.87418 40.1415C9.12156 40.5672 8.97891 41.4858 9.57404 42.0729L9.9342 42.4284H16.672H23.4099L23.7969 42.0466C24.3225 41.5279 24.3074 40.9351 23.7548 40.3898L23.3258 39.9665L16.7467 39.9709C12.0745 39.9741 10.0826 40.0234 9.87418 40.1415ZM27.4126 40.1539C26.6155 40.5517 26.5194 41.5905 27.2287 42.1411C27.5808 42.4143 27.834 42.4284 32.3947 42.4284C37.0094 42.4284 37.2026 42.4172 37.5099 42.1347C38.1787 41.52 38.048 40.5545 37.2415 40.1517C36.7206 39.8918 27.9341 39.8937 27.4126 40.1539ZM55.337 48.112C56.0448 48.51 56.6598 48.8932 56.704 48.9637C56.7482 49.0342 56.074 49.9363 55.2058 50.9682L53.6274 52.8446L52.8115 52.3859C52.3629 52.1337 51.8145 51.8265 51.5931 51.7033C51.3716 51.5801 51.1901 51.4397 51.1895 51.3915C51.1884 51.2851 52.7963 47.0456 52.9013 46.8778C52.9421 46.8126 53.2175 46.9008 53.5131 47.0739C53.8086 47.2469 54.6295 47.7141 55.337 48.112ZM13.9102 48.8777C9.91043 49.7135 6.78638 52.6754 5.74406 56.6202C5.36173 58.067 5.39255 60.4583 5.81201 61.8994C6.86608 65.5209 9.59121 68.2092 13.2564 69.2435C14.1493 69.4953 14.8036 69.5734 16.0383 69.5748C18.038 69.5774 18.8566 69.3873 20.786 68.4721C22.0517 67.8718 22.4945 67.5661 23.4414 66.639C25.3645 64.7561 26.4743 62.4371 26.6348 59.9657C26.7137 58.7504 26.7058 58.7103 26.3103 58.3217C25.4357 57.4624 24.1863 58.1064 24.1816 59.419C24.1751 61.2256 23.2376 63.3488 21.8366 64.7298C20.2128 66.3303 18.3591 67.1008 16.1117 67.1095C11.5144 67.1275 7.95786 63.6182 7.97606 59.082C7.98487 56.8645 8.7658 55.0355 10.3879 53.4332C12.3407 51.5043 15.169 50.7146 17.8727 51.3433C18.7269 51.542 19.1738 51.7339 21.1237 52.7394C21.6152 52.993 21.7027 52.9979 22.1826 52.8001C22.7387 52.5709 22.9232 52.1951 22.8377 51.4655C22.7414 50.6443 20.3782 49.3225 18.1867 48.8642C16.9732 48.6104 15.1623 48.6161 13.9102 48.8777ZM51.2749 54.388C51.7924 54.6736 52.2159 54.9369 52.2159 54.9731C52.2159 55.2084 51.576 56.2059 51.3047 56.3934C50.5212 56.9349 49.4085 56.3908 49.3906 55.4576C49.3809 54.9466 49.9221 53.8687 50.1885 53.8687C50.2684 53.8687 50.7572 54.1024 51.2749 54.388ZM20.6614 55.5677C20.5403 55.6134 19.3658 56.661 18.0513 57.8958L15.6614 60.141L14.1467 58.6702C12.9031 57.4628 12.5528 57.1994 12.1903 57.1994C11.568 57.1994 10.9749 57.8146 10.9749 58.4603C10.9749 58.8965 11.1659 59.1508 12.5289 60.5299C13.3835 61.3947 14.3132 62.2101 14.5949 62.3419C15.1847 62.6181 16.1408 62.6521 16.7588 62.4188C17.3257 62.2048 21.8168 57.8328 22.0705 57.2479C22.3554 56.5912 22.0975 55.9288 21.4535 55.6632C21.1845 55.5525 20.9457 55.4669 20.923 55.4731C20.9002 55.4793 20.7825 55.5219 20.6614 55.5677Z" fill="#29BB7F"/>
</svg>
