<svg width="74" height="75" viewBox="0 0 74 75" fill="none" xmlns="http://www.w3.org/2000/svg">
<path fill-rule="evenodd" clip-rule="evenodd" d="M3.14485 0.479527C1.71898 0.978048 0.638218 2.18278 0.334332 3.61207C0.21987 4.15027 0.187434 13.8005 0.218861 37.8625L0.262829 71.3637L0.572626 72.0394C0.96863 72.9032 1.90739 73.8497 2.76412 74.2489L3.43432 74.5612H30.7524H58.0704L58.7406 74.2489C59.5973 73.8497 60.5361 72.9032 60.9321 72.0394C61.2312 71.3871 61.2432 71.1553 61.2791 65.3321C61.32 58.6728 61.3309 58.7612 60.4229 58.3126C59.9539 58.081 59.8408 58.0744 59.415 58.2539C58.4722 58.6511 58.51 58.3952 58.4308 64.9302L58.3587 70.8793L57.8866 71.3043L57.4146 71.7294L30.68 71.6919L3.94536 71.6544L3.54575 71.2514L3.146 70.8485V37.4265V4.00449L3.54575 3.60161L3.94536 3.19858L30.68 3.16108L57.4146 3.12358L57.8866 3.5487L58.3587 3.97383L58.4308 12.4852L58.5029 20.9965L58.8862 21.383C59.4238 21.9247 60.3212 21.9247 60.8586 21.3827L61.2419 20.9962V12.2427C61.2419 3.59318 61.2382 3.48126 60.9321 2.81357C60.5361 1.9498 59.5973 1.00334 58.7406 0.604084L58.0704 0.291745L30.9686 0.259334C5.55849 0.228958 3.82167 0.242765 3.14485 0.479527ZM28.3929 8.28393C23.1702 9.37908 19.3078 13.0245 17.8933 18.1936C17.4487 19.8178 17.4529 23.0373 17.9015 24.7091C19.206 29.5705 22.9433 33.251 27.8169 34.4737C29.1751 34.8146 32.3296 34.8146 33.6879 34.4737C37.7301 33.4595 40.9363 30.838 42.7103 27.0968C43.6667 25.08 43.9214 23.8903 43.9214 21.4389C43.9214 19.7302 43.8626 19.1162 43.6107 18.1936C42.2911 13.3594 38.7093 9.75246 33.9713 8.48668C32.5004 8.09382 29.7727 7.99455 28.3929 8.28393ZM33.8518 11.473C35.4792 11.9885 36.6989 12.7548 38.0324 14.0992C39.3807 15.4586 40.1251 16.672 40.6633 18.3868C40.9971 19.4511 41.0498 19.8637 41.0436 21.3663C41.0353 23.3641 40.8005 24.443 40.0317 26.0172C39.1721 27.7774 39.287 27.753 38.0567 26.4358C37.172 25.4884 35.7068 24.3878 35.0257 24.1589C34.9494 24.1333 35.1055 23.6645 35.3728 23.1175C35.7933 22.256 35.8664 21.943 35.9166 20.7843C35.9871 19.1603 35.7205 18.0722 34.9841 16.9775C34.0069 15.5248 32.5476 14.7601 30.7524 14.7601C27.5193 14.7601 25.4182 17.2471 25.5901 20.8705C25.6405 21.9341 25.725 22.2839 26.1338 23.1211C26.3999 23.6663 26.5553 24.1333 26.4791 24.1589C25.7979 24.3878 24.3327 25.4884 23.448 26.4358C22.2177 27.753 22.3326 27.7774 21.473 26.0172C20.6865 24.4067 20.4655 23.3694 20.4672 21.2936C20.4684 19.6482 20.5099 19.3572 20.9059 18.208C21.5134 16.446 22.1317 15.4567 23.4724 14.1019C24.8164 12.7437 26.0426 11.9766 27.653 11.4865C29.1942 11.0175 29.4252 10.9892 31.1848 11.0528C32.2796 11.0925 33.0177 11.2088 33.8518 11.473ZM32.0903 18.0305C32.6976 18.4747 33.0589 19.3582 33.0589 20.3995C33.0589 21.5399 32.8026 22.1607 32.1124 22.6915C31.6606 23.039 31.4288 23.1104 30.7524 23.1104C29.2969 23.1104 28.4458 22.1217 28.4458 20.4313C28.4458 19.1228 28.9298 18.1903 29.8153 17.7923C30.2997 17.5746 31.6619 17.7173 32.0903 18.0305ZM66.4486 18.5402C65.4796 18.7837 64.1907 19.5774 63.5234 20.3416C62.7234 21.2575 44.6305 52.8073 44.4322 53.6321C44.2548 54.3695 43.15 64.3782 43.15 65.2476C43.15 66.1057 43.5819 66.6288 44.3797 66.7366C45.0042 66.8211 45.0672 66.7781 53.0289 60.8282L54.907 59.4247L64.0067 43.5204C69.0115 34.7729 73.2375 27.3508 73.3975 27.0267C74.8535 24.0798 73.4859 20.3811 70.3984 18.9164C69.6208 18.5475 69.2579 18.4668 68.2361 18.4363C67.5608 18.4161 66.7564 18.4629 66.4486 18.5402ZM69.1356 21.5062C69.9338 21.8424 70.4758 22.3887 70.8263 23.2102C71.3226 24.3735 71.1867 25.1563 70.1754 26.957C69.7251 27.7591 69.2956 28.4153 69.2212 28.4153C69.147 28.4153 67.8883 27.7206 66.4246 26.8715L63.763 25.3277L64.0331 24.8731C64.1817 24.6231 64.4861 24.0914 64.7092 23.6917C65.3604 22.5259 65.885 21.9263 66.54 21.5994C67.2659 21.2372 68.4004 21.1965 69.1356 21.5062ZM32.416 26.3122C34.1597 26.7638 35.8886 27.9517 36.6793 29.2416L36.997 29.7599L36.6498 30.0283C36.0639 30.4809 34.3347 31.2813 33.3472 31.5569C32.6956 31.7387 31.9052 31.8183 30.7524 31.8183C29.5995 31.8183 28.8091 31.7387 28.1575 31.5569C27.17 31.2813 25.4408 30.4809 24.855 30.0283L24.5077 29.7599L24.8254 29.2416C25.0002 28.9564 25.4971 28.3972 25.9295 27.9986C27.6825 26.3833 30.1811 25.7338 32.416 26.3122ZM65.2784 29.5578C66.7156 30.4037 67.7106 31.0774 67.6845 31.187C67.6384 31.3801 53.5949 55.9705 53.3576 56.2735C53.261 56.3969 52.488 56.0148 50.5651 54.8928C49.1027 54.0395 47.9058 53.276 47.9052 53.196C47.9046 53.1161 49.7013 49.9113 51.8977 46.0743C62.7717 27.0782 62.3297 27.8265 62.5869 27.9758C62.7192 28.0527 63.9305 28.7646 65.2784 29.5578ZM11.291 39.6463C10.7483 39.9182 10.3792 40.7714 10.5769 41.2959C10.8075 41.9074 11.1263 42.2058 11.656 42.3059C13.2554 42.6084 13.9492 40.3762 12.4898 39.6236C12.0843 39.4146 11.74 39.4212 11.291 39.6463ZM17.5619 39.5986C16.6441 39.9774 16.4002 41.1903 17.0998 41.8957L17.4963 42.2954L28.2276 42.3345L38.9589 42.3735L39.4294 41.9497C39.8194 41.5984 39.9 41.4212 39.9 40.9147C39.9 40.4089 39.8192 40.231 39.4323 39.8825L38.9648 39.4613L28.4075 39.4704C22.6009 39.4755 17.7204 39.5332 17.5619 39.5986ZM11.291 47.7854C10.7483 48.0574 10.3792 48.9105 10.5769 49.435C10.8075 50.0465 11.1263 50.3449 11.656 50.445C13.2554 50.7475 13.9492 48.5153 12.4898 47.7627C12.0843 47.5537 11.74 47.5603 11.291 47.7854ZM17.5619 47.7377C16.6441 48.1165 16.4002 49.3294 17.0998 50.0349L17.4963 50.4346L28.2276 50.4737L38.9589 50.5126L39.4294 50.0888C39.8194 49.7375 39.9 49.5603 39.9 49.0538C39.9 48.548 39.8192 48.3701 39.4323 48.0216L38.9648 47.6004L28.4075 47.6096C22.6009 47.6146 17.7204 47.6723 17.5619 47.7377ZM11.291 55.9245C10.7483 56.1965 10.3792 57.0496 10.5769 57.5742C10.8075 58.1856 11.1263 58.484 11.656 58.5841C13.2554 58.8866 13.9492 56.6544 12.4898 55.9019C12.0843 55.6929 11.74 55.6994 11.291 55.9245ZM17.5619 55.8769C16.6441 56.2556 16.4002 57.4685 17.0998 58.174L17.4963 58.5737L28.2276 58.6128L38.9589 58.6517L39.4294 58.2279C39.8194 57.8766 39.9 57.6995 39.9 57.1929C39.9 56.6871 39.8192 56.5093 39.4323 56.1607L38.9648 55.7395L28.4075 55.7487C22.6009 55.7538 17.7204 55.8115 17.5619 55.8769ZM51.0705 58.6309C51.0609 58.7353 46.4309 62.1481 46.3753 62.092C46.3323 62.0486 46.8771 57.0049 46.978 56.5123C47.0388 56.2152 47.1706 56.2694 49.0608 57.3691C50.1707 58.0147 51.0751 58.5826 51.0705 58.6309ZM30.2317 64.0211C29.7779 64.206 29.3108 64.8796 29.3108 65.3493C29.3108 65.6015 29.4753 65.9492 29.7313 66.2381L30.1517 66.7128L34.5517 66.7551L38.9515 66.7974L39.4257 66.3704C39.8195 66.0156 39.9 65.8396 39.9 65.3321C39.9 64.8263 39.8192 64.6484 39.4323 64.2998L38.9648 63.8786L34.7505 63.8878C32.4325 63.8929 30.3992 63.9529 30.2317 64.0211Z" fill="#29BB7F"/>
</svg>
