<svg width="74" height="75" viewBox="0 0 74 75" fill="none" xmlns="http://www.w3.org/2000/svg">
<path fill-rule="evenodd" clip-rule="evenodd" d="M64.5379 0.781807L64.1712 1.15269V5.57463V9.99642H34.9749C14.154 9.99642 5.56111 10.0425 5.02013 10.157C3.23744 10.5341 1.68151 11.8132 0.852366 13.5832L0.396423 14.5565V42.2862V70.0159L0.929812 71.1071C1.58259 72.4429 2.53613 73.3885 3.87175 74.0248C4.78937 74.462 4.93094 74.4857 6.90989 74.5367C8.9703 74.5896 8.98848 74.5872 9.37929 74.2204L9.77296 73.8508V69.4287V65.0065H38.9692C59.7901 65.0065 68.383 64.9604 68.924 64.8459C71.1598 64.373 72.9824 62.5207 73.4671 60.2293C73.5938 59.6307 73.6247 52.681 73.5917 32.2176L73.5477 5.00209L73.0918 4.02885C72.4583 2.67647 71.5234 1.71321 70.2047 1.05411C69.1297 0.51689 69.1188 0.514864 67.0154 0.463038C64.9106 0.411068 64.9037 0.411937 64.5379 0.781807ZM69.2231 3.20891C70.0491 3.62814 70.4384 4.0148 70.842 4.81636L71.1857 5.49921V29.8126V54.1261L70.3626 53.7141C69.4704 53.2676 68.2423 52.9911 67.1511 52.9911H66.4616V27.9471V2.90302H67.541C68.354 2.90302 68.7691 2.97844 69.2231 3.20891ZM35.8268 13.3591V14.2609L34.6458 15.4609L33.4648 16.6612L33.4194 18.504L33.3739 20.347L32.565 21.1794L31.756 22.0118H30.4871H29.2183L27.943 20.771L26.6676 19.5304L24.4432 19.5767L22.2187 19.6232L20.1473 21.7321C17.4557 24.4723 17.4719 24.1925 19.8653 26.6386L21.6547 28.4675V29.6886V30.9098L20.1899 32.3961L18.7252 33.8824H17.4362H16.1474L14.3948 32.1142L12.642 30.3461L11.2075 30.2879L9.77296 30.2295V25.2794C9.77296 19.1062 10.0155 19.5941 6.90989 19.5175C5.08984 19.4726 4.58795 19.3096 3.75924 18.4946C2.34603 17.1043 2.44051 14.4276 3.94376 13.2681C5.03974 12.4227 4.07603 12.4693 20.6168 12.463L35.8268 12.4574V13.3591ZM64.1758 33.5566C64.1792 49.9142 64.2194 54.7076 64.3547 54.8856C64.7017 55.3426 65.1575 55.4521 66.713 55.4521C68.6044 55.4521 69.376 55.6827 70.1697 56.4854C71.765 58.0986 71.4573 60.8406 69.5469 62.035L68.8461 62.4731L39.3096 62.5103L9.77296 62.5475V60.8093V59.0712H12.1396C13.8265 59.0712 14.6385 59.0141 14.9668 58.8724C15.2202 58.7631 16.281 57.7926 17.3243 56.7156L19.2211 54.7575V52.4814V50.2053L18.0857 49.0286L16.9504 47.852L16.9047 45.4294L16.859 43.0068L15.3622 41.4884L13.8654 39.9699L11.855 39.93L9.84454 39.89L9.80631 36.3071L9.76795 32.7243H10.7299H11.6919L13.5005 34.5338L15.309 36.3433H17.3438C18.8227 36.3433 19.484 36.2873 19.7651 36.1381C19.9776 36.0251 21.0052 35.059 22.0483 33.9908L23.9451 32.0488V29.7592V27.4695L22.4121 25.8962L20.8789 24.3229L22.015 23.1674L23.1511 22.0118H24.5046H25.8581L27.0315 23.1699L28.2048 24.328H30.4638H32.7229L34.239 22.8135L35.7553 21.2991L35.8025 19.4477L35.8498 17.5965L36.9835 16.4199L38.1173 15.2432V13.8503V12.4574H51.1442H64.1712L64.1758 33.5566ZM49.9137 15.0293C46.882 16.1256 45.4851 20.6213 47.1504 23.9224C47.5714 24.7569 48.7414 25.9699 49.4267 26.2824L49.999 26.5434V30.792V35.0405H51.1442H52.2895V30.7977V26.5552L52.8575 26.3017C54.5811 25.5327 55.871 23.1377 55.8666 20.7147C55.8597 16.8534 52.8412 13.9706 49.9137 15.0293ZM52.1525 17.5603C53.0918 18.2004 53.7057 20.0889 53.4426 21.5287C53.2907 22.3589 52.8692 23.2978 52.5146 23.5953C52.3139 23.7638 52.2895 23.6878 52.2895 22.898V22.0118H51.1442H49.999V22.898C49.999 23.6878 49.9745 23.7638 49.7738 23.5953C49.2556 23.1605 48.9466 22.2466 48.882 20.9582C48.822 19.7611 48.8445 19.634 49.2685 18.7629C49.9833 17.2948 51.0873 16.8345 52.1525 17.5603ZM39.5807 20.8584C38.0695 21.17 36.6548 22.3963 36.1038 23.8724C35.8611 24.5231 35.8111 24.9136 35.8592 25.7859C35.9624 27.6557 36.9112 29.0784 38.5914 29.8823L39.4057 30.2718V32.6561V35.0405H40.5509H41.6961L41.6967 32.6157L41.6971 30.1909L42.3767 29.9101C42.7662 29.7489 43.4015 29.2811 43.8658 28.8132C44.5353 28.1386 44.7274 27.8275 44.9752 27.0161C45.3261 25.8673 45.3451 25.3881 45.0803 24.3561C44.4673 21.9659 41.9561 20.3689 39.5807 20.8584ZM5.25418 21.8563C5.72129 21.9419 6.41387 22.0118 6.79308 22.0118H7.48251V47.0558V72.0999H6.40413C4.75844 72.0999 3.74821 71.5001 3.06093 70.1152L2.75845 69.5057V45.1913V20.8768L3.58158 21.2888C4.03438 21.5154 4.78693 21.7707 5.25418 21.8563ZM41.8094 23.5576C42.0227 23.7172 42.3478 24.07 42.532 24.3413C43.0011 25.0327 42.9227 26.2468 42.3606 26.9919C42.1446 27.2784 41.9067 27.5128 41.832 27.5128C41.7573 27.5128 41.6961 27.0568 41.6961 26.4994V25.4861H40.5509H39.4057V26.4994C39.4057 27.0568 39.348 27.5128 39.2774 27.5128C39.0113 27.5128 38.2948 26.5128 38.2019 26.0119C38.0147 25.0029 38.4657 24.0486 39.4057 23.4649C40.0377 23.0725 41.2227 23.1181 41.8094 23.5576ZM59.4471 32.7243V33.8824H60.5924H61.7376V32.7243V31.5661H60.5924H59.4471V32.7243ZM58.4803 36.3161C58.146 36.6831 57.8724 37.0042 57.8724 37.0298C57.8724 37.0553 58.157 37.5052 58.5049 38.0295L59.1373 38.983L59.8773 38.2829C60.2843 37.8979 60.709 37.4037 60.8211 37.1846C61.0484 36.74 61.1076 36.8035 59.7329 36.0176L59.0881 35.6491L58.4803 36.3161ZM44.3429 37.6488C44.2934 37.7297 44.3306 38.2835 44.4256 38.8793L44.5984 39.9624H45.6525H46.7065V38.7319V37.5014H45.5697C44.9444 37.5014 44.3924 37.5677 44.3429 37.6488ZM49.1401 38.7319V39.9624H50.2853H51.4305V38.7319V37.5014H50.2853H49.1401V38.7319ZM53.8642 38.7319V39.9624L54.902 39.9602C55.4729 39.9589 56.0266 39.9023 56.1328 39.8343C56.2823 39.7385 56.3028 39.4626 56.2233 38.6061L56.121 37.5014H54.9926H53.8642V38.7319ZM40.793 39.5643C40.3071 40.171 39.7701 41.1071 39.8603 41.19C39.8858 41.2135 40.3731 41.4323 40.9433 41.6763L41.9799 42.1198L42.1418 41.8012C42.2308 41.6259 42.4647 41.3078 42.6614 41.0943L43.0191 40.7062L42.3365 39.8276C41.9611 39.3444 41.571 38.9491 41.4698 38.9491C41.3686 38.9491 41.0641 39.226 40.793 39.5643ZM25.7009 41.3437C23.3028 41.9968 21.323 44.013 20.6429 46.4949C20.3325 47.6271 20.4313 49.5919 20.8639 50.8961C21.339 52.3282 21.3264 52.3077 24.3331 56.5623C26.9834 60.3125 27.1785 60.4981 28.0071 60.0577C28.4192 59.8387 33.0729 53.3222 33.6823 52.111C34.8266 49.836 34.8398 47.0589 33.7166 44.816C33.2474 43.879 31.7941 42.4177 30.8507 41.9342C29.2968 41.1379 27.2979 40.9087 25.7009 41.3437ZM13.6783 43.1152L14.497 43.9518V46.3187V48.6856L15.7138 49.943L16.9306 51.2004V52.419V53.6376L15.4659 55.1239L14.0011 56.6102H11.887H9.77296V49.4444V42.2786H11.3163H12.8598L13.6783 43.1152ZM29.351 43.8731C30.4144 44.3486 31.1858 45.0873 31.6804 46.1033C32.4486 47.6812 32.4036 49.3639 31.5484 51.0507C31.1775 51.7822 27.6614 56.8844 27.524 56.8905C27.3321 56.899 23.45 51.1523 23.2016 50.4924C22.7852 49.3855 22.7036 47.8591 23.0083 46.8791C23.4883 45.3359 24.9257 43.9582 26.4374 43.5925C27.2485 43.3962 28.5697 43.5234 29.351 43.8731ZM40.5509 43.9695C39.417 44.0873 39.3669 44.1218 39.4724 44.7099C39.6012 45.4293 40.2095 46.7663 40.4077 46.7663C40.4951 46.7663 40.9543 46.5001 41.4281 46.1746C42.0864 45.7227 42.2656 45.5261 42.1871 45.3423C42.1307 45.2098 41.9896 44.8246 41.8734 44.4863C41.65 43.8356 41.6897 43.851 40.5509 43.9695ZM26.3787 47.0558V48.2139H27.524H28.6692V47.0558V45.8977H27.524H26.3787V47.0558ZM43.1622 47.7022C42.9069 48.2255 42.6982 48.7123 42.6982 48.7841C42.6982 48.9532 43.8683 49.323 44.7381 49.4286L45.4181 49.5113V48.3032V47.0952L44.8097 47.005C44.4752 46.9555 44.0719 46.878 43.9137 46.8329C43.6738 46.7644 43.5494 46.9083 43.1622 47.7022ZM47.8517 48.2863V49.5168H48.9079H49.9642L50.1247 48.4251C50.213 47.8248 50.2853 47.2711 50.2853 47.1946C50.2853 47.1169 49.7498 47.0558 49.0685 47.0558H47.8517V48.2863ZM52.3201 49.1644L51.7065 50.1089L52.3201 50.7513C52.6575 51.1048 52.9823 51.395 53.0417 51.3963C53.2759 51.4015 54.8662 50.3032 54.8662 50.1361C54.8662 49.9337 53.2426 48.2123 53.0559 48.217C52.9886 48.2186 52.6575 48.6449 52.3201 49.1644ZM54.5553 53.1218C54.1087 53.1702 53.7158 53.2421 53.6823 53.2815C53.6083 53.3684 53.2768 55.0566 53.3273 55.0892C53.3471 55.1019 53.7818 55.2627 54.2936 55.4466C54.8054 55.6306 55.2984 55.8092 55.389 55.8438C55.5939 55.9217 55.8683 54.6982 55.8683 53.7078C55.8683 53.1136 55.8255 52.9947 55.6178 53.0124C55.4801 53.0241 55.0018 53.0733 54.5553 53.1218ZM51.9303 56.9017C51.8809 56.9825 51.5889 57.1785 51.2811 57.3372L50.7217 57.6259L51.0994 58.6742C51.3073 59.2508 51.4991 59.75 51.5259 59.7834C51.6144 59.8939 52.9248 59.2055 53.4347 58.7808L53.9357 58.3633L53.1533 57.5591C52.3795 56.7639 52.1048 56.6163 51.9303 56.9017ZM32.248 58.9988V60.2293H33.3932H34.5385V58.9988V57.7683H33.3932H32.248V58.9988ZM36.9721 58.9988V60.241L38.1531 60.1989L39.3341 60.1569V58.9988V57.8407L38.1531 57.7987L36.9721 57.7566V58.9988ZM41.6961 58.9988V60.241L42.8771 60.1989L44.0582 60.1569V58.9988V57.8407L42.8771 57.7987L41.6961 57.7566V58.9988ZM46.4202 58.993V60.2293H47.6427H48.8654L48.8237 59.035L48.7822 57.8407L47.6012 57.7987L46.4202 57.7566V58.993Z" fill="#29BB7F"/>
</svg>
