<svg width="26" height="26" viewBox="0 0 26 26" fill="none" xmlns="http://www.w3.org/2000/svg">
<path fill-rule="evenodd" clip-rule="evenodd" d="M10.5749 17.4505C14.3802 18.8749 18.7654 17.3803 20.8638 13.7369C23.2027 9.67606 21.8147 4.48346 17.7637 2.13891C13.7126 -0.205639 8.53257 1.18572 6.19369 5.24659C4.0953 8.88992 4.99672 13.4442 8.1299 16.0354L4.18935 22.8772C3.79954 23.554 4.03092 24.4195 4.70604 24.8102C5.38117 25.2009 6.24456 24.9691 6.63437 24.2922L10.5749 17.4505ZM18.4188 12.3219C16.8596 15.0291 13.4062 15.9567 10.7055 14.3937C8.00484 12.8307 7.07947 9.36889 8.63872 6.66165C10.198 3.9544 13.6514 3.02686 16.352 4.58986C19.0527 6.15287 19.9781 9.61463 18.4188 12.3219Z" fill="#003153"/>
</svg>
