<svg width="286" height="280" viewBox="0 0 286 280" fill="none" xmlns="http://www.w3.org/2000/svg">
<path fill-rule="evenodd" clip-rule="evenodd" d="M154.669 6.28643e-09H0V280H286V6.28643e-09H154.669ZM154.669 6.28643e-09C152.19 3.75467e-05 149.689 0.168394 147.166 0.525356C131.075 2.80205 120.138 14.8683 108.964 27.196C101.949 34.9354 94.8406 42.7779 86.3046 48.3656C77.3161 54.2495 66.2985 57.6608 55.4488 61.0202C37.4106 66.6053 19.8363 72.0468 12.8209 88.4685C5.2297 106.238 14.3665 124.344 23.6059 142.654C27.9413 151.245 32.2993 159.881 34.9622 168.548C37.6668 177.351 39.1334 186.815 40.5913 196.223C43.7306 216.481 46.8297 236.48 62.1613 249.061C78.5193 262.484 100.314 261.638 122.18 260.79C130.6 260.463 139.031 260.136 147.166 260.623C156.485 261.181 166.348 263.204 176.221 265.229C199.863 270.079 223.552 274.938 239.905 259.702C254.086 246.491 251.772 226.547 249.382 205.946C247.774 192.088 246.131 177.932 249.452 165.326C252.541 153.598 260.19 143.146 267.697 132.889C278.367 118.31 288.749 104.124 285.34 87.2252C280.544 63.457 257.418 49.9953 235.498 37.2355C230.877 34.5459 226.31 31.8874 221.98 29.1701C219.719 27.7517 217.446 26.3012 215.159 24.8419C196.172 12.7259 176.228 -0.000326422 154.669 6.28643e-09Z" fill="white"/>
<path d="M112.921 22.8555C108.062 27.1575 103.533 32.1546 98.964 37.1955C97.5654 38.7385 96.163 40.2856 94.7464 41.8182C99.7722 37.3364 104.388 32.244 108.964 27.1954C110.283 25.7399 111.599 24.288 112.921 22.8555Z" fill="#FFD4DB"/>
<path d="M15.5126 83.4223C10.042 87.1741 5.60189 91.9583 2.82094 98.468C-4.7703 116.238 4.36653 134.344 13.6059 152.653C17.9413 161.244 22.2993 169.881 24.9622 178.548C27.6668 187.351 29.1334 196.815 30.5913 206.223C33.7306 226.481 36.8297 246.479 52.1613 259.06C68.5193 272.484 90.3138 271.638 112.18 270.789C120.6 270.462 129.031 270.135 137.166 270.622C146.485 271.18 156.349 273.204 166.221 275.229C189.863 280.078 213.552 284.938 229.905 269.702C231.99 267.759 233.718 265.672 235.142 263.458C219.131 274.031 197.657 269.626 176.221 265.229C166.349 263.204 156.485 261.18 147.166 260.622C139.031 260.135 130.6 260.462 122.18 260.789C100.314 261.638 78.5193 262.484 62.1613 249.06C46.8297 236.479 43.7306 216.481 40.5913 196.223C39.1334 186.815 37.6668 177.351 34.9622 168.548C32.2993 159.881 27.9413 151.244 23.6059 142.653C14.3665 124.344 5.2297 106.238 12.8209 88.468C13.5943 86.6576 14.4961 84.9807 15.5126 83.4223Z" fill="#FFD4DB"/>
</svg>
