<svg width="489" height="437" viewBox="0 0 489 437" fill="none" xmlns="http://www.w3.org/2000/svg">
<path d="M308.944 0C298.101 0.000234369 287.288 0.509015 276.663 1.44757C221.727 6.30011 179.748 38.8676 137.996 71.2585C135.676 73.0586 133.356 74.8583 131.035 76.6526C121.966 83.6629 112.424 90.5239 102.844 97.4128C60.1337 128.123 16.6533 159.387 10.8812 206.9C3.39729 268.502 44.6095 326.883 95.5306 368.901C144.464 409.279 210.356 431.578 276.663 426.21C338.092 421.237 387.726 384.001 427.725 342.007C464.073 303.846 481.054 256.869 485.556 206.9L485.589 206.537C490.599 150.936 496.148 89.3565 454.207 48.1065C418.252 12.7439 363.233 0.00117312 308.959 0H489V437H0V0H308.944Z" fill="#F1F3FF"/>
<path d="M40.8252 148.168C19.9364 167.704 4.19491 189.625 0.881186 216.901C-6.60271 278.503 34.6095 336.885 85.5306 378.903C134.464 419.28 200.356 441.58 266.663 436.211C326.615 431.358 375.332 395.774 414.823 355.029C377.188 391.456 331.651 421.76 276.663 426.211C210.356 431.58 144.464 409.28 95.5306 368.903C44.6095 326.885 3.39729 268.503 10.8812 206.901C13.6416 184.18 25.0257 165.174 40.8252 148.168Z" fill="#FE8DA1"/>
</svg>
