<svg width="59" height="62" viewBox="0 0 59 62" fill="none" xmlns="http://www.w3.org/2000/svg">
<path d="M50.4662 48.7316L51.2566 47.5422C51.9689 46.4216 52.6088 45.2569 53.1723 44.0552C54.0323 42.2134 54.6942 40.286 55.1469 38.3052C55.425 37.1047 55.6144 35.8854 55.7135 34.6573C55.751 34.3361 55.7595 34.0079 55.78 33.6775C55.8006 33.3472 55.8225 33.0133 55.8197 32.6738C55.8169 32.3343 55.8381 31.994 55.8197 31.6482C55.8074 31.3272 55.7956 31.0023 55.7843 30.6734C55.7097 29.935 55.6339 29.1821 55.557 28.4146C55.5364 28.2247 55.523 28.0264 55.496 27.84L55.3834 27.3127L55.1603 26.249C55.0761 25.8911 55.0371 25.5368 54.9181 25.1704C54.7991 24.8041 54.6943 24.4384 54.5817 24.0679L54.2439 22.9519C54.0938 22.5905 53.9422 22.2265 53.7892 21.8599C52.5374 18.7964 50.7222 15.9931 48.4371 13.5942L47.5462 12.6667C47.2275 12.378 46.8903 12.1055 46.5674 11.8196C46.2444 11.5338 45.9186 11.2429 45.5808 10.9726L44.5185 10.2074C44.1552 9.9625 43.8209 9.6731 43.4342 9.46134L42.2875 8.79994C41.5446 8.31783 40.7132 7.99243 39.9121 7.60491C36.6109 6.15403 33.0425 5.40471 29.4346 5.40472L28.0748 5.47177C27.5882 5.50001 27.0677 5.50636 26.6087 5.55295C25.7589 5.70471 24.9224 5.78518 24.0591 5.96588L22.7531 6.29693C22.319 6.40987 21.8749 6.48893 21.4599 6.65904L20.195 7.10586L19.5626 7.32609L18.957 7.60844C18.1574 7.99596 17.3238 8.31854 16.583 8.80841L15.4371 9.4691C15.0497 9.68086 14.7161 9.96956 14.3528 10.2145L13.2848 10.9747C12.9463 11.2479 12.6276 11.5436 12.2982 11.8218L11.3202 12.6688L10.4292 13.5998C8.14483 15.9963 6.3301 18.7973 5.07854 21.8585C3.87455 24.7914 3.27326 27.7878 3.08416 30.5992C3.0133 31.9507 3.03697 33.3055 3.15499 34.6537C3.25453 35.8816 3.44389 37.1006 3.72157 38.301C4.17373 40.2809 4.83489 42.2076 5.69399 44.0488C6.42843 45.5855 7.1055 46.7629 7.61117 47.5379L8.39943 48.7252L8.13739 48.4697C7.96954 48.2982 7.6997 48.0582 7.38525 47.7123C6.45075 46.7238 5.59809 45.6615 4.83562 44.5359C3.62426 42.7675 2.63949 40.855 1.90425 38.8431C1.43857 37.5951 1.06459 36.3151 0.785249 35.013C0.481036 33.5578 0.289018 32.0815 0.210875 30.5971C0.0779274 27.2102 0.537584 23.8261 1.56926 20.5964C2.75027 16.9478 4.65271 13.5721 7.16428 10.6684C9.86964 7.53111 13.2122 5.0018 16.9711 3.24759L17.6858 2.89889L18.4315 2.61654L19.9287 2.05185C20.4245 1.84503 20.9464 1.72574 21.4642 1.58668L23.0223 1.18292C24.0846 0.949281 25.2234 0.817284 26.3255 0.645052C26.8503 0.591406 27.3226 0.584348 27.8241 0.551878L29.4346 0.470703C33.747 0.484115 38.0644 1.44268 41.8994 3.25323C45.6554 5.0092 48.995 7.53916 51.6978 10.6761C54.2076 13.5797 56.1081 16.955 57.2872 20.6027C57.4255 21.0343 57.5629 21.4623 57.6993 21.8867C57.7938 22.3229 57.8882 22.7556 57.9826 23.1848C58.0771 23.614 58.1694 24.0391 58.2596 24.4603C58.3587 24.8768 58.3729 25.3328 58.431 25.7598C58.4782 26.1918 58.5235 26.62 58.5669 27.0445C58.5886 27.2563 58.6101 27.4666 58.6314 27.6755C58.6406 27.8767 58.6314 28.0659 58.6378 28.26C58.6378 29.0317 58.6378 29.7887 58.6378 30.5308V30.6374V30.6741L58.6328 30.7447L58.6222 30.8901L58.6002 31.1788C58.5861 31.3708 58.5719 31.5616 58.5577 31.7512C58.5322 32.131 58.4727 32.5044 58.4324 32.8728C58.392 33.2413 58.3311 33.6041 58.2695 33.9613C58.2079 34.3185 58.1491 34.6707 58.0662 35.0144C57.7876 36.3158 57.4148 37.5954 56.9508 38.8431C56.2154 40.8544 55.2314 42.7665 54.0215 44.5352C53.2588 45.6624 52.4061 46.7265 51.4719 47.7172C51.1574 48.0631 50.8904 48.301 50.7219 48.4732L50.4662 48.7316Z" fill="#003153"/>
<path d="M9.81945 31.2626L12.9314 31.2514L12.9314 35.1354C12.9314 37.6153 13.5637 39.9235 14.7934 41.9447H14.794L14.8129 41.9755L14.8292 42.002C16.1766 41.3006 17.2059 40.1445 17.9617 38.9633C16.4688 38.7988 15.6934 38.1984 15.6934 38.1984C18.6798 36.7623 19.74 32.495 19.74 32.495C19.74 32.495 20.7948 36.7647 23.7829 38.1984C23.7829 38.1984 23.0117 38.797 21.5129 38.9633C22.3003 40.1892 23.3762 41.3881 24.8051 42.0797C24.8051 42.0797 23.801 42.8536 21.8707 43.0464C22.1995 43.5382 22.565 44.0048 22.9641 44.4422C24.5324 43.5147 25.767 42.1482 26.7138 40.7265C24.2753 40.4888 23.0123 39.5042 23.0123 39.5042C24.813 38.6391 26.1707 37.1178 27.1663 35.57C25.2758 35.3557 24.3025 34.6022 24.3025 34.6022C28.0727 32.7885 29.4117 27.3978 29.4117 27.3978C29.4117 27.3978 30.7458 32.7891 34.5197 34.6022C34.5197 34.6022 33.5445 35.3557 31.6546 35.57C32.646 37.1178 34.0116 38.6391 35.8122 39.5042C35.8122 39.5042 34.5474 40.4864 32.1042 40.7265C33.0551 42.1482 34.2903 43.5147 35.8593 44.4422C36.2576 44.0043 36.6228 43.5378 36.952 43.0464C35.0187 42.8536 34.017 42.0774 34.017 42.0774C35.4459 41.3858 36.5248 40.1868 37.3039 38.9609C35.8122 38.7964 35.0362 38.196 35.0362 38.196C38.0225 36.7599 39.0791 32.4926 39.0791 32.4926C39.0791 32.4926 40.1406 36.7623 43.1221 38.196C43.1221 38.196 42.3545 38.7945 40.8556 38.9609C41.5434 40.0308 42.4482 41.0803 43.6173 41.7898C44.805 39.7967 45.4147 37.5378 45.4147 35.1354L45.4147 31.2492L49.008 31.2626C50.6583 31.2626 51.1476 29.7119 49.8689 28.7374C47.6261 27.0224 45.3888 25.3073 43.1517 23.5924L43.1505 23.5915C39.3146 20.651 35.4794 17.7111 31.6186 14.7725C30.1519 13.657 28.8327 13.5373 27.3361 14.6757L8.95688 28.7374C7.67822 29.7119 8.16863 31.2626 9.81945 31.2626Z" fill="#29BB7F"/>
<path d="M43.0743 42.6242C42.6048 42.8002 41.9833 42.9696 41.2141 43.0464C41.4349 43.3768 41.6757 43.7038 41.9372 44.0195C42.3473 43.5797 42.7275 43.1143 43.0743 42.6242Z" fill="#29BB7F"/>
<path d="M17.6057 43.0488C17.3165 43.4802 16.9938 43.9054 16.6357 44.3073C16.0313 43.6883 15.4871 43.0159 15.014 42.2929C15.4559 42.5374 16.3263 42.9211 17.6057 43.0488Z" fill="#29BB7F"/>
<path d="M38.0073 49.8675C36.1449 52.8029 33.0533 55.0314 33.0533 55.0314C41.4682 57.5033 49.7096 49.3473 50.0473 49.0131C50.0544 49.0061 50.058 49.0026 50.058 49.0026C41.6472 62.1285 29.5235 61.0435 29.5235 61.0435C16.1959 60.6097 8.76817 49.0026 8.76817 49.0026C10.7378 50.7645 13.3259 52.1295 15.5859 53.0996C18.7511 54.4518 22.2974 54.6416 25.5905 53.6351C29.5491 52.4264 33.3718 50.8162 36.9983 48.8299C37.6714 48.458 38.4182 49.2206 38.0073 49.8675Z" fill="#29BB7F"/>
</svg>
