<svg width="35" height="34" viewBox="0 0 35 34" fill="none" xmlns="http://www.w3.org/2000/svg">
<path fill-rule="evenodd" clip-rule="evenodd" d="M17.5868 1.00942C16.3607 1.17597 15.7436 1.34056 14.944 1.71412C13.7997 2.24862 12.6539 3.21907 11.9719 4.23117C11.5222 4.89858 1.99114 21.6027 1.68873 22.2535C1.0309 23.6693 0.831243 25.3842 1.1463 26.9138C1.68821 29.5448 3.45133 31.6269 5.91819 32.5489C8.4789 33.5058 11.5111 32.9099 13.5436 31.0502L13.928 30.6984L14.049 30.8367C14.2479 31.0639 14.9712 31.5052 15.5582 31.7575C16.7358 32.2636 18.6806 32.6821 20.7971 32.885C22.0799 33.0079 25.0948 33.0236 26.3544 32.9138C30.687 32.5362 33.3881 31.5151 33.9012 30.0609C34.0321 29.6901 34.0333 22.6347 33.9026 22.1955C33.4952 20.8269 31.0653 19.8379 26.9935 19.3835C25.6925 19.2382 23.0272 19.1869 21.7548 19.2824C21.1752 19.326 20.6927 19.3523 20.6825 19.3408C20.6723 19.3293 21.5629 17.7506 22.6615 15.8326C24.7681 12.1546 24.9923 11.7292 25.2584 10.9053C25.806 9.20902 25.7021 7.19127 24.9822 5.54181C23.8166 2.87112 21.3355 1.15824 18.4249 1.0149C18.0703 0.997431 17.6932 0.994954 17.5868 1.00942ZM19.6695 2.5061C21.4704 2.96799 22.9547 4.22179 23.7418 5.94608C24.1735 6.8915 24.2873 7.44249 24.2895 8.59728C24.2917 9.73323 24.1794 10.3033 23.7832 11.1676C23.5591 11.6565 19.2062 19.3217 19.0652 19.4759C18.9952 19.5523 18.1338 19.072 13.6279 16.4449C10.6831 14.7279 8.27319 13.3046 8.27248 13.282C8.26996 13.1996 12.8068 5.29372 13.0743 4.91442C13.3903 4.46629 14.1627 3.69582 14.5891 3.40328C15.2635 2.94061 16.2211 2.54677 17.0066 2.40904C17.2194 2.37175 17.4659 2.32841 17.5546 2.31283C17.9134 2.2496 19.0882 2.35696 19.6695 2.5061ZM18.6818 3.3864C18.4511 3.45425 18.2637 3.74425 18.2637 4.03321C18.2637 4.34088 18.5645 4.6211 18.8947 4.6211C19.5573 4.6211 19.7607 3.726 19.1684 3.41632C18.9579 3.30629 18.9547 3.30609 18.6818 3.3864ZM16.6198 3.49499C16.3697 3.55718 15.7595 3.83707 15.3675 4.06939C14.6149 4.51537 13.6148 5.61951 13.5174 6.11197C13.41 6.65495 14.0125 7.1079 14.4397 6.80539C14.5151 6.75194 14.7094 6.52047 14.8713 6.29096C15.3835 5.56528 15.9338 5.14837 16.8216 4.81352C17.3954 4.59705 17.5381 4.48252 17.5913 4.19636C17.6363 3.95369 17.4936 3.61956 17.3003 3.51494C17.174 3.44656 16.8525 3.43711 16.6198 3.49499ZM12.0114 17.0036C14.3362 18.3607 16.4225 19.5802 16.6476 19.7136L17.0568 19.956L16.3064 20.205C14.9255 20.6633 13.9413 21.3203 13.6288 21.9924C13.4962 22.2777 13.4931 22.3627 13.4931 25.7323V29.1802L13.2044 29.5349C12.5156 30.3807 11.3938 31.1034 10.2483 31.4391C7.16067 32.3437 4.00202 30.8232 2.7625 27.8354C2.06954 26.1651 2.14013 24.2431 2.95448 22.608C3.12809 22.2595 5.80653 17.5353 7.41712 14.737C7.53265 14.5363 7.60801 14.4676 7.68157 14.4962C7.73817 14.5181 9.68658 15.6465 12.0114 17.0036ZM26.3763 20.6388C26.5742 20.6857 26.2641 20.8359 22.5345 22.4996L18.4774 24.3093L17.6617 24.1134C16.0217 23.7195 14.7825 23.0869 14.7825 22.6437C14.7825 22.2283 15.946 21.6165 17.4942 21.2177C18.7184 20.9024 19.8683 20.7372 22.0351 20.5654C22.566 20.5234 26.144 20.5839 26.3763 20.6388ZM29.9001 21.2037C30.9542 21.4807 31.679 21.7622 32.1773 22.0879C32.7846 22.4847 32.8344 22.7066 32.3948 23.0569C31.0316 24.1429 27.2466 24.8243 23.0235 24.7439C22.0425 24.7252 21.1937 24.6839 21.1373 24.652C21.0619 24.6093 22.0991 24.1168 25.0484 22.7947C27.2559 21.8051 29.0621 20.9927 29.0621 20.9894C29.0621 20.986 29.4392 21.0825 29.9001 21.2037ZM16.306 25.0796C17.4489 25.4644 18.8015 25.73 20.7135 25.9455C21.7044 26.0571 25.5081 26.0592 26.6123 25.9487C29.0389 25.706 31.2217 25.1944 32.3948 24.5932L32.7045 24.4346V27.0624V29.6902L32.4627 29.925C31.6698 30.6952 29.2689 31.3508 26.2899 31.6105C25.0375 31.7197 22.1406 31.7044 20.8747 31.5819C18.3249 31.3351 16.3006 30.8229 15.306 30.1729C15.0941 30.0344 14.8896 29.8623 14.8516 29.7906C14.8058 29.7039 14.7825 28.7809 14.7825 27.0475V24.4349L15.1617 24.6284C15.3702 24.7349 15.8852 24.9379 16.306 25.0796Z" fill="#29BB7F" stroke="#29BB7F" stroke-width="0.5"/>
</svg>
