<svg width="32" height="32" viewBox="0 0 32 32" fill="none" xmlns="http://www.w3.org/2000/svg">
<path d="M10.728 21.168C10.728 20.6187 10.728 20.088 10.728 19.576C10.728 19.064 10.728 18.5813 10.728 18.128V16.152C10.728 15.6987 10.728 15.216 10.728 14.704C10.728 14.192 10.728 13.6613 10.728 13.112H12.856C12.856 13.6613 12.856 14.192 12.856 14.704C12.856 15.216 12.856 15.6987 12.856 16.152V18.128C12.856 18.5813 12.856 19.064 12.856 19.576C12.856 20.088 12.856 20.6187 12.856 21.168H10.728ZM7.824 18.176V16.104C8.37333 16.104 8.904 16.104 9.416 16.104C9.928 16.104 10.408 16.104 10.856 16.104H12.72C13.1733 16.104 13.656 16.104 14.168 16.104C14.68 16.104 15.2107 16.104 15.76 16.104V18.176C15.2107 18.176 14.68 18.176 14.168 18.176C13.656 18.176 13.1733 18.176 12.72 18.176H10.856C10.408 18.176 9.928 18.176 9.416 18.176C8.904 18.176 8.37333 18.176 7.824 18.176ZM17.8619 22C18.1659 21.328 18.4699 20.656 18.7739 19.984C19.0779 19.3067 19.3765 18.64 19.6699 17.984L21.0619 14.888C21.2379 14.5093 21.4085 14.1307 21.5739 13.752C21.7445 13.3733 21.9152 12.9947 22.0859 12.616L22.5659 13.104H20.5019C19.8939 13.104 19.2832 13.104 18.6699 13.104C18.0565 13.104 17.4405 13.104 16.8219 13.104V11H24.6939V12.64C24.4219 13.2533 24.1552 13.856 23.8939 14.448C23.6379 15.0347 23.3712 15.64 23.0939 16.264L22.1739 18.352C21.9125 18.96 21.6459 19.568 21.3739 20.176C21.1072 20.7787 20.8405 21.3867 20.5739 22H17.8619Z" fill="#29BB7F"/>
<rect x="1" y="1" width="30" height="30" rx="5" stroke="#29BB7F" stroke-width="2"/>
</svg>
