<svg width="28" height="28" viewBox="0 0 28 28" fill="none" xmlns="http://www.w3.org/2000/svg">
<path fill-rule="evenodd" clip-rule="evenodd" d="M13.4551 0.733107C12.9884 0.846772 12.6953 1.03986 11.8248 1.80732C11.3534 2.22295 10.9 2.61757 10.8174 2.68433L10.6672 2.80561L9.24777 2.69298C7.10264 2.52272 6.79791 2.54002 6.23941 2.86403C5.99225 3.0074 5.58135 3.40317 5.41572 3.65744C5.33815 3.77653 5.06436 4.54748 4.77719 5.45545C4.28397 7.01481 4.271 7.04697 4.09402 7.14922C2.54344 8.04509 1.59039 8.64625 1.36037 8.87343C0.793951 9.43284 0.542156 10.2853 0.725753 11.0218C0.759253 11.1563 1.03861 11.8802 1.34641 12.6304L1.90616 13.9943L1.36043 15.3143C1.06028 16.0403 0.780979 16.7624 0.739768 16.9189C0.597433 17.4592 0.679281 18.0794 0.961294 18.5978C1.20814 19.0514 1.59623 19.3509 3.09361 20.2431L4.50649 21.0849L4.83039 22.4296C5.01008 23.1757 5.22118 23.9204 5.30459 24.1027C5.49189 24.5117 5.94729 24.9782 6.3521 25.1756C6.88987 25.4378 7.13187 25.4499 8.99092 25.3072L10.659 25.1791L11.5621 25.9764C12.0588 26.4149 12.5825 26.8523 12.7258 26.9485C13.4149 27.4109 14.2994 27.4597 15.0572 27.077C15.2443 26.9825 15.7428 26.5886 16.3549 26.0515L17.3487 25.1794L19.0151 25.3073C20.8695 25.4497 21.0847 25.4391 21.6373 25.1783C22.0552 24.9811 22.5073 24.5233 22.6995 24.1027C22.7827 23.9206 22.9925 23.1787 23.1703 22.4375L23.4911 21.1008L24.9073 20.252C26.4069 19.3533 26.7959 19.052 27.0431 18.5978C27.3251 18.0794 27.4069 17.4592 27.2646 16.9189C27.2234 16.7624 26.9441 16.0403 26.6439 15.3143L26.0982 13.9943L26.6691 12.6048C27.0288 11.7293 27.2624 11.085 27.3004 10.863C27.4205 10.1625 27.1651 9.38823 26.6443 8.87358C26.4609 8.69238 25.9213 8.33715 24.943 7.75356C24.155 7.28347 23.5057 6.89583 23.4999 6.89208C23.4942 6.88838 23.347 6.288 23.1728 5.55801C22.9498 4.62367 22.8029 4.12159 22.6769 3.862C22.3568 3.20336 21.6867 2.70966 20.9604 2.5974C20.7336 2.56238 20.2318 2.58224 19.0848 2.67172C18.2236 2.7389 17.4704 2.79466 17.4111 2.7957C17.3441 2.79685 16.9497 2.4829 16.3691 1.96633C15.7739 1.43673 15.312 1.07004 15.0963 0.955799C14.5562 0.669786 14.016 0.596459 13.4551 0.733107ZM14.3545 2.34151C14.4744 2.40598 15.0401 2.87341 15.6116 3.38019C16.283 3.97556 16.7121 4.31854 16.8242 4.34944C16.9428 4.38206 17.5765 4.35262 18.8214 4.25657C19.9229 4.17162 20.7041 4.13274 20.7945 4.15849C21.0187 4.22228 21.1804 4.34407 21.2694 4.51611C21.3132 4.6009 21.5133 5.35247 21.7141 6.18632C21.9148 7.02013 22.1169 7.76017 22.1632 7.83084C22.2104 7.90287 22.9486 8.38062 23.8427 8.91767C24.7201 9.44477 25.4892 9.93086 25.5517 9.99793C25.6855 10.1413 25.7766 10.3617 25.7766 10.5418C25.7766 10.6125 25.4835 11.3818 25.1254 12.2515C24.7672 13.1211 24.4741 13.9059 24.4741 13.9953C24.4741 14.0854 24.7581 14.8394 25.1097 15.6829C25.8089 17.36 25.8645 17.5904 25.6436 17.8944C25.58 17.9819 24.8872 18.4322 23.9318 19.0069C23.0491 19.5378 22.2735 20.0344 22.2082 20.1103C22.1182 20.215 22.0049 20.5998 21.7408 21.6986C21.5491 22.4963 21.3692 23.2236 21.3412 23.3149C21.2725 23.5384 21.0038 23.7917 20.7935 23.8312C20.6992 23.8489 19.8006 23.7995 18.7965 23.7215C17.2427 23.6007 16.9463 23.5897 16.8054 23.6482C16.7143 23.6859 16.1403 24.1567 15.5299 24.6944C14.3133 25.7661 14.1749 25.849 13.7938 25.7347C13.6435 25.6897 13.2785 25.4026 12.4837 24.7044C11.8776 24.172 11.299 23.7018 11.1977 23.6595C11.0321 23.5903 10.8324 23.5966 9.19797 23.723C8.19928 23.8002 7.30677 23.8484 7.21455 23.8301C7.02694 23.7929 6.87195 23.6792 6.74634 23.4866C6.69997 23.4155 6.49605 22.6655 6.29323 21.8199C6.08988 20.9722 5.88284 20.224 5.83168 20.1522C5.71675 19.9908 5.46084 19.8248 3.79455 18.8313C3.02307 18.3714 2.42471 17.98 2.36182 17.8944C2.13941 17.5913 2.19474 17.3617 2.89464 15.6829C3.24626 14.8394 3.53025 14.0854 3.53025 13.9953C3.53025 13.9059 3.23719 13.1211 2.87901 12.2515C2.52083 11.3818 2.22777 10.6102 2.22777 10.5367C2.22777 10.3329 2.35297 10.0771 2.52265 9.9343C2.60664 9.86358 3.29247 9.44253 4.04676 8.99866C4.89353 8.50028 5.46334 8.13171 5.53628 8.03519C5.60583 7.94315 5.86268 7.21431 6.16053 6.26356C6.4389 5.37519 6.69997 4.58391 6.74066 4.50516C6.82433 4.34329 6.98969 4.22113 7.20986 4.15849C7.30031 4.13274 8.08148 4.17162 9.18301 4.25657C10.4351 4.35314 11.0612 4.38217 11.1812 4.34913C11.2782 4.32239 11.5565 4.12409 11.8064 3.90348C12.0541 3.68486 12.5382 3.25636 12.8821 2.95127C13.2259 2.64613 13.5776 2.35866 13.6635 2.31243C13.8816 2.19522 14.0995 2.2044 14.3545 2.34151ZM13.0475 5.45836C11.0993 5.68486 9.28883 6.56505 7.90643 7.95785C6.66266 9.21088 5.86237 10.7582 5.52758 12.557C5.40348 13.2237 5.40348 14.7812 5.52758 15.448C6.20565 19.0912 8.9184 21.8047 12.5572 22.4795C13.1581 22.5909 14.7311 22.606 15.3047 22.5057C17.9349 22.0463 20.0807 20.5803 21.4206 18.327C21.9251 17.4787 22.3487 16.2839 22.5012 15.2793C22.5983 14.6395 22.5866 13.2234 22.4789 12.5947C22.0357 10.0074 20.5009 7.83668 18.1585 6.4838C16.7327 5.66032 14.7434 5.26121 13.0475 5.45836ZM15.3292 7.09705C16.6971 7.38431 17.8408 7.97432 18.8097 8.89266C19.8585 9.88661 20.5301 11.0676 20.8669 12.5103C20.9856 13.0183 21.0024 13.2038 21.0024 14.0025C21.0024 14.8034 20.9857 14.9859 20.8656 15.5007C20.4395 17.3263 19.3966 18.8432 17.8674 19.8615C17.0802 20.3857 16.3106 20.7017 15.2982 20.9164C14.7668 21.029 13.3735 21.0455 12.8444 20.9455C11.3447 20.6618 10.116 20.0184 9.04552 18.9563C8.02261 17.9413 7.39382 16.7677 7.08941 15.3054C6.9614 14.6907 6.9614 13.3143 7.08941 12.6996C7.3944 11.2343 7.99536 10.1091 9.02567 9.07407C10.213 7.88135 11.5968 7.20514 13.2728 6.99876C13.6541 6.9518 14.9275 7.01267 15.3292 7.09705ZM17.571 10.961C17.485 11.0058 16.4711 11.9839 15.3177 13.1345L13.2209 15.2266L11.9052 13.9161C11.1817 13.1953 10.5147 12.568 10.423 12.5223C9.78669 12.2045 9.07892 12.9125 9.39646 13.5491C9.51134 13.7793 12.6281 16.9044 12.8669 17.0288C13.1121 17.1564 13.3293 17.1564 13.5745 17.0287C13.8636 16.8781 18.512 12.1988 18.6111 11.9586C18.715 11.707 18.7107 11.5751 18.5897 11.3085C18.421 10.9368 17.9356 10.7712 17.571 10.961Z" fill="#51B98E"/>
</svg>
