<svg width="24" height="24" viewBox="0 0 24 24" fill="none" xmlns="http://www.w3.org/2000/svg">
<path fill-rule="evenodd" clip-rule="evenodd" d="M2.99125 0.0791019C2.02545 0.312819 1.26167 1.10217 1.05852 2.07644C1.00158 2.34971 0.993368 3.64327 1.00397 10.6658L1.01645 18.9335L1.13742 19.244C1.31533 19.7009 1.4857 19.9667 1.79711 20.2734C2.05223 20.5245 2.64151 20.8803 2.8025 20.8803C2.85128 20.8803 2.86685 21.1539 2.8783 22.214C2.8919 23.4757 2.8979 23.5547 2.98942 23.6771C3.04261 23.7483 3.1444 23.8501 3.21565 23.9033C3.34107 23.997 3.40083 24 5.09729 24C6.80519 24 6.85276 23.9975 6.98184 23.9012C7.05469 23.847 7.15647 23.7309 7.20807 23.6432C7.29428 23.4968 7.30306 23.3845 7.31647 22.2525L7.33101 21.0211H11.5H15.669L15.6835 22.2525C15.6969 23.3845 15.7057 23.4968 15.7919 23.6432C15.8435 23.7309 15.9453 23.847 16.0181 23.9012C16.1472 23.9975 16.1948 24 17.9027 24C19.5992 24 19.6589 23.997 19.7843 23.9033C19.8556 23.8501 19.9574 23.7483 20.0106 23.6771C20.1021 23.5547 20.1081 23.4757 20.1217 22.214C20.1331 21.1539 20.1487 20.8803 20.1975 20.8803C20.3585 20.8803 20.9478 20.5245 21.2029 20.2734C21.5143 19.9667 21.6847 19.7009 21.8626 19.244L21.9835 18.9335L21.9968 10.7003C22.0063 4.78704 21.9952 2.37823 21.9575 2.15131C21.7922 1.15691 20.9913 0.313617 19.9875 0.0769909C19.5463 -0.0270138 3.42147 -0.0249966 2.99125 0.0791019ZM10.7964 8.23744V15.0632H6.59763H2.39887L2.41125 8.67138L2.42363 2.27957L2.53316 2.07429C2.67402 1.81022 2.83538 1.66052 3.12723 1.52306L3.36176 1.41263L7.07908 1.41216L10.7964 1.41169V8.23744ZM19.7602 1.46607C20.0466 1.56369 20.2934 1.7687 20.4374 2.02869L20.5764 2.27957L20.5887 8.67138L20.6011 15.0632H16.4024H12.2036V8.23744V1.41169H15.9022C18.5824 1.41169 19.6447 1.42666 19.7602 1.46607ZM8.13405 6.90021C7.81963 7.09194 7.79477 7.18984 7.79459 8.2382C7.79435 9.33313 7.82109 9.42756 8.18367 9.61432C8.35535 9.70271 8.43645 9.71795 8.59354 9.69145C8.83426 9.65077 9.12569 9.37929 9.17082 9.15369C9.18775 9.06906 9.20112 8.63826 9.20055 8.1964C9.19938 7.28043 9.14553 7.07313 8.86424 6.90157C8.66123 6.77781 8.33579 6.77716 8.13405 6.90021ZM14.1357 6.89885C13.8527 7.07646 13.8006 7.28053 13.7997 8.21399C13.7993 8.66552 13.8204 9.11236 13.8467 9.20703C13.9092 9.43197 14.1608 9.64993 14.4057 9.69131C14.5586 9.71715 14.6435 9.70116 14.8167 9.61399C15.1789 9.4316 15.2056 9.33796 15.2056 8.24758C15.2056 7.24924 15.1909 7.17404 14.9514 6.95031C14.7777 6.78795 14.3549 6.7613 14.1357 6.89885ZM20.5911 17.6082C20.5744 18.8937 20.5587 18.9588 20.1838 19.2976C19.8102 19.6352 20.4012 19.6137 11.5 19.6137C2.59883 19.6137 3.1898 19.6352 2.81615 19.2976C2.44127 18.9588 2.42556 18.8937 2.40891 17.6082L2.39413 16.4706H11.5H20.6059L20.5911 17.6082ZM5.91815 21.8186V22.6161H5.09729H4.27643V21.8186V21.0211H5.09729H5.91815V21.8186ZM18.7236 21.8186V22.6161H17.9027H17.0818V21.8186V21.0211H17.9027H18.7236V21.8186Z" fill="#51B98E"/>
</svg>
