<svg width="24" height="24" viewBox="0 0 24 24" fill="none" xmlns="http://www.w3.org/2000/svg">
<path fill-rule="evenodd" clip-rule="evenodd" d="M10.2272 3.22347C6.59272 3.61351 3.15993 5.16502 0.588386 7.57984C0.0470207 8.08823 -0.0447147 8.24798 0.0165047 8.57606C0.0451925 8.72977 0.200538 8.90276 1.18277 9.87483C1.80598 10.4916 2.37284 11.0259 2.44245 11.062C2.60502 11.1464 2.88918 11.1457 3.05535 11.0604C3.12693 11.0237 3.39459 10.8026 3.65025 10.5691C5.51566 8.86514 7.97128 7.75646 10.5332 7.46172C11.2942 7.37416 12.6954 7.37398 13.4545 7.4613C16.0612 7.76121 18.5436 8.90036 20.4667 10.6792C20.6797 10.8762 20.9084 11.0577 20.9748 11.0826C21.1481 11.1474 21.4021 11.1383 21.5489 11.062C21.6185 11.0259 22.1854 10.4916 22.8086 9.87483C24.044 8.65223 24.0726 8.61096 23.9548 8.22419C23.8508 7.88293 22.4014 6.63884 21.1934 5.85401C18.9379 4.38862 16.4161 3.50148 13.7124 3.22222C12.8746 3.13568 11.039 3.13633 10.2272 3.22347ZM13.6195 4.60545C16.6875 4.92233 19.5586 6.13589 21.8981 8.1046C22.0979 8.27274 22.2614 8.42562 22.2614 8.44434C22.2614 8.46301 22.0308 8.70442 21.749 8.98081L21.2365 9.48326L20.8466 9.15984C18.7665 7.43428 16.3093 6.39739 13.5429 6.0778C12.7853 5.99029 11.2079 5.99015 10.4485 6.07757C7.69476 6.3944 5.24908 7.4258 3.14301 9.15859L2.75132 9.48082L2.23231 8.97035C1.76477 8.5105 1.71987 8.45204 1.77968 8.38118C1.89218 8.24784 2.76064 7.56056 3.22996 7.2335C5.28034 5.80449 7.77792 4.87982 10.3274 4.60596C11.1282 4.51993 12.7892 4.51965 13.6195 4.60545ZM10.566 8.93812C8.3092 9.25145 6.36898 10.14 4.68732 11.6303C4.47048 11.8225 4.25433 12.0422 4.20699 12.1185C4.10396 12.2847 4.09444 12.6051 4.18744 12.7783C4.22419 12.8468 4.76738 13.4038 5.39449 14.016C6.59712 15.1902 6.65234 15.2297 6.99997 15.1656C7.09963 15.1472 7.30747 15.0056 7.59398 14.7609C8.53013 13.9614 9.49445 13.4742 10.6363 13.2239C11.159 13.1092 12.5099 13.0807 13.0504 13.1728C14.3453 13.3935 15.4445 13.9217 16.4665 14.8144C16.7045 15.0222 16.8907 15.147 16.9902 15.1654C17.3392 15.2298 17.3936 15.1909 18.5969 14.016C19.224 13.4038 19.7672 12.8468 19.8039 12.7783C19.8896 12.6187 19.8897 12.3111 19.8041 12.1513C19.6731 11.9069 18.9183 11.2547 18.1832 10.7508C16.9132 9.88031 15.4258 9.27832 13.8707 9.00543C13.1159 8.87297 11.3014 8.83604 10.566 8.93812ZM13.3151 10.3239C14.673 10.5102 16.0418 11.0139 17.1593 11.7385C17.6879 12.0813 18.131 12.4223 18.1342 12.4886C18.1354 12.5144 17.9077 12.7597 17.6282 13.0338L17.1201 13.532L16.7493 13.26C15.8071 12.5686 14.7814 12.1149 13.5737 11.8554C13.1568 11.7658 12.9595 11.753 11.9957 11.753C11.0319 11.753 10.8345 11.7658 10.4177 11.8554C9.17138 12.1232 7.97587 12.6684 7.08121 13.3771L6.87767 13.5383L6.36635 13.0369C6.0851 12.7612 5.85597 12.5144 5.85719 12.4886C5.86029 12.4232 6.26234 12.1145 6.81594 11.7528C7.92304 11.0291 9.29293 10.5173 10.6363 10.3253C11.2638 10.2356 12.6663 10.2349 13.3151 10.3239ZM11.5193 14.5893C10.482 14.6765 9.51212 15.0865 8.66171 15.7973C8.29809 16.1013 8.17514 16.3364 8.22441 16.6335C8.25295 16.8057 8.39527 16.9598 9.90297 18.4504C10.809 19.3461 11.6073 20.1086 11.6769 20.1447C11.7466 20.1808 11.89 20.2103 11.9957 20.2103C12.1014 20.2103 12.2448 20.1808 12.3144 20.1447C12.384 20.1086 13.1823 19.3461 14.0884 18.4504C15.6116 16.9444 15.7382 16.8071 15.7678 16.6288C15.8336 16.2323 15.5297 15.8632 14.7043 15.3371C13.789 14.7536 12.6754 14.4922 11.5193 14.5893ZM12.8976 16.0617C13.2519 16.1465 13.9682 16.4639 13.9971 16.5491C14.005 16.5725 13.5579 17.0375 13.0036 17.5823L11.9957 18.5729L10.9879 17.5824C10.4336 17.0377 9.98003 16.5764 9.98003 16.5575C9.98003 16.5017 10.689 16.1674 10.9901 16.0814C11.5446 15.9228 12.285 15.9152 12.8976 16.0617Z" fill="#51B98E"/>
</svg>
