<svg width="24" height="24" viewBox="0 0 24 24" fill="none" xmlns="http://www.w3.org/2000/svg">
<path fill-rule="evenodd" clip-rule="evenodd" d="M1.64144 0.0619104C0.872543 0.271842 0.27263 0.88347 0.0702277 1.66391C0.00936694 1.89844 0.00048556 3.3074 0.00048556 12.7011C0.00048556 24.631 -0.0252704 23.6635 0.298386 23.8953C0.443339 23.9992 0.459092 24 2.19746 24C3.93582 24 3.95157 23.9992 4.09653 23.8953C4.4193 23.6641 4.39443 24.4959 4.39443 13.9352V4.40105H7.27059L8.41339 5.55149L8.26904 5.9247C7.78669 7.17227 7.72807 8.68475 8.11077 10.0108C8.27381 10.5759 8.62636 11.3067 8.99105 11.8357L9.2897 12.2689L9.19771 12.5012C9.07846 12.8025 9.03808 13.4171 9.11581 13.7482C9.40025 14.9593 10.6211 15.7166 11.7943 15.4097C12.409 15.2489 12.2845 15.3626 16.7253 10.9099C19.021 8.60809 20.9704 6.61801 21.0572 6.4875C21.3261 6.08355 21.4213 5.72035 21.4014 5.17562C21.3859 4.75134 21.368 4.67229 21.2155 4.3541C21.0134 3.93227 20.7954 3.67032 20.4607 3.44725C19.8915 3.0678 19.167 2.96786 18.5229 3.1799L18.1845 3.29135L18.079 3.19568C17.6962 2.84858 16.7969 2.37121 16.1143 2.15273C15.3558 1.91003 14.9092 1.85281 13.977 1.87896C13.0895 1.90388 12.5511 2.008 11.8832 2.28375L11.5696 2.41327L10.6114 1.46773C9.5933 0.46309 9.35809 0.272828 8.93646 0.112516C8.6753 0.0132769 8.62308 0.0116808 5.28257 0.00243289C2.42889 -0.00550058 1.85379 0.00388814 1.64144 0.0619104ZM8.54483 1.48726C8.64019 1.53707 9.07328 1.93609 9.50715 2.37393L10.2961 3.17L10.1148 3.33355C10.0152 3.42349 9.8705 3.55043 9.79337 3.61563C9.71624 3.68084 9.54843 3.86204 9.42044 4.01827L9.18775 4.30233L8.5769 3.69924C8.11731 3.24548 7.92029 3.08264 7.78122 3.04156C7.64959 3.00274 7.00209 2.99124 5.53134 3.00161C3.53032 3.01574 3.46226 3.01922 3.33726 3.11301C3.26631 3.16624 3.16487 3.26811 3.11186 3.33942L3.01548 3.46908L2.99145 22.6152H1.40281V1.99171L1.51841 1.79361C1.59385 1.66433 1.70351 1.56096 1.83393 1.49613C2.03161 1.39783 2.06961 1.39675 5.20263 1.3967C8.24203 1.39666 8.37847 1.40037 8.54483 1.48726ZM15.4494 3.41274C15.8584 3.52306 16.7692 3.95114 16.992 4.13774L17.1322 4.25519L13.6966 7.70808C11.8071 9.60714 10.2505 11.1607 10.2376 11.1605C10.1895 11.1597 9.86217 10.608 9.69782 10.2508C9.60429 10.0475 9.4734 9.67793 9.40698 9.4296C9.30012 9.03016 9.28619 8.88867 9.28619 8.20348C9.28619 7.51669 9.29998 7.37727 9.40801 6.97328C9.90644 5.10924 11.307 3.78149 13.2363 3.34388C13.6897 3.24107 14.9594 3.28055 15.4494 3.41274ZM19.4226 4.49958C19.9508 4.64379 20.1745 5.25054 19.8718 5.718C19.6526 6.05665 11.7878 13.914 11.5828 13.9992C11.3415 14.0995 11.1343 14.0895 10.8903 13.9658C10.5402 13.7883 10.3771 13.345 10.5202 12.9596C10.5671 12.8333 18.4809 4.83091 18.7619 4.62563C18.8717 4.54545 19.0104 4.49231 19.2123 4.45306C19.2252 4.45057 19.3198 4.47151 19.4226 4.49958ZM20.3895 9.66216C20.1014 9.72337 19.8666 10.0319 19.8669 10.3488C19.8676 11.0607 20.8841 11.2802 21.1772 10.6318C21.2893 10.3839 21.2895 10.2953 21.1784 10.0497C21.0411 9.74595 20.7253 9.5908 20.3895 9.66216ZM18.09 11.8768C17.8351 12.051 17.7394 12.2176 17.7433 12.48C17.7492 12.8778 18.0329 13.156 18.4327 13.156C18.8476 13.156 19.1188 12.8717 19.1188 12.4369C19.1188 11.9347 18.4989 11.5973 18.09 11.8768ZM21.3609 12.8869C21.0829 13.0205 20.934 13.2447 20.934 13.53C20.934 14.2311 21.8399 14.4987 22.2049 13.9054C22.2889 13.769 22.3045 13.6882 22.2872 13.4784C22.269 13.2585 22.2407 13.1945 22.0979 13.0512C21.9541 12.9068 21.8946 12.8805 21.6814 12.8675C21.5446 12.8592 21.4004 12.8679 21.3609 12.8869ZM16.1094 13.9317C15.831 14.0165 15.6129 14.3192 15.6132 14.6207C15.6137 15.1364 16.2323 15.4705 16.6796 15.1967C16.881 15.0733 17.0361 14.7344 16.9982 14.5002C16.9342 14.1038 16.486 13.8171 16.1094 13.9317ZM19.1854 15.0581C18.9633 15.1685 18.7912 15.4381 18.7923 15.6739C18.7941 16.03 19.1371 16.3717 19.4928 16.3717C19.8484 16.3717 20.1914 16.03 20.1932 15.6739C20.1943 15.4354 20.0214 15.1665 19.7966 15.0572C19.5532 14.9389 19.4248 14.9391 19.1854 15.0581ZM22.3441 16.1258C22.0061 16.3087 21.8789 16.8208 22.0982 17.1158C22.3391 17.4399 22.6654 17.5246 22.9937 17.3481C23.4516 17.1021 23.4996 16.4749 23.0838 16.1689C22.9035 16.0362 22.548 16.0155 22.3441 16.1258ZM16.9985 17.2119C16.5714 17.4947 16.58 18.1491 17.0142 18.4059C17.3179 18.5854 17.7755 18.4793 17.9521 18.1884C18.0623 18.007 18.0734 17.6452 17.9747 17.4536C17.8164 17.1462 17.2934 17.0167 16.9985 17.2119ZM20.2456 18.259C19.8892 18.45 19.7584 18.892 19.96 19.2239C20.3303 19.8339 21.2403 19.5723 21.2403 18.8558C21.2403 18.6244 21.0867 18.3524 20.8991 18.2515C20.6974 18.1432 20.4565 18.1459 20.2456 18.259ZM18.0897 20.4006C17.8658 20.5183 17.7016 20.8383 17.7388 21.0846C17.7771 21.3374 17.9277 21.5307 18.1702 21.6385C18.6287 21.8421 19.1191 21.506 19.1186 20.9885C19.1182 20.4812 18.5518 20.1576 18.0897 20.4006Z" fill="#51B98E"/>
</svg>
