<svg width="24" height="24" viewBox="0 0 24 24" fill="none" xmlns="http://www.w3.org/2000/svg">
<path fill-rule="evenodd" clip-rule="evenodd" d="M2.04201 1.33494C1.0869 1.54156 0.30751 2.31054 0.0797876 3.27096C-0.0241186 3.70917 -0.0277258 16.625 0.0759461 17.1112C0.218876 17.7817 0.721448 18.4571 1.32493 18.7895C1.95525 19.1367 1.74533 19.1196 5.5937 19.1373L9.04865 19.1532V19.9423V20.7315H7.04117C5.03646 20.7315 5.03346 20.7317 4.87882 20.8363C4.63747 20.9996 4.53576 21.1664 4.53576 21.399C4.53576 21.6344 4.65297 21.863 4.84757 22.0073L4.97987 22.1053H12H19.0201L19.1524 22.0073C19.347 21.863 19.4642 21.6344 19.4642 21.399C19.4642 21.1664 19.3625 20.9996 19.1212 20.8363C18.9665 20.7317 18.9635 20.7315 16.9588 20.7315H14.9513V19.9423V19.1532L18.4063 19.1373C21.5864 19.1227 21.8818 19.1147 22.1189 19.0372C23.0397 18.7365 23.736 17.9935 23.9241 17.1112C24.0277 16.625 24.0241 3.70917 23.9202 3.27096C23.6902 2.30114 22.9109 1.53816 21.9417 1.33396C21.4908 1.23896 2.48129 1.2399 2.04201 1.33494ZM21.9712 2.82433C22.2453 2.97526 22.4514 3.2304 22.5377 3.52569C22.5778 3.66288 22.5882 5.41906 22.5779 10.3003L22.564 16.8897L22.4619 17.0791C22.3308 17.3226 22.0403 17.5828 21.8088 17.664C21.5376 17.7593 2.46242 17.7593 2.19117 17.664C1.95966 17.5828 1.66921 17.3226 1.53808 17.0791L1.43605 16.8897L1.42214 10.3003C1.41197 5.49589 1.4226 3.66172 1.46125 3.52928C1.5713 3.15245 1.84661 2.87076 2.24266 2.7298C2.38985 2.67741 4.05305 2.66842 12.0703 2.67657L21.7207 2.68639L21.9712 2.82433ZM13.5459 19.9399V20.7315H12H10.4541V19.9399V19.1482H12H13.5459V19.9399Z" fill="#51B98E"/>
</svg>
