<svg width="24" height="24" viewBox="0 0 24 24" fill="none" xmlns="http://www.w3.org/2000/svg">
<path fill-rule="evenodd" clip-rule="evenodd" d="M11.4609 0.0656103C11.0662 0.16438 10.7708 0.333043 10.4732 0.62954C10.013 1.08809 9.84375 1.55555 9.84375 2.36858V2.81162H9.42C8.76609 2.81162 8.57976 2.94311 8.39058 3.53821C8.22117 4.07092 7.93533 4.4457 7.49358 4.71402C7.06045 4.97714 7.01958 5.09213 7.03894 5.99353C7.05347 6.66903 7.06425 6.74628 7.1782 6.98929C7.35197 7.35985 7.59984 7.61402 7.96111 7.79182L8.27147 7.94464H10.5459H12.8203L13.0837 7.82112C13.4541 7.64744 13.7084 7.39942 13.8862 7.03842C14.036 6.73451 14.0394 6.71361 14.0548 5.99475C14.0741 5.09513 14.0326 4.977 13.6066 4.71749C13.1561 4.44307 12.9242 4.1515 12.733 3.61898C12.4759 2.90303 12.356 2.81162 11.6737 2.81162H11.25V2.38785C11.25 1.87365 11.3358 1.66721 11.6148 1.5104C11.8005 1.40606 11.8159 1.40531 13.8247 1.40531C15.7595 1.40531 15.8555 1.40943 16.0325 1.49967C16.1516 1.56042 16.2511 1.65999 16.3119 1.7791C16.4047 1.96117 16.4062 2.04522 16.4062 7.07418V12.1842L12.7852 12.1973C8.74777 12.2119 8.99981 12.1918 8.44997 12.5436L8.20312 12.7015L7.95295 12.5414C7.46662 12.2303 7.34367 12.2104 5.90625 12.2104C5.19727 12.2104 4.52756 12.2281 4.41797 12.2497L4.21875 12.289V11.0172C4.21875 10.0368 4.20164 9.66273 4.14412 9.38423C3.85912 8.00436 2.77622 6.92141 1.39641 6.6364C0.669609 6.48625 0.277641 6.5763 0.0943594 6.93557C0.000843748 7.11886 0 7.19489 0 15.2809C0 23.3669 0.000843748 23.4429 0.0943594 23.6262C0.155109 23.7453 0.254672 23.8449 0.373781 23.9056C0.548156 23.9946 0.647812 24 2.10938 24C3.57094 24 3.67059 23.9946 3.84497 23.9056C3.96408 23.8449 4.06364 23.7453 4.12439 23.6262C4.21481 23.4489 4.21875 23.3534 4.21875 21.3299V19.2185H10.3125H16.4062V21.3299C16.4062 23.3534 16.4102 23.4489 16.5006 23.6262C16.6067 23.8342 16.8768 24 17.1094 24C17.342 24 17.612 23.8342 17.7181 23.6262C17.8086 23.4489 17.8125 23.3534 17.8125 21.3299V19.2185H18.7969H19.7812V21.3299C19.7812 23.3534 19.7852 23.4489 19.8756 23.6262C19.9364 23.7453 20.0359 23.8449 20.155 23.9056C20.3294 23.9946 20.4291 24 21.8906 24C23.3522 24 23.4518 23.9946 23.6262 23.9056C23.7453 23.8449 23.8449 23.7453 23.9056 23.6262C23.9984 23.4445 24 23.3591 24 18.7774C24 15.4778 23.9844 14.0409 23.9468 13.8652C23.7745 13.0598 23.1272 12.4125 22.3219 12.2402C22.1574 12.205 21.354 12.187 19.943 12.187H17.8125V7.05628C17.8125 3.40864 17.7971 1.85378 17.7593 1.67715C17.5866 0.869737 16.9373 0.220117 16.1344 0.0512659C15.7717 -0.0250498 11.7742 -0.012768 11.4609 0.0656103ZM11.576 4.51817C11.7581 4.89984 12.1602 5.41329 12.4397 5.62123L12.6562 5.7823V6.09835C12.6562 6.32321 12.635 6.43572 12.5826 6.48813C12.518 6.55272 12.2681 6.56177 10.5469 6.56177C8.82567 6.56177 8.57578 6.55272 8.51114 6.48813C8.45878 6.43572 8.4375 6.32321 8.4375 6.09835V5.7823L8.65402 5.62123C8.93353 5.41329 9.33563 4.89984 9.51773 4.51817L9.66103 4.21792H10.5469H11.4327L11.576 4.51817ZM1.83994 8.3062C2.11842 8.48195 2.42691 8.82204 2.5717 9.113C2.82061 9.61313 2.81133 9.33994 2.81194 16.2067L2.8125 22.5937H2.10938H1.40625V15.3481V8.10238L1.51172 8.13402C1.5697 8.15142 1.71745 8.2289 1.83994 8.3062ZM7.12622 13.6877C7.40606 13.8305 7.5 14.0537 7.5 14.5759V14.9996H5.85938H4.21875L4.22072 14.566C4.22302 14.0532 4.29722 13.8726 4.57467 13.7046C4.75331 13.5966 4.78472 13.5938 5.84953 13.5936C6.85144 13.5933 6.95644 13.6011 7.12622 13.6877ZM22.22 13.6877C22.4998 13.8305 22.5938 14.0537 22.5938 14.5759V14.9996H15.75H8.90625L8.90822 14.566C8.91052 14.0532 8.98472 13.8726 9.26217 13.7046L9.44531 13.5938L15.7402 13.5936C21.9568 13.5933 22.0373 13.5945 22.22 13.6877ZM22.5938 17.1091V17.8122H13.4062H4.21875V17.1091V16.4059H13.4062H22.5938V17.1091ZM22.5938 20.9061V22.5937H21.8906H21.1875V20.9061V19.2185H21.8906H22.5938V20.9061Z" fill="#51B98E"/>
</svg>
