<svg width="286" height="5220" viewBox="0 0 286 5220" fill="none" xmlns="http://www.w3.org/2000/svg">
<path fill-rule="evenodd" clip-rule="evenodd" d="M-353.5 416.388C-240.385 324.341 -81.1281 -206.004 37 87.7347C163.734 402.874 194.765 596.82 254.475 1195.51C314.205 1794.4 190.676 2246.41 192.225 2843.03C193.934 3501.51 340.406 4346.83 263.882 4818.97C189.089 5280.41 -702.627 5230.02 -842.278 5204.38C-971.456 5180.66 -400.119 5053.35 -520.801 4674.88C-640.39 4299.84 -665.118 3580.91 -735.424 3004.74C-804.161 2441.44 -944.709 1891.8 -927.562 1341.43C-910.291 787.037 -741.654 809.083 -656.494 471.244C-577.74 158.816 -462.818 505.344 -353.5 416.388Z" fill="#FFF6F8"/>
</svg>
