<svg width="28" height="28" viewBox="0 0 28 28" fill="none" xmlns="http://www.w3.org/2000/svg">
<path d="M22.8116 3.49653C22.5176 3.5102 22.2408 3.59565 21.9947 3.69136H21.9913C21.7417 3.79048 20.5557 4.2895 18.7544 5.04487C16.9532 5.80366 14.6153 6.78804 12.2945 7.76557C7.65971 9.71723 3.10356 11.6381 3.10356 11.6381L3.15825 11.6176C3.15825 11.6176 2.84379 11.7202 2.51567 11.9458C2.34819 12.0551 2.16362 12.2055 2.00297 12.4414C1.84233 12.6772 1.71245 13.0395 1.7603 13.4121C1.83891 14.0444 2.24907 14.4238 2.54301 14.6323C2.84038 14.8442 3.12407 14.9433 3.12407 14.9433H3.1309L7.40337 16.3823C7.59477 16.9975 8.70561 20.6479 8.97221 21.4887C9.12944 21.9912 9.28325 22.3056 9.47465 22.5449C9.56694 22.6679 9.67631 22.7705 9.8062 22.8525C9.85747 22.8832 9.91215 22.9072 9.96684 22.9277C9.98393 22.9379 10.001 22.9414 10.0215 22.9448L9.97709 22.9345C9.99077 22.9379 10.001 22.9482 10.0113 22.9516C10.0455 22.9619 10.0694 22.9653 10.1138 22.9721C10.7906 23.1772 11.334 22.7568 11.334 22.7568L11.3648 22.7329L13.8872 20.436L18.1153 23.6796L18.211 23.7207C19.0928 24.1069 19.9849 23.8916 20.4566 23.5122C20.9317 23.1293 21.1163 22.6406 21.1163 22.6406L21.147 22.562L24.4146 5.82417C24.5069 5.41059 24.5308 5.02436 24.4283 4.64839C24.3257 4.27241 24.0625 3.92036 23.7447 3.73237C23.4234 3.54097 23.1055 3.48286 22.8116 3.49653ZM22.7227 5.29097C22.7193 5.34565 22.7295 5.33882 22.7056 5.44477V5.45503L19.4688 22.0185C19.4551 22.0424 19.4312 22.0937 19.3663 22.145C19.2979 22.1997 19.2432 22.2338 18.9595 22.121L13.7881 18.1562L10.6641 21.0034L11.3204 16.8129C11.3204 16.8129 19.4209 9.26264 19.7696 8.93794C20.1182 8.61323 20.002 8.54487 20.002 8.54487C20.0259 8.14839 19.4756 8.42866 19.4756 8.42866L8.82182 15.0288L8.8184 15.0117L3.71196 13.2924V13.289C3.70854 13.289 3.7017 13.2856 3.69829 13.2856C3.7017 13.2856 3.72563 13.2753 3.72563 13.2753L3.75297 13.2617L3.78032 13.2514C3.78032 13.2514 8.33989 11.3305 12.9747 9.37886C15.2955 8.40132 17.6333 7.41694 19.4312 6.65815C21.229 5.90278 22.5586 5.34907 22.6338 5.31831C22.7056 5.29097 22.6714 5.29097 22.7227 5.29097Z" fill="#5799E9"/>
</svg>
