<svg width="384" height="287" viewBox="0 0 384 287" fill="none" xmlns="http://www.w3.org/2000/svg">
<path d="M188.022 0C186.086 2.28479e-05 184.137 0.0329458 182.176 0.0992576C174.841 0.34718 167.323 0.448935 159.727 0.551731C112.039 1.19712 61.3161 1.88358 34.1656 39.0413C-1.1563 87.3822 -3.74321 158.779 29.1652 208.789C51.2735 242.386 92.4208 246.558 133.984 250.773C148.95 252.29 163.971 253.813 178.175 256.717C191.286 259.398 204.511 263.451 217.664 267.482C254.807 278.866 291.378 290.074 323.185 269.698C362.523 244.497 383.979 196.463 384 149.382V287H0V0H188.022Z" fill="white"/>
<path d="M188.026 0C223.459 0.000418088 254.747 11.0172 285.182 30.0547C290.284 33.2456 295.525 36.4086 300.803 39.5944C337.352 61.6531 375.714 84.8053 382.189 125.912C383.398 133.59 383.997 141.404 384 149.246V0H188.026Z" fill="white"/>
<path d="M38.8856 33.1992C35.0048 36.6649 31.4162 40.5909 28.1656 45.0397C-7.1563 93.3806 -9.74321 164.778 23.1652 214.787C45.2735 248.384 86.4208 252.556 127.984 256.771C142.95 258.289 157.971 259.812 172.175 262.716C185.286 265.396 198.511 269.45 211.664 273.481C248.807 284.865 285.378 296.073 317.185 275.697C325.544 270.342 333.095 263.956 339.805 256.768C334.683 261.546 329.139 265.883 323.185 269.697C291.378 290.073 254.807 278.865 217.664 267.481C204.511 263.45 191.286 259.396 178.175 256.716C163.971 253.812 148.95 252.289 133.984 250.771C92.4208 246.556 51.2735 242.384 29.1652 208.787C-3.74321 158.778 -1.1563 87.3806 34.1656 39.0397C35.6682 36.9832 37.2431 35.0385 38.8856 33.1992Z" fill="#51B98E"/>
</svg>
